# This file uses centimeters as units for non-parametric coordinates.

mtllib Player_Knife.mtl
g default
v -0.495713 0.139525 0.018353
v -0.483505 0.130308 0.018353
v -0.465235 0.124150 0.018353
v -0.443684 0.121987 0.018353
v -0.443684 0.124150 0.025375
v -0.443684 0.130308 0.031327
v -0.443684 0.139525 0.035305
v -0.443684 0.150397 0.036702
v -0.465235 0.150397 0.035305
v -0.483505 0.150397 0.031327
v -0.495713 0.150397 0.025375
v -0.500000 0.150397 0.018353
v 0.465235 0.124150 0.018353
v 0.483505 0.130308 0.018353
v 0.495713 0.139525 0.018353
v 0.500000 0.150397 0.018353
v 0.495713 0.150397 0.025375
v 0.483505 0.150397 0.031327
v 0.465235 0.150397 0.035305
v 0.443684 0.150397 0.036702
v 0.443684 0.139525 0.035305
v 0.443684 0.130308 0.031327
v 0.443684 0.124150 0.025375
v 0.443684 0.121987 0.018353
v -0.465235 0.273518 0.018353
v -0.483505 0.267359 0.018353
v -0.495713 0.258142 0.018353
v -0.500000 0.247270 0.018353
v -0.495713 0.247270 0.025375
v -0.483505 0.247270 0.031327
v -0.465235 0.247270 0.035305
v -0.443684 0.247270 0.036702
v -0.443684 0.258142 0.035305
v -0.443684 0.267359 0.031327
v -0.443684 0.273518 0.025375
v -0.443684 0.275680 0.018353
v 0.495713 0.258142 0.018353
v 0.483505 0.267359 0.018353
v 0.465235 0.273518 0.018353
v 0.443684 0.275680 0.018353
v 0.443684 0.273518 0.025375
v 0.443684 0.267359 0.031327
v 0.443684 0.258142 0.035305
v 0.443684 0.247270 0.036702
v 0.465235 0.247270 0.035305
v 0.483505 0.247270 0.031327
v 0.495713 0.247270 0.025375
v 0.500000 0.247270 0.018353
v -0.465235 0.247270 -0.035305
v -0.483505 0.247270 -0.031327
v -0.495713 0.247270 -0.025375
v -0.500000 0.247270 -0.018353
v -0.495713 0.258142 -0.018353
v -0.483505 0.267359 -0.018353
v -0.465235 0.273518 -0.018353
v -0.443684 0.275680 -0.018353
v -0.443684 0.273518 -0.025375
v -0.443684 0.267359 -0.031327
v -0.443684 0.258142 -0.035305
v -0.443684 0.247270 -0.036702
v 0.495713 0.247270 -0.025375
v 0.483505 0.247270 -0.031327
v 0.465235 0.247270 -0.035305
v 0.443684 0.247270 -0.036702
v 0.443684 0.258142 -0.035305
v 0.443684 0.267359 -0.031327
v 0.443684 0.273518 -0.025375
v 0.443684 0.275680 -0.018353
v 0.465235 0.273518 -0.018353
v 0.483505 0.267359 -0.018353
v 0.495713 0.258142 -0.018353
v 0.500000 0.247270 -0.018353
v -0.465235 0.124150 -0.018353
v -0.483505 0.130308 -0.018353
v -0.495713 0.139525 -0.018353
v -0.500000 0.150397 -0.018353
v -0.495713 0.150397 -0.025375
v -0.483505 0.150397 -0.031327
v -0.465235 0.150397 -0.035305
v -0.443684 0.150397 -0.036702
v -0.443684 0.139525 -0.035305
v -0.443684 0.130308 -0.031327
v -0.443684 0.124150 -0.025375
v -0.443684 0.121987 -0.018353
v 0.495713 0.139525 -0.018353
v 0.483505 0.130308 -0.018353
v 0.465235 0.124150 -0.018353
v 0.443684 0.121987 -0.018353
v 0.443684 0.124150 -0.025375
v 0.443684 0.130308 -0.031327
v 0.443684 0.139525 -0.035305
v 0.443684 0.150397 -0.036702
v 0.465235 0.150397 -0.035305
v 0.483505 0.150397 -0.031327
v 0.495713 0.150397 -0.025375
v 0.500000 0.150397 -0.018353
v -0.492818 0.140591 0.024686
v -0.481724 0.131207 0.023730
v -0.463122 0.125611 0.024686
v -0.460187 0.131207 0.030747
v -0.463122 0.140591 0.034362
v -0.481724 0.142072 0.030747
v -0.476187 0.134001 0.028943
v 0.463122 0.125611 0.024686
v 0.481724 0.131207 0.023730
v 0.492818 0.140591 0.024686
v 0.481724 0.142072 0.030747
v 0.463122 0.140591 0.034362
v 0.460187 0.131207 0.030747
v 0.476187 0.134001 0.028943
v -0.463122 0.272057 0.024686
v -0.481724 0.266460 0.023730
v -0.492818 0.257076 0.024686
v -0.481724 0.255596 0.030747
v -0.463122 0.257076 0.034362
v -0.460187 0.266460 0.030747
v -0.476187 0.263667 0.028943
v 0.492818 0.257076 0.024686
v 0.481724 0.266460 0.023730
v 0.463122 0.272057 0.024686
v 0.460187 0.266460 0.030747
v 0.463122 0.257076 0.034362
v 0.481724 0.255596 0.030747
v 0.476187 0.263667 0.028943
v -0.463122 0.257076 -0.034362
v -0.481724 0.255596 -0.030747
v -0.492818 0.257076 -0.024686
v -0.481724 0.266460 -0.023730
v -0.463122 0.272057 -0.024686
v -0.460187 0.266460 -0.030747
v -0.476187 0.263667 -0.028943
v 0.492818 0.257076 -0.024686
v 0.481724 0.255596 -0.030747
v 0.463122 0.257076 -0.034362
v 0.460187 0.266460 -0.030747
v 0.463122 0.272057 -0.024686
v 0.481724 0.266460 -0.023730
v 0.476187 0.263667 -0.028943
v -0.463122 0.125611 -0.024686
v -0.481724 0.131207 -0.023730
v -0.492818 0.140591 -0.024686
v -0.481724 0.142072 -0.030747
v -0.463122 0.140591 -0.034362
v -0.460187 0.131207 -0.030747
v -0.476187 0.134001 -0.028943
v 0.492818 0.140591 -0.024686
v 0.481724 0.131207 -0.023730
v 0.463122 0.125611 -0.024686
v 0.460187 0.131207 -0.030747
v 0.463122 0.140591 -0.034362
v 0.481724 0.142072 -0.030747
v 0.476187 0.134001 -0.028943
v -1.539721 0.150397 0.018353
v -1.539721 0.150397 -0.018353
v -1.695862 0.247270 0.018353
v -1.695862 0.247270 -0.018353
v -0.500000 0.004998 0.018353
v -0.500000 0.004998 -0.018353
v -0.938796 0.004998 0.018353
v -0.938796 0.004998 -0.018353
v -1.208916 0.049599 -0.018353
v -1.209090 0.049641 0.018353
vt 0.389079 0.937506
vt 0.389079 0.046212
vt 0.610921 0.937506
vt 0.687494 0.046212
vt 0.389079 0.203788
vt 0.610921 0.203788
vt 0.687494 0.203788
vt 0.187494 0.046212
vt 0.389079 0.437506
vt 0.610921 0.437506
vt 0.812506 0.203788
vt 0.812506 0.046212
vt 0.610921 0.812494
vt 0.389079 0.703788
vt 0.610921 0.703788
vt 0.610921 0.046212
vt 0.389079 0.312494
vt 0.610921 0.312494
vt 0.389079 0.546212
vt 0.610921 0.546212
vt 0.389079 0.812494
vt 0.312506 0.046212
vt 0.312506 0.203788
vt 0.187494 0.203788
vt 0.321443 0.021218
vt 0.375000 0.953713
vt 0.328713 -0.000000
vt 0.383921 0.943515
vt 0.389156 0.970964
vt 0.388499 -0.000000
vt 0.388499 1.000000
vt 0.389069 0.024605
vt 0.381731 0.045471
vt 0.366648 0.044191
vt 0.343055 0.043994
vt 0.616083 0.943514
vt 0.671287 -0.000000
vt 0.625000 0.953713
vt 0.678564 0.021219
vt 0.656944 0.043997
vt 0.633360 0.044204
vt 0.618266 0.045466
vt 0.610934 0.024614
vt 0.611501 1.000000
vt 0.611501 -0.000000
vt 0.610833 0.970967
vt 0.383922 0.306487
vt 0.328713 0.250000
vt 0.375000 0.296287
vt 0.321437 0.228781
vt 0.343075 0.206005
vt 0.366673 0.205798
vt 0.381756 0.204535
vt 0.389512 0.225464
vt 0.389497 0.250189
vt 0.389613 0.279114
vt 0.678555 0.228782
vt 0.625000 0.296287
vt 0.671287 0.250000
vt 0.616074 0.306486
vt 0.610395 0.279114
vt 0.610494 0.250192
vt 0.610483 0.225473
vt 0.618246 0.204531
vt 0.633319 0.205812
vt 0.656928 0.206007
vt 0.384472 0.541820
vt 0.125000 0.217005
vt 0.375000 0.532995
vt 0.152817 0.211425
vt 0.178454 0.228936
vt 0.375000 0.453713
vt 0.171287 0.250000
vt 0.383928 0.443511
vt 0.389722 0.470657
vt 0.389768 0.499305
vt 0.389924 0.523763
vt 0.847146 0.211400
vt 0.625000 0.532995
vt 0.875000 0.217005
vt 0.615532 0.541819
vt 0.610071 0.523764
vt 0.610236 0.499308
vt 0.610267 0.470657
vt 0.616077 0.443511
vt 0.828713 0.250000
vt 0.625000 0.453713
vt 0.821566 0.228967
vt 0.383923 0.806489
vt 0.171287 -0.000000
vt 0.375000 0.796287
vt 0.178434 0.021033
vt 0.152854 0.038600
vt 0.375000 0.717005
vt 0.125000 0.032995
vt 0.384468 0.708181
vt 0.389929 0.726236
vt 0.389764 0.750692
vt 0.389733 0.779343
vt 0.821546 0.021064
vt 0.625000 0.796287
vt 0.828713 -0.000000
vt 0.616072 0.806489
vt 0.610278 0.779343
vt 0.610232 0.750695
vt 0.610076 0.726237
vt 0.615528 0.708180
vt 0.875000 0.032995
vt 0.625000 0.717005
vt 0.847183 0.038575
vt 0.348144 0.021225
vt 0.375000 0.976856
vt 0.351856 -0.000000
vt 0.384344 0.971724
vt 0.383671 -0.000000
vt 0.383671 1.000000
vt 0.383788 0.025929
vt 0.371028 0.024784
vt 0.375000 1.000000
vt 0.375000 0.000000
vt 0.615674 0.971722
vt 0.648144 -0.000000
vt 0.625000 0.976856
vt 0.651836 0.021224
vt 0.628941 0.024732
vt 0.616239 0.025940
vt 0.616329 1.000000
vt 0.616329 -0.000000
vt 0.625000 0.000000
vt 0.625000 1.000000
vt 0.384596 0.278310
vt 0.351856 0.250000
vt 0.375000 0.273144
vt 0.348182 0.228777
vt 0.371177 0.225276
vt 0.384125 0.224083
vt 0.384594 0.249690
vt 0.375000 0.250000
vt 0.651834 0.228776
vt 0.625000 0.273144
vt 0.648144 0.250000
vt 0.615389 0.278324
vt 0.615442 0.249702
vt 0.615852 0.224101
vt 0.628855 0.225226
vt 0.625000 0.250000
vt 0.385658 0.523124
vt 0.125000 0.232996
vt 0.375000 0.517004
vt 0.150246 0.231250
vt 0.375000 0.476856
vt 0.148144 0.250000
vt 0.384680 0.471540
vt 0.384792 0.499854
vt 0.125000 0.250000
vt 0.375000 0.500000
vt 0.849819 0.231203
vt 0.625000 0.517004
vt 0.875000 0.232996
vt 0.614339 0.523140
vt 0.615158 0.499849
vt 0.615331 0.471551
vt 0.851856 0.250000
vt 0.625000 0.476856
vt 0.625000 0.500000
vt 0.875000 0.250000
vt 0.384669 0.778449
vt 0.148144 -0.000000
vt 0.375000 0.773144
vt 0.150181 0.018797
vt 0.375000 0.732996
vt 0.125000 0.017004
vt 0.385661 0.726860
vt 0.384842 0.750151
vt 0.125000 0.000000
vt 0.375000 0.750000
vt 0.849754 0.018750
vt 0.625000 0.773144
vt 0.851856 -0.000000
vt 0.615320 0.778460
vt 0.615208 0.750146
vt 0.614342 0.726876
vt 0.875000 0.017004
vt 0.625000 0.732996
vt 0.625000 0.750000
vt 0.875000 0.000000
vt 0.187494 0.046212
vt 0.312506 0.046212
vt 0.312506 0.203788
vt 0.187494 0.203788
vt 0.187494 0.046212
vt 0.312506 0.046212
vt 0.312506 0.046212
vt 0.187494 0.046212
vt 0.187494 0.046212
vt 0.312506 0.046212
vn -0.002299 -0.998787 0.049182
vn -0.202000 -0.978527 0.040994
vn -0.202000 -0.978527 -0.040994
vn -0.002299 -0.998787 -0.049182
vn -0.449039 -0.892350 0.045551
vn -0.449039 -0.892350 -0.045551
vn -0.772835 -0.631311 0.064594
vn -0.772835 -0.631311 -0.064594
vn -0.919858 -0.146245 0.363968
vn -0.919858 -0.146245 -0.363968
vn -0.001498 -0.012890 0.999916
vn -0.001139 -0.258148 0.966105
vn 0.001139 -0.258148 0.966105
vn 0.001498 -0.012890 0.999916
vn -0.001230 -0.542251 0.840216
vn 0.001230 -0.542251 0.840216
vn -0.001577 -0.841594 0.540109
vn 0.001577 -0.841594 0.540109
vn 0.002299 -0.998787 0.049182
vn -0.618547 -0.020747 0.785474
vn -0.618547 0.020747 0.785474
vn -0.919859 0.146245 0.363967
vn -0.308915 -0.012580 0.951006
vn -0.308915 0.012580 0.951007
vn -0.132432 -0.010764 0.991134
vn -0.132432 0.010764 0.991134
vn -0.001498 0.012890 0.999916
vn 0.994628 -0.038595 0.096052
vn 0.772835 -0.631311 0.064594
vn 0.772835 -0.631311 -0.064594
vn 0.994628 -0.038595 -0.096052
vn 0.449039 -0.892350 0.045551
vn 0.449039 -0.892350 -0.045551
vn 0.202000 -0.978527 0.040994
vn 0.202000 -0.978527 -0.040994
vn 0.002299 -0.998787 -0.049182
vn 0.132432 -0.010764 0.991134
vn 0.132432 0.010764 0.991134
vn 0.001498 0.012890 0.999916
vn 0.308915 -0.012580 0.951007
vn 0.308915 0.012580 0.951006
vn 0.618547 -0.020747 0.785474
vn 0.618547 0.020747 0.785474
vn 0.994628 0.038595 0.096052
vn -0.772837 0.631308 0.064594
vn -0.772837 0.631308 -0.064594
vn -0.919859 0.146245 -0.363967
vn -0.449039 0.892350 0.045552
vn -0.449039 0.892350 -0.045552
vn -0.202000 0.978527 0.040996
vn -0.202000 0.978527 -0.040995
vn -0.002300 0.998787 0.049183
vn -0.002300 0.998787 -0.049183
vn -0.001577 0.841594 0.540109
vn 0.001577 0.841594 0.540108
vn 0.002300 0.998787 0.049183
vn -0.001230 0.542250 0.840216
vn 0.001230 0.542250 0.840216
vn -0.001139 0.258147 0.966105
vn 0.001139 0.258147 0.966105
vn 0.202000 0.978527 0.040995
vn 0.202000 0.978527 -0.040996
vn 0.002300 0.998787 -0.049183
vn 0.449039 0.892350 0.045552
vn 0.449039 0.892350 -0.045552
vn 0.772837 0.631308 0.064594
vn 0.772837 0.631308 -0.064594
vn 0.994628 0.038595 -0.096052
vn -0.618547 0.020747 -0.785474
vn -0.618547 -0.020747 -0.785474
vn -0.308915 0.012580 -0.951006
vn -0.308915 -0.012580 -0.951007
vn -0.132432 0.010764 -0.991134
vn -0.132432 -0.010764 -0.991134
vn -0.001498 0.012890 -0.999916
vn -0.001498 -0.012890 -0.999916
vn -0.001139 0.258147 -0.966105
vn 0.001139 0.258147 -0.966105
vn 0.001498 0.012890 -0.999916
vn -0.001230 0.542250 -0.840216
vn 0.001230 0.542250 -0.840216
vn -0.001577 0.841594 -0.540108
vn 0.001577 0.841594 -0.540109
vn 0.132432 0.010764 -0.991134
vn 0.132432 -0.010764 -0.991134
vn 0.001498 -0.012890 -0.999916
vn 0.308915 0.012580 -0.951007
vn 0.308915 -0.012580 -0.951006
vn 0.618547 0.020747 -0.785474
vn 0.618547 -0.020747 -0.785474
vn -0.001577 -0.841594 -0.540109
vn 0.001577 -0.841594 -0.540109
vn -0.001230 -0.542251 -0.840216
vn 0.001230 -0.542251 -0.840216
vn -0.001139 -0.258148 -0.966105
vn 0.001139 -0.258148 -0.966105
vn -0.376154 -0.926557 -0.000094
vn -0.376154 -0.926557 -0.000094
vn -0.527197 -0.849743 0.000000
vn -0.527197 -0.849743 0.000000
vn -0.572133 -0.443528 0.689889
vn -0.378948 -0.765017 0.520718
vn -0.161580 -0.853674 0.495109
vn -0.123772 -0.533852 0.836470
vn -0.116099 -0.233860 0.965314
vn -0.289675 -0.269475 0.918407
vn -0.270274 -0.534190 0.800995
vn 0.161580 -0.853674 0.495109
vn 0.378948 -0.765017 0.520718
vn 0.572133 -0.443528 0.689888
vn 0.289676 -0.269475 0.918407
vn 0.116099 -0.233860 0.965314
vn 0.123772 -0.533852 0.836470
vn 0.270274 -0.534190 0.800995
vn -0.161581 0.853672 0.495112
vn -0.378947 0.765017 0.520720
vn -0.572133 0.443528 0.689889
vn -0.289676 0.269474 0.918407
vn -0.116099 0.233861 0.965314
vn -0.123773 0.533853 0.836469
vn -0.270274 0.534194 0.800992
vn 0.572133 0.443528 0.689889
vn 0.378947 0.765017 0.520720
vn 0.161581 0.853672 0.495112
vn 0.123773 0.533853 0.836469
vn 0.116099 0.233861 0.965313
vn 0.289676 0.269474 0.918407
vn 0.270274 0.534193 0.800993
vn -0.116099 0.233861 -0.965313
vn -0.289676 0.269474 -0.918407
vn -0.572133 0.443528 -0.689889
vn -0.378947 0.765017 -0.520720
vn -0.161581 0.853672 -0.495112
vn -0.123773 0.533853 -0.836469
vn -0.270274 0.534194 -0.800993
vn 0.572133 0.443528 -0.689889
vn 0.289676 0.269474 -0.918407
vn 0.116099 0.233861 -0.965314
vn 0.123773 0.533853 -0.836469
vn 0.161581 0.853672 -0.495112
vn 0.378947 0.765017 -0.520720
vn 0.270274 0.534194 -0.800992
vn -0.161580 -0.853674 -0.495109
vn -0.378948 -0.765017 -0.520718
vn -0.572133 -0.443528 -0.689888
vn -0.289676 -0.269475 -0.918407
vn -0.116099 -0.233860 -0.965314
vn -0.123772 -0.533852 -0.836470
vn -0.270274 -0.534190 -0.800995
vn 0.572133 -0.443528 -0.689889
vn 0.378948 -0.765017 -0.520718
vn 0.161580 -0.853674 -0.495109
vn 0.123772 -0.533852 -0.836470
vn 0.116099 -0.233860 -0.965314
vn 0.289675 -0.269475 -0.918407
vn 0.270274 -0.534190 -0.800995
vn 0.000000 -1.000000 0.000000
vn 0.000000 -1.000000 0.000000
vn 0.000000 -1.000000 0.000000
vn 0.000000 -1.000000 0.000000
vn 0.000000 0.000000 1.000000
vn 0.000000 0.000000 1.000000
vn 0.000000 0.000000 1.000000
vn 0.000000 0.000000 1.000000
vn 0.000000 1.000000 0.000000
vn 0.000000 1.000000 0.000000
vn 0.000000 1.000000 0.000000
vn 0.000000 1.000000 0.000000
vn 0.000000 0.000000 -1.000000
vn 0.000000 0.000000 -1.000000
vn 0.000000 0.000000 -1.000000
vn 0.000000 0.000000 -1.000000
vn 1.000000 0.000000 0.000000
vn 1.000000 0.000000 0.000000
vn 1.000000 0.000000 0.000000
vn 1.000000 0.000000 0.000000
vn 0.000000 0.000000 1.000000
vn 0.000000 0.000000 1.000000
vn 0.000000 0.000000 1.000000
vn -0.235148 -0.971960 -0.000000
vn -0.235200 -0.971947 -0.000000
vn 0.000000 0.000000 -1.000000
vn 0.000000 0.000000 -1.000000
vn 0.000000 0.000000 -1.000000
vn -0.162935 -0.986637 0.000179
vn -0.162935 -0.986637 0.000179
s 1
g pCube1
usemtl initialShadingGroup
f 4/1/1 3/28/2 73/89/3 84/21/4
f 3/28/2 2/26/5 74/91/6 73/89/3
f 2/27/5 1/25/7 75/92/8 74/90/6
f 1/25/7 12/22/9 76/8/10 75/92/8
f 8/2/11 7/32/12 21/43/13 20/16/14
f 7/32/12 6/30/15 22/45/16 21/43/13
f 6/31/15 5/29/17 23/46/18 22/44/16
f 5/29/17 4/1/1 24/3/19 23/46/18
f 12/22/9 11/35/20 29/51/21 28/23/22
f 11/35/20 10/34/23 30/52/24 29/51/21
f 10/34/23 9/33/25 31/53/26 30/52/24
f 9/33/25 8/2/11 32/5/27 31/53/26
f 16/4/28 15/39/29 85/100/30 96/12/31
f 15/39/29 14/37/32 86/102/33 85/100/30
f 14/38/32 13/36/34 87/103/35 86/101/33
f 13/36/34 24/3/19 88/13/36 87/103/35
f 20/16/14 19/42/37 45/64/38 44/6/39
f 19/42/37 18/41/40 46/65/41 45/64/38
f 18/41/40 17/40/42 47/66/43 46/65/41
f 17/40/42 16/4/28 48/7/44 47/66/43
f 28/23/22 27/50/45 53/71/46 52/24/47
f 27/50/45 26/48/48 54/73/49 53/71/46
f 26/49/48 25/47/50 55/74/51 54/72/49
f 25/47/50 36/17/52 56/9/53 55/74/51
f 36/17/52 35/56/54 41/61/55 40/18/56
f 35/56/54 34/55/57 42/62/58 41/61/55
f 34/55/57 33/54/59 43/63/60 42/62/58
f 33/54/59 32/5/27 44/6/39 43/63/60
f 40/18/56 39/60/61 69/85/62 68/10/63
f 39/60/61 38/58/64 70/87/65 69/85/62
f 38/59/64 37/57/66 71/88/67 70/86/65
f 37/57/66 48/7/44 72/11/68 71/88/67
f 52/24/47 51/70/69 77/93/70 76/8/10
f 51/70/69 50/68/71 78/95/72 77/93/70
f 50/69/71 49/67/73 79/96/74 78/94/72
f 49/67/73 60/19/75 80/14/76 79/96/74
f 60/19/75 59/77/77 65/82/78 64/20/79
f 59/77/77 58/76/80 66/83/81 65/82/78
f 58/76/80 57/75/82 67/84/83 66/83/81
f 57/75/82 56/9/53 68/10/63 67/84/83
f 64/20/79 63/81/84 93/107/85 92/15/86
f 63/81/84 62/79/87 94/109/88 93/107/85
f 62/80/87 61/78/89 95/110/90 94/108/88
f 61/78/89 72/11/68 96/12/31 95/110/90
f 84/21/4 83/99/91 89/104/92 88/13/36
f 83/99/91 82/98/93 90/105/94 89/104/92
f 82/98/93 81/97/95 91/106/96 90/105/94
f 81/97/95 80/14/76 92/15/86 91/106/96
f 8/2/11 20/16/14 44/6/39 32/5/27
f 36/17/52 40/18/56 68/10/63 56/9/53
f 60/19/75 64/20/79 92/15/86 80/14/76
f 84/21/4 88/13/36 24/3/19 4/1/1
f 16/4/28 96/12/31 72/11/68 48/7/44
s 4
f 154/187/97 153/188/98 155/189/99 156/190/100
s 1
f 11/35/20 12/22/9 1/25/7 97/111/101
f 97/111/101 1/25/7 2/27/5 98/113/102
f 98/112/102 2/26/5 3/28/2 99/114/103
f 3/28/2 4/1/1 5/29/17 99/114/103
f 99/114/103 5/29/17 6/31/15 100/116/104
f 100/115/104 6/30/15 7/32/12 101/117/105
f 7/32/12 8/2/11 9/33/25 101/117/105
f 101/117/105 9/33/25 10/34/23 102/118/106
f 102/118/106 10/34/23 11/35/20 97/111/101
f 102/118/106 97/111/101 98/113/102 103/120/107
f 98/112/102 99/114/103 100/116/104 103/119/107
f 100/115/104 101/117/105 102/118/106 103/120/107
f 23/46/18 24/3/19 13/36/34 104/121/108
f 104/121/108 13/36/34 14/38/32 105/123/109
f 105/122/109 14/37/32 15/39/29 106/124/110
f 15/39/29 16/4/28 17/40/42 106/124/110
f 106/124/110 17/40/42 18/41/40 107/125/111
f 107/125/111 18/41/40 19/42/37 108/126/112
f 19/42/37 20/16/14 21/43/13 108/126/112
f 108/126/112 21/43/13 22/45/16 109/128/113
f 109/127/113 22/44/16 23/46/18 104/121/108
f 109/127/113 104/121/108 105/123/109 110/130/114
f 105/122/109 106/124/110 107/125/111 110/129/114
f 107/125/111 108/126/112 109/128/113 110/129/114
f 35/56/54 36/17/52 25/47/50 111/131/115
f 111/131/115 25/47/50 26/49/48 112/133/116
f 112/132/116 26/48/48 27/50/45 113/134/117
f 27/50/45 28/23/22 29/51/21 113/134/117
f 113/134/117 29/51/21 30/52/24 114/135/118
f 114/135/118 30/52/24 31/53/26 115/136/119
f 31/53/26 32/5/27 33/54/59 115/136/119
f 115/136/119 33/54/59 34/55/57 116/137/120
f 116/137/120 34/55/57 35/56/54 111/131/115
f 116/137/120 111/131/115 112/133/116 117/138/121
f 112/132/116 113/134/117 114/135/118 117/138/121
f 114/135/118 115/136/119 116/137/120 117/138/121
f 47/66/43 48/7/44 37/57/66 118/139/122
f 118/139/122 37/57/66 38/59/64 119/141/123
f 119/140/123 38/58/64 39/60/61 120/142/124
f 39/60/61 40/18/56 41/61/55 120/142/124
f 120/142/124 41/61/55 42/62/58 121/143/125
f 121/143/125 42/62/58 43/63/60 122/144/126
f 43/63/60 44/6/39 45/64/38 122/144/126
f 122/144/126 45/64/38 46/65/41 123/145/127
f 123/145/127 46/65/41 47/66/43 118/139/122
f 123/145/127 118/139/122 119/141/123 124/146/128
f 119/140/123 120/142/124 121/143/125 124/146/128
f 121/143/125 122/144/126 123/145/127 124/146/128
f 59/77/77 60/19/75 49/67/73 125/147/129
f 125/147/129 49/67/73 50/69/71 126/149/130
f 126/148/130 50/68/71 51/70/69 127/150/131
f 51/70/69 52/24/47 53/71/46 127/150/131
f 127/150/131 53/71/46 54/73/49 128/152/132
f 128/151/132 54/72/49 55/74/51 129/153/133
f 55/74/51 56/9/53 57/75/82 129/153/133
f 129/153/133 57/75/82 58/76/80 130/154/134
f 130/154/134 58/76/80 59/77/77 125/147/129
f 130/154/134 125/147/129 126/149/130 131/156/135
f 126/148/130 127/150/131 128/152/132 131/155/135
f 128/151/132 129/153/133 130/154/134 131/156/135
f 71/88/67 72/11/68 61/78/89 132/157/136
f 132/157/136 61/78/89 62/80/87 133/159/137
f 133/158/137 62/79/87 63/81/84 134/160/138
f 63/81/84 64/20/79 65/82/78 134/160/138
f 134/160/138 65/82/78 66/83/81 135/161/139
f 135/161/139 66/83/81 67/84/83 136/162/140
f 67/84/83 68/10/63 69/85/62 136/162/140
f 136/162/140 69/85/62 70/87/65 137/164/141
f 137/163/141 70/86/65 71/88/67 132/157/136
f 137/163/141 132/157/136 133/159/137 138/166/142
f 133/158/137 134/160/138 135/161/139 138/165/142
f 135/161/139 136/162/140 137/164/141 138/165/142
f 83/99/91 84/21/4 73/89/3 139/167/143
f 139/167/143 73/89/3 74/91/6 140/169/144
f 140/168/144 74/90/6 75/92/8 141/170/145
f 75/92/8 76/8/10 77/93/70 141/170/145
f 141/170/145 77/93/70 78/95/72 142/172/146
f 142/171/146 78/94/72 79/96/74 143/173/147
f 79/96/74 80/14/76 81/97/95 143/173/147
f 143/173/147 81/97/95 82/98/93 144/174/148
f 144/174/148 82/98/93 83/99/91 139/167/143
f 144/174/148 139/167/143 140/169/144 145/176/149
f 140/168/144 141/170/145 142/172/146 145/175/149
f 142/171/146 143/173/147 144/174/148 145/176/149
f 95/110/90 96/12/31 85/100/30 146/177/150
f 146/177/150 85/100/30 86/102/33 147/179/151
f 147/178/151 86/101/33 87/103/35 148/180/152
f 87/103/35 88/13/36 89/104/92 148/180/152
f 148/180/152 89/104/92 90/105/94 149/181/153
f 149/181/153 90/105/94 91/106/96 150/182/154
f 91/106/96 92/15/86 93/107/85 150/182/154
f 150/182/154 93/107/85 94/109/88 151/184/155
f 151/183/155 94/108/88 95/110/90 146/177/150
f 151/183/155 146/177/150 147/179/151 152/186/156
f 147/178/151 148/180/152 149/181/153 152/185/156
f 149/181/153 150/182/154 151/184/155 152/185/156
s off
f 158/191/157 157/192/158 159/193/159 160/194/160
s 5
f 12/22/161 28/23/162 155/189/163 153/188/164
s off
f 28/23/165 52/24/166 156/190/167 155/189/168
s 6
f 52/24/169 76/8/170 154/187/171 156/190/172
s off
f 76/8/173 12/22/174 157/192/175 158/191/176
s 5
f 12/22/161 153/188/164 162/196/177 159/193/178 157/192/179
s 4
f 153/188/98 154/187/97 161/195/180 162/196/181
s 6
f 154/187/171 76/8/170 158/191/182 160/194/183 161/195/184
s 4
f 162/196/181 161/195/180 160/194/185 159/193/186
