# This file uses centimeters as units for non-parametric coordinates.

mtllib building3.mtl
g default
v -1.670367 -0.102415 8.346788
v 1.670367 -0.102415 8.346788
v -1.670367 5.745660 8.346788
v 1.670367 5.745660 8.346788
v -1.670367 5.745660 4.504792
v 1.670367 5.745660 4.504792
v -1.670367 -0.102415 4.504792
v 1.670367 -0.102415 4.504792
v -1.670367 0.769135 8.346788
v -1.670367 0.769135 4.504792
v 1.670367 0.769135 4.504792
v 1.670367 0.769135 8.346788
v -2.899711 -0.102415 4.504792
v -2.899711 -0.102415 8.346788
v -2.899711 0.769135 8.346788
v -2.899711 0.769135 4.504792
vt 0.375000 0.000000
vt 0.625000 0.000000
vt 0.375000 0.250000
vt 0.625000 0.250000
vt 0.375000 0.500000
vt 0.625000 0.500000
vt 0.375000 0.750000
vt 0.625000 0.750000
vt 0.375000 1.000000
vt 0.625000 1.000000
vt 0.875000 0.000000
vt 0.875000 0.250000
vt 0.125000 0.000000
vt 0.125000 0.250000
vt 0.375000 0.037258
vt 0.125000 0.037258
vt 0.375000 0.712742
vt 0.625000 0.712742
vt 0.875000 0.037258
vt 0.625000 0.037258
vt 0.125000 0.000000
vt 0.375000 0.000000
vt 0.375000 0.037258
vt 0.125000 0.037258
vn 0.000000 0.000000 1.000000
vn 0.000000 0.000000 1.000000
vn 0.000000 0.000000 1.000000
vn 0.000000 0.000000 1.000000
vn 0.000000 1.000000 0.000000
vn 0.000000 1.000000 0.000000
vn 0.000000 1.000000 0.000000
vn 0.000000 1.000000 0.000000
vn 0.000000 0.000000 -1.000000
vn 0.000000 0.000000 -1.000000
vn 0.000000 0.000000 -1.000000
vn 0.000000 0.000000 -1.000000
vn 0.000000 -1.000000 0.000000
vn 0.000000 -1.000000 0.000000
vn 0.000000 -1.000000 0.000000
vn 0.000000 -1.000000 0.000000
vn 1.000000 0.000000 0.000000
vn 1.000000 0.000000 0.000000
vn 1.000000 0.000000 0.000000
vn 1.000000 0.000000 0.000000
vn -1.000000 0.000000 0.000000
vn -1.000000 0.000000 0.000000
vn -1.000000 0.000000 0.000000
vn -1.000000 0.000000 0.000000
vn -1.000000 0.000000 0.000000
vn -1.000000 0.000000 0.000000
vn -1.000000 0.000000 0.000000
vn -1.000000 0.000000 0.000000
vn 0.000000 0.000000 -1.000000
vn 0.000000 0.000000 -1.000000
vn 1.000000 0.000000 0.000000
vn 1.000000 0.000000 0.000000
vn 0.000000 0.000000 1.000000
vn 0.000000 0.000000 1.000000
vn 0.000000 -1.000000 0.000000
vn 0.000000 -1.000000 0.000000
vn 0.000000 0.000000 1.000000
vn 0.000000 0.000000 1.000000
vn 0.000000 1.000000 0.000000
vn 0.000000 1.000000 0.000000
vn 0.000000 1.000000 0.000000
vn 0.000000 1.000000 0.000000
vn 0.000000 0.000000 -1.000000
vn 0.000000 0.000000 -1.000000
s 1
g building3
usemtl initialShadingGroup
f 1/1/1 2/2/2 12/20/3 9/15/4
s off
f 3/3/5 4/4/6 6/6/7 5/5/8
s 2
f 10/17/9 11/18/10 8/8/11 7/7/12
s 3
f 7/7/13 8/8/14 2/10/15 1/9/16
s 4
f 2/2/17 8/11/18 11/19/19 12/20/20
s off
f 13/21/21 14/22/22 15/23/23 16/24/24
f 10/16/25 9/15/26 3/3/27 5/14/28
s 2
f 5/5/29 6/6/30 11/18/10 10/17/9
s 4
f 12/20/20 11/19/19 6/12/31 4/4/32
s 1
f 9/15/4 12/20/3 4/4/33 3/3/34
s 3
f 7/13/13 1/1/16 14/22/35 13/21/36
s 1
f 1/1/1 9/15/4 15/23/37 14/22/38
s off
f 9/15/39 10/16/40 16/24/41 15/23/42
s 2
f 10/16/9 7/13/12 13/21/43 16/24/44
