# This file uses centimeters as units for non-parametric coordinates.

mtllib building2.mtl
g default
v -1.551108 -0.003356 -4.120052
v 1.551108 -0.003356 -4.120052
v -1.551108 1.718030 -4.120052
v 1.551108 1.718030 -4.120052
v -1.551108 1.718030 -8.621128
v 1.551108 1.718030 -8.621128
v -1.551108 -0.003356 -8.621128
v 1.551108 -0.003356 -8.621128
v -1.551108 1.718030 -7.070944
v -1.551108 -0.003356 -7.070944
v 1.551108 -0.003356 -7.070944
v 1.551108 1.718030 -7.070944
v -2.110637 -0.003356 -8.621128
v -2.110637 -0.003356 -7.070944
v -2.110637 1.718030 -7.070944
v -2.110637 1.718030 -8.621128
v -1.551108 -0.003356 -7.370004
v -2.110637 -0.003356 -7.370004
v -2.110637 1.718030 -7.370004
v -1.551108 1.718030 -7.370004
v 1.551108 1.718030 -7.370004
v 1.551108 -0.003356 -7.370004
v -1.551108 -0.003356 -8.333864
v -2.110637 -0.003356 -8.333864
v -2.110637 1.718030 -8.333864
v -1.551108 1.718030 -8.333864
v 1.551108 1.718030 -8.333864
v 1.551108 -0.003356 -8.333864
v -1.792697 -0.003356 -8.333864
v -1.792697 1.718030 -8.333864
v -1.792697 -0.003356 -7.370004
v -1.792697 1.718030 -7.370004
v -1.551108 1.718030 -4.484582
v -1.551108 -0.003356 -4.484582
v 1.551108 -0.003356 -4.484582
v 1.551108 1.718030 -4.484582
v -2.136133 1.718030 -4.484582
v -2.136133 -0.003356 -4.484582
v -2.136133 -0.003356 -4.120052
v -2.136133 1.718030 -4.120052
vt 0.375000 0.000000
vt 0.625000 0.000000
vt 0.375000 0.250000
vt 0.625000 0.250000
vt 0.375000 0.500000
vt 0.625000 0.500000
vt 0.375000 0.750000
vt 0.625000 0.750000
vt 0.375000 1.000000
vt 0.625000 1.000000
vt 0.875000 0.000000
vt 0.875000 0.250000
vt 0.125000 0.000000
vt 0.125000 0.250000
vt 0.211101 0.250000
vt 0.375000 0.413899
vt 0.211101 0.000000
vt 0.375000 0.836101
vt 0.625000 0.836101
vt 0.788899 0.000000
vt 0.625000 0.413899
vt 0.788899 0.250000
vt 0.125000 0.000000
vt 0.211101 0.000000
vt 0.211101 0.250000
vt 0.125000 0.250000
vt 0.194490 0.000000
vt 0.375000 0.819490
vt 0.194490 0.000000
vt 0.194490 0.250000
vt 0.194490 0.250000
vt 0.375000 0.430510
vt 0.625000 0.430510
vt 0.805510 0.250000
vt 0.625000 0.819490
vt 0.805510 0.000000
vt 0.140955 0.000000
vt 0.375000 0.765955
vt 0.140955 0.000000
vt 0.140955 0.250000
vt 0.140955 0.250000
vt 0.375000 0.484045
vt 0.625000 0.484045
vt 0.859045 0.250000
vt 0.625000 0.765955
vt 0.859045 0.000000
vt 0.140955 0.250000
vt 0.140955 0.000000
vt 0.194490 0.000000
vt 0.194490 0.250000
vt 0.354753 0.250000
vt 0.375000 0.270247
vt 0.354753 0.000000
vt 0.375000 0.979753
vt 0.625000 0.979753
vt 0.645247 0.000000
vt 0.625000 0.270247
vt 0.645247 0.250000
vt 0.354753 0.250000
vt 0.354753 0.000000
vt 0.375000 0.000000
vt 0.375000 0.250000
vn 0.000000 0.000000 1.000000
vn 0.000000 0.000000 1.000000
vn 0.000000 0.000000 1.000000
vn 0.000000 0.000000 1.000000
vn 0.000000 1.000000 0.000000
vn 0.000000 1.000000 0.000000
vn 0.000000 1.000000 0.000000
vn 0.000000 1.000000 0.000000
vn 0.000000 0.000000 -1.000000
vn 0.000000 0.000000 -1.000000
vn 0.000000 0.000000 -1.000000
vn 0.000000 0.000000 -1.000000
vn 0.000000 -1.000000 0.000000
vn 0.000000 -1.000000 0.000000
vn 0.000000 -1.000000 0.000000
vn 0.000000 -1.000000 0.000000
vn 1.000000 0.000000 0.000000
vn 1.000000 0.000000 0.000000
vn 1.000000 0.000000 0.000000
vn 1.000000 0.000000 0.000000
vn -1.000000 0.000000 0.000000
vn -1.000000 0.000000 0.000000
vn -1.000000 0.000000 0.000000
vn -1.000000 0.000000 0.000000
vn -1.000000 0.000000 0.000000
vn -1.000000 0.000000 0.000000
vn -1.000000 0.000000 0.000000
vn -1.000000 0.000000 0.000000
vn 0.000000 -1.000000 0.000000
vn 0.000000 -1.000000 0.000000
vn 0.000000 -1.000000 0.000000
vn 0.000000 -1.000000 0.000000
vn 1.000000 0.000000 0.000000
vn 1.000000 0.000000 0.000000
vn 1.000000 0.000000 0.000000
vn 1.000000 0.000000 0.000000
vn 0.000000 1.000000 0.000000
vn 0.000000 1.000000 0.000000
vn 0.000000 1.000000 0.000000
vn 0.000000 1.000000 0.000000
vn 0.000000 -1.000000 0.000000
vn 0.000000 -1.000000 0.000000
vn 0.000000 0.000000 1.000000
vn 0.000000 0.000000 1.000000
vn 0.000000 0.000000 1.000000
vn 0.000000 0.000000 1.000000
vn 0.000000 1.000000 0.000000
vn 0.000000 1.000000 0.000000
vn 0.000000 0.000000 -1.000000
vn 0.000000 0.000000 -1.000000
vn 0.000000 -1.000000 0.000000
vn 0.000000 -1.000000 -0.000000
vn 0.000000 -1.000000 0.000000
vn 0.000000 -1.000000 0.000000
vn -1.000000 0.000000 0.000000
vn -1.000000 0.000000 0.000000
vn -1.000000 0.000000 0.000000
vn -1.000000 0.000000 0.000000
vn 0.000000 1.000000 0.000000
vn 0.000000 1.000000 0.000000
vn 0.000000 1.000000 0.000000
vn 0.000000 1.000000 0.000000
vn 0.000000 1.000000 0.000000
vn 0.000000 1.000000 0.000000
vn 1.000000 0.000000 0.000000
vn 1.000000 0.000000 0.000000
vn 1.000000 0.000000 0.000000
vn 1.000000 0.000000 0.000000
vn 0.000000 -1.000000 -0.000000
vn 0.000000 -1.000000 0.000000
vn -1.000000 0.000000 0.000000
vn -1.000000 0.000000 0.000000
vn -1.000000 0.000000 0.000000
vn -1.000000 0.000000 0.000000
vn 0.000000 0.000000 1.000000
vn 0.000000 0.000000 1.000000
vn 0.000000 0.000000 1.000000
vn 0.000000 0.000000 1.000000
vn 0.000000 0.000000 -1.000000
vn 0.000000 0.000000 -1.000000
vn 0.000000 0.000000 -1.000000
vn 0.000000 0.000000 -1.000000
vn 0.000000 -1.000000 -0.000000
vn 0.000000 -1.000000 -0.000000
vn 0.000000 -1.000000 -0.000000
vn 0.000000 -1.000000 -0.000000
vn 0.000000 1.000000 0.000000
vn 0.000000 1.000000 0.000000
vn 0.000000 1.000000 0.000000
vn 0.000000 1.000000 0.000000
vn -1.000000 0.000000 0.000000
vn -1.000000 0.000000 0.000000
vn -1.000000 0.000000 0.000000
vn -1.000000 0.000000 0.000000
vn 0.000000 0.000000 -1.000000
vn 0.000000 0.000000 -1.000000
vn 0.000000 0.000000 -1.000000
vn 0.000000 0.000000 -1.000000
vn 0.000000 -1.000000 0.000000
vn 0.000000 -1.000000 0.000000
vn 0.000000 0.000000 1.000000
vn 0.000000 0.000000 1.000000
vn 0.000000 1.000000 0.000000
vn 0.000000 1.000000 0.000000
s 1
g building2
usemtl initialShadingGroup
f 1/1/1 2/2/2 4/4/3 3/3/4
s 2
f 3/3/5 4/4/6 36/57/7 33/52/8
s 3
f 5/5/9 6/6/10 8/8/11 7/7/12
s 4
f 34/54/13 35/55/14 2/10/15 1/9/16
s 5
f 2/2/17 35/56/18 36/58/19 4/4/20
s off
f 37/59/21 38/60/22 39/61/23 40/62/24
f 13/23/25 24/39/26 25/40/27 16/26/28
s 4
f 7/7/29 8/8/30 28/45/31 23/38/32
s 5
f 27/44/33 28/46/34 8/11/35 6/12/36
s 2
f 26/42/37 27/43/38 6/6/39 5/5/40
s 4
f 7/13/29 23/37/32 24/39/41 13/23/42
s off
f 10/17/43 9/15/44 15/25/45 14/24/46
s 2
f 25/40/47 26/41/37 5/14/40 16/26/48
s 3
f 5/14/9 7/13/12 13/23/49 16/26/50
s 4
f 18/29/51 17/27/52 10/17/53 14/24/54
s off
f 19/30/55 18/29/56 14/24/57 15/25/58
s 2
f 9/15/59 20/31/60 19/30/61 15/25/62
f 9/16/59 12/21/63 21/33/64 20/32/60
s 5
f 12/22/65 11/20/66 22/36/67 21/34/68
s 4
f 17/28/52 22/35/69 11/19/70 10/18/53
s off
f 30/47/71 29/48/72 31/49/73 32/50/74
s 2
f 20/32/60 21/33/64 27/43/38 26/42/37
s 5
f 21/34/68 22/36/67 28/46/34 27/44/33
s 4
f 23/38/32 28/45/31 22/35/69 17/28/52
s off
f 25/40/75 24/39/76 29/48/77 30/47/78
f 18/29/79 19/30/80 32/50/81 31/49/82
f 23/38/83 17/28/84 31/49/85 29/48/86
f 20/32/87 26/42/88 30/47/89 32/50/90
f 9/15/91 10/17/92 34/53/93 33/51/94
s 4
f 10/18/53 11/19/70 35/55/14 34/54/13
s 5
f 36/58/19 35/56/18 11/20/66 12/22/65
s 2
f 33/52/8 36/57/7 12/21/63 9/16/59
s off
f 33/51/95 34/53/96 38/60/97 37/59/98
s 4
f 34/53/13 1/1/16 39/61/99 38/60/100
s 1
f 1/1/1 3/3/4 40/62/101 39/61/102
s 2
f 3/3/5 33/51/8 37/59/103 40/62/104
