# This file uses centimeters as units for non-parametric coordinates.

mtllib door1.mtl
g default
v -5.096569 -0.005256 1.910048
v -4.993757 -0.005256 1.910048
v -5.096569 1.568570 1.910048
v -4.993757 1.568570 1.910048
v -5.096569 1.568570 0.989130
v -4.993757 1.568570 0.989130
v -5.096569 -0.005256 0.989130
v -4.993757 -0.005256 0.989130
v -5.096569 1.464370 1.910048
v -5.096569 1.464370 0.989130
v -4.993757 1.464370 0.989130
v -4.993757 1.464370 1.910048
v -5.096569 1.568570 1.115729
v -5.096569 1.464370 1.115729
v -5.096569 -0.005256 1.115729
v -4.993757 -0.005256 1.115729
v -4.993757 1.464370 1.115729
v -4.993757 1.568570 1.115729
v -5.096569 1.568570 1.785856
v -5.096569 1.464370 1.785856
v -5.096569 -0.005256 1.785856
v -4.993757 -0.005256 1.785856
v -4.993757 1.464370 1.785856
v -4.993757 1.568570 1.785856
v -5.155038 1.464370 1.785856
v -5.155038 -0.005256 1.785856
v -5.155038 -0.005256 1.910048
v -5.155038 1.464370 1.910048
v -5.155038 1.568570 1.785856
v -5.155038 1.568570 1.910048
v -5.155038 1.464370 1.115729
v -5.155038 1.464370 0.989130
v -5.155038 1.568570 1.115729
v -5.155038 1.568570 0.989130
v -5.155038 -0.005256 0.989130
v -5.155038 -0.005256 1.115729
v -5.096569 1.293616 1.910048
v -5.155038 1.293616 1.910048
v -5.155038 1.293616 1.785856
v -5.096569 1.293616 1.785856
v -5.096569 1.293616 1.115729
v -5.155038 1.293616 1.115729
v -5.155038 1.293616 0.989130
v -5.096569 1.293616 0.989130
v -4.993757 1.293616 0.989130
v -4.993757 1.293616 1.115729
v -4.993757 1.293616 1.785856
v -4.993757 1.293616 1.910048
v -5.096569 1.040914 1.910048
v -5.155038 1.040914 1.910048
v -5.155038 1.040914 1.785856
v -5.096569 1.040914 1.785856
v -5.096569 1.040914 1.115729
v -5.155038 1.040914 1.115729
v -5.155038 1.040914 0.989130
v -5.096569 1.040914 0.989130
v -4.993757 1.040914 0.989130
v -4.993757 1.040914 1.115729
v -4.993757 1.040914 1.785856
v -4.993757 1.040914 1.910048
v -5.096569 -0.005256 1.658456
v -5.096569 1.040914 1.658456
v -5.096569 1.293616 1.658456
v -5.096569 1.464370 1.658456
v -5.155038 1.464370 1.658456
v -5.155038 1.568570 1.658456
v -5.096569 1.568570 1.658456
v -4.993757 1.568570 1.658456
v -4.993757 1.464370 1.658456
v -4.993757 1.293616 1.658456
v -4.993757 1.040914 1.658456
v -4.993757 -0.005256 1.658456
v -5.096569 -0.005256 1.257741
v -5.096569 1.040914 1.257741
v -5.096569 1.293616 1.257741
v -5.096569 1.464370 1.257741
v -5.155038 1.464370 1.257741
v -5.155038 1.568570 1.257741
v -5.096569 1.568570 1.257741
v -4.993757 1.568570 1.257741
v -4.993757 1.464370 1.257741
v -4.993757 1.293616 1.257741
v -4.993757 1.040914 1.257741
v -4.993757 -0.005256 1.257741
v -5.066177 1.040914 1.658456
v -5.066177 1.293616 1.658456
v -5.066177 1.293616 1.257741
v -5.066177 1.040914 1.257741
vt 0.375000 0.000000
vt 0.625000 0.000000
vt 0.375000 0.250000
vt 0.625000 0.250000
vt 0.375000 0.500000
vt 0.625000 0.500000
vt 0.375000 0.750000
vt 0.625000 0.750000
vt 0.375000 1.000000
vt 0.625000 1.000000
vt 0.875000 0.000000
vt 0.875000 0.250000
vt 0.125000 0.000000
vt 0.125000 0.250000
vt 0.375000 0.233448
vt 0.125000 0.233448
vt 0.375000 0.516552
vt 0.625000 0.516552
vt 0.875000 0.233448
vt 0.625000 0.233448
vt 0.159368 0.250000
vt 0.375000 0.465632
vt 0.159368 0.233448
vt 0.159368 0.000000
vt 0.375000 0.784368
vt 0.625000 0.784368
vt 0.840633 0.000000
vt 0.840632 0.233448
vt 0.625000 0.465632
vt 0.840633 0.250000
vt 0.341286 0.250000
vt 0.375000 0.283714
vt 0.341286 0.233448
vt 0.341286 0.000000
vt 0.375000 0.966286
vt 0.625000 0.966286
vt 0.658714 0.000000
vt 0.658714 0.233448
vt 0.625000 0.283714
vt 0.658714 0.250000
vt 0.341286 0.233448
vt 0.341286 0.000000
vt 0.375000 0.000000
vt 0.375000 0.233448
vt 0.375000 0.250000
vt 0.341286 0.250000
vt 0.159368 0.250000
vt 0.125000 0.250000
vt 0.125000 0.233448
vt 0.125000 0.000000
vt 0.159368 0.000000
vt 0.159368 0.233448
vt 0.375000 0.206324
vt 0.375000 0.206324
vt 0.341286 0.206324
vt 0.341286 0.206324
vt 0.159368 0.206324
vt 0.159368 0.206324
vt 0.125000 0.206324
vt 0.125000 0.206324
vt 0.375000 0.543676
vt 0.625000 0.543676
vt 0.875000 0.206324
vt 0.840632 0.206324
vt 0.658714 0.206324
vt 0.625000 0.206324
vt 0.375000 0.166183
vt 0.375000 0.166183
vt 0.341286 0.166183
vt 0.341286 0.166183
vt 0.159368 0.166183
vt 0.159368 0.166183
vt 0.125000 0.166183
vt 0.125000 0.166183
vt 0.375000 0.583817
vt 0.625000 0.583817
vt 0.875000 0.166183
vt 0.840632 0.166183
vt 0.658714 0.166183
vt 0.625000 0.166183
vt 0.306701 0.000000
vt 0.375000 0.931701
vt 0.306701 0.166183
vt 0.306701 0.206324
vt 0.306701 0.233448
vt 0.306701 0.233448
vt 0.306701 0.250000
vt 0.306701 0.250000
vt 0.375000 0.318299
vt 0.625000 0.318299
vt 0.693299 0.250000
vt 0.693299 0.233448
vt 0.693299 0.206324
vt 0.693299 0.166183
vt 0.625000 0.931701
vt 0.693299 0.000000
vt 0.197919 0.000000
vt 0.375000 0.822919
vt 0.197919 0.166183
vt 0.197919 0.206324
vt 0.197919 0.233448
vt 0.197919 0.233448
vt 0.197919 0.250000
vt 0.197919 0.250000
vt 0.375000 0.427081
vt 0.625000 0.427081
vt 0.802081 0.250000
vt 0.802080 0.233448
vt 0.802081 0.206324
vt 0.802081 0.166183
vt 0.625000 0.822919
vt 0.802081 0.000000
vt 0.306701 0.166183
vt 0.306701 0.206324
vt 0.197919 0.206324
vt 0.197919 0.166183
vn 0.000000 0.000000 1.000000
vn 0.000000 0.000000 1.000000
vn 0.000000 0.000000 1.000000
vn 0.000000 0.000000 1.000000
vn 0.000000 1.000000 0.000000
vn 0.000000 1.000000 0.000000
vn 0.000000 1.000000 -0.000000
vn 0.000000 1.000000 -0.000000
vn 0.000000 0.000000 -1.000000
vn 0.000000 0.000000 -1.000000
vn 0.000000 0.000000 -1.000000
vn 0.000000 0.000000 -1.000000
vn 0.000000 -1.000000 0.000000
vn 0.000000 -1.000000 0.000000
vn 0.000000 -1.000000 0.000000
vn 0.000000 -1.000000 0.000000
vn 1.000000 0.000000 0.000000
vn 1.000000 0.000000 0.000000
vn 1.000000 0.000000 0.000000
vn 1.000000 0.000000 0.000000
vn -1.000000 0.000000 0.000000
vn -1.000000 0.000000 0.000000
vn -1.000000 0.000000 0.000000
vn -1.000000 0.000000 0.000000
vn -1.000000 0.000000 0.000000
vn -1.000000 0.000000 0.000000
vn -1.000000 0.000000 0.000000
vn -1.000000 0.000000 0.000000
vn 0.000000 0.000000 -1.000000
vn 0.000000 0.000000 -1.000000
vn 0.000000 0.000000 -1.000000
vn 0.000000 0.000000 -1.000000
vn 1.000000 0.000000 0.000000
vn 1.000000 0.000000 0.000000
vn 1.000000 0.000000 0.000000
vn 1.000000 0.000000 0.000000
vn 0.000000 0.000000 1.000000
vn 0.000000 0.000000 1.000000
vn 0.000000 0.000000 1.000000
vn 0.000000 0.000000 1.000000
vn -1.000000 0.000000 0.000000
vn -1.000000 0.000000 0.000000
vn -1.000000 0.000000 0.000000
vn -1.000000 0.000000 0.000000
vn -1.000000 0.000000 0.000000
vn -1.000000 0.000000 0.000000
vn -1.000000 0.000000 0.000000
vn -1.000000 0.000000 0.000000
vn 0.000000 -1.000000 0.000000
vn 0.000000 -1.000000 0.000000
vn 0.000000 -1.000000 0.000000
vn 0.000000 -1.000000 0.000000
vn 1.000000 0.000000 0.000000
vn 1.000000 0.000000 0.000000
vn 1.000000 0.000000 0.000000
vn 1.000000 0.000000 0.000000
vn 1.000000 0.000000 0.000000
vn 1.000000 0.000000 0.000000
vn 1.000000 0.000000 0.000000
vn 1.000000 0.000000 0.000000
vn 0.000000 1.000000 0.000000
vn 0.000000 1.000000 0.000000
vn 0.000000 1.000000 0.000000
vn 0.000000 1.000000 0.000000
vn -1.000000 0.000000 0.000000
vn -1.000000 0.000000 0.000000
vn -1.000000 0.000000 0.000000
vn -1.000000 0.000000 0.000000
vn -1.000000 0.000000 0.000000
vn -1.000000 0.000000 0.000000
vn 0.000000 -1.000000 0.000000
vn 0.000000 -1.000000 0.000000
vn 1.000000 0.000000 0.000000
vn 1.000000 0.000000 0.000000
vn 1.000000 0.000000 0.000000
vn 1.000000 0.000000 0.000000
vn 0.000000 1.000000 0.000000
vn 0.000000 1.000000 0.000000
vn 0.000000 0.000000 -1.000000
vn 0.000000 0.000000 -1.000000
vn 0.000000 0.000000 -1.000000
vn 0.000000 0.000000 -1.000000
vn 0.000000 -1.000000 0.000000
vn 0.000000 -1.000000 0.000000
vn 0.000000 0.000000 1.000000
vn 0.000000 0.000000 1.000000
vn 0.000000 0.000000 1.000000
vn 0.000000 0.000000 1.000000
vn 0.000000 1.000000 -0.000000
vn 0.000000 1.000000 0.000000
vn 0.000000 1.000000 0.000000
vn 0.000000 1.000000 0.000000
vn 0.000000 0.000000 -1.000000
vn 0.000000 0.000000 -1.000000
vn 0.000000 -1.000000 0.000000
vn 0.000000 -1.000000 0.000000
vn 0.000000 0.000000 1.000000
vn 0.000000 0.000000 1.000000
vn 0.000000 0.000000 1.000000
vn 0.000000 0.000000 1.000000
vn 0.000000 0.000000 -1.000000
vn 0.000000 0.000000 -1.000000
vn 0.000000 -1.000000 0.000000
vn 0.000000 -1.000000 0.000000
vn 0.000000 -1.000000 0.000000
vn 0.000000 -1.000000 0.000000
vn 0.000000 1.000000 0.000000
vn 0.000000 0.000000 1.000000
vn 0.000000 0.000000 1.000000
vn -1.000000 0.000000 0.000000
vn -1.000000 0.000000 0.000000
vn 0.000000 0.000000 -1.000000
vn 0.000000 0.000000 -1.000000
vn 0.000000 0.000000 -1.000000
vn 0.000000 0.000000 -1.000000
vn -1.000000 0.000000 0.000000
vn -1.000000 0.000000 0.000000
vn -1.000000 0.000000 0.000000
vn -1.000000 0.000000 0.000000
vn 0.000000 0.000000 1.000000
vn 0.000000 0.000000 1.000000
vn 0.000000 0.000000 1.000000
vn 0.000000 0.000000 1.000000
vn -1.000000 0.000000 0.000000
vn -1.000000 0.000000 0.000000
vn 0.000000 0.000000 -1.000000
vn 0.000000 0.000000 -1.000000
vn 0.000000 0.000000 -1.000000
vn 1.000000 0.000000 0.000000
vn 1.000000 0.000000 0.000000
vn 1.000000 0.000000 0.000000
vn 1.000000 0.000000 0.000000
vn 1.000000 0.000000 0.000000
vn 0.000000 0.000000 1.000000
vn -1.000000 0.000000 0.000000
vn -1.000000 0.000000 0.000000
vn -1.000000 0.000000 0.000000
vn -1.000000 0.000000 0.000000
vn -1.000000 0.000000 0.000000
vn -1.000000 0.000000 0.000000
vn -1.000000 0.000000 0.000000
vn -1.000000 0.000000 0.000000
vn 0.000000 -1.000000 0.000000
vn 0.000000 -1.000000 0.000000
vn 0.000000 -1.000000 0.000001
vn 0.000000 -1.000000 0.000001
vn -1.000000 0.000000 0.000000
vn -1.000000 0.000000 0.000000
vn 0.000000 1.000000 -0.000000
vn 0.000000 1.000000 -0.000000
vn 0.000000 1.000000 -0.000000
vn 1.000000 0.000000 0.000000
vn 1.000000 0.000000 0.000000
vn 1.000000 0.000000 0.000000
vn 1.000000 0.000000 0.000000
vn 1.000000 0.000000 0.000000
vn 0.000000 -1.000000 0.000000
vn 0.000000 -1.000000 0.000000
vn -1.000000 0.000000 0.000000
vn -1.000000 0.000000 0.000000
vn -1.000000 0.000000 0.000000
vn -1.000000 0.000000 0.000000
vn 0.000000 0.000000 -1.000000
vn 0.000000 0.000000 -1.000000
vn 0.000000 0.000000 -1.000000
vn 0.000000 0.000000 -1.000000
vn 0.000000 -1.000000 0.000000
vn 0.000000 -1.000000 0.000000
vn 0.000000 -1.000000 0.000000
vn 0.000000 -1.000000 0.000000
vn 0.000000 0.000000 1.000000
vn 0.000000 0.000000 1.000000
vn 0.000000 0.000000 1.000000
vn 0.000000 0.000000 1.000000
vn 0.000000 1.000000 -0.000000
vn 0.000000 1.000000 -0.000000
vn 0.000000 1.000000 -0.000000
vn 0.000000 1.000000 -0.000000
s 1
g door1
usemtl initialShadingGroup
f 1/1/1 2/2/2 60/80/3 49/67/4
s 2
f 3/3/5 4/4/6 24/39/7 19/32/8
s 3
f 56/75/9 57/76/10 8/8/11 7/7/12
s 4
f 21/35/13 22/36/14 2/10/15 1/9/16
s 5
f 2/2/17 22/37/18 59/79/19 60/80/20
s 6
f 50/68/21 51/69/22 26/42/23 27/43/24
f 29/46/25 25/41/26 28/44/27 30/45/28
s 3
f 5/5/29 6/6/30 11/18/31 10/17/32
s 5
f 12/20/33 23/38/34 24/40/35 4/4/36
s 1
f 9/15/37 12/20/38 4/4/39 3/3/40
s 6
f 32/49/41 31/52/42 33/47/43 34/48/44
f 35/50/45 36/51/46 54/72/47 55/73/48
s 4
f 7/7/49 8/8/50 16/26/51 15/25/52
s 5
f 57/77/53 58/78/54 16/27/55 8/11/56
f 18/30/57 17/28/58 11/19/59 6/12/60
s 2
f 13/22/61 18/29/62 6/6/63 5/5/64
s 6
f 33/47/43 31/52/42 77/102/65 78/103/66
s 17
f 73/97/67 74/99/68 53/71/69 15/24/70
s 4
f 15/25/52 16/26/51 84/111/71 73/98/72
s 5
f 58/78/54 83/110/73 84/112/74 16/27/55
f 80/107/75 81/108/76 17/28/58 18/30/57
s 2
f 79/105/77 80/106/78 18/29/62 13/22/61
s 18
f 51/69/79 52/70/80 21/34/81 26/42/82
s 4
f 21/34/13 1/1/16 27/43/83 26/42/84
s 1
f 1/1/1 49/67/4 50/68/85 27/43/86
f 9/15/37 3/3/40 30/45/87 28/44/88
s 2
f 3/3/5 19/31/8 29/46/89 30/45/90
f 13/21/61 5/14/64 34/48/91 33/47/92
s 3
f 5/14/29 10/16/32 32/49/93 34/48/94
s 4
f 7/13/49 15/24/52 36/51/95 35/50/96
s 19
f 15/24/97 53/71/98 54/72/99 36/51/100
s 3
f 55/73/101 56/74/9 7/13/12 35/50/102
s 20
f 14/23/103 76/101/104 77/102/105 31/52/106
s 2
f 78/103/107 79/104/77 13/21/61 33/47/92
s 1
f 38/54/108 37/53/109 9/15/37 28/44/88
s 6
f 25/41/26 39/55/110 38/54/111 28/44/27
s 18
f 20/33/112 40/56/113 39/55/114 25/41/115
s 17
f 14/23/116 41/57/117 75/100/118 76/101/119
s 19
f 42/58/120 41/57/121 14/23/122 31/52/123
s 6
f 43/59/124 42/58/125 31/52/42 32/49/41
s 3
f 10/16/32 44/60/126 43/59/127 32/49/93
f 10/17/32 11/18/31 45/62/128 44/61/126
s 5
f 17/28/58 46/64/129 45/63/130 11/19/59
f 81/108/76 82/109/131 46/64/129 17/28/58
f 48/66/132 47/65/133 23/38/34 12/20/33
s 1
f 37/53/109 48/66/134 12/20/38 9/15/37
f 50/68/85 49/67/4 37/53/109 38/54/108
s 6
f 38/54/111 39/55/110 51/69/22 50/68/21
s 18
f 39/55/114 40/56/113 52/70/80 51/69/79
s 17
f 74/99/68 75/100/118 41/57/117 53/71/69
s 19
f 54/72/99 53/71/98 41/57/121 42/58/120
s 6
f 55/73/48 54/72/47 42/58/125 43/59/124
s 3
f 43/59/127 44/60/126 56/74/9 55/73/101
f 44/61/126 45/62/128 57/76/10 56/75/9
s 5
f 45/63/130 46/64/129 58/78/54 57/77/53
f 46/64/129 82/109/131 83/110/73 58/78/54
f 60/80/20 59/79/19 47/65/133 48/66/132
s 1
f 49/67/4 60/80/3 48/66/134 37/53/109
s 17
f 52/70/135 62/83/136 61/81/137 21/34/138
f 40/56/139 63/84/140 62/83/136 52/70/135
f 64/85/141 63/84/140 40/56/139 20/33/142
s 20
f 65/86/143 64/85/144 20/33/145 25/41/146
s 6
f 66/87/147 65/86/148 25/41/26 29/46/25
s 2
f 19/31/8 67/88/149 66/87/150 29/46/89
f 19/32/8 24/39/7 68/90/151 67/89/149
s 5
f 24/40/35 23/38/34 69/92/152 68/91/153
f 23/38/34 47/65/133 70/93/154 69/92/152
f 71/94/155 70/93/154 47/65/133 59/79/19
f 72/96/156 71/94/155 59/79/19 22/37/18
s 4
f 61/82/157 72/95/158 22/36/14 21/35/13
s 17
f 61/81/137 62/83/136 74/99/68 73/97/67
s off
f 85/113/159 86/114/160 87/115/161 88/116/162
s 17
f 76/101/119 75/100/118 63/84/140 64/85/141
s 20
f 77/102/105 76/101/104 64/85/144 65/86/143
s 6
f 78/103/66 77/102/65 65/86/148 66/87/147
s 2
f 66/87/150 67/88/149 79/104/77 78/103/107
f 67/89/149 68/90/151 80/106/78 79/105/77
s 5
f 68/91/153 69/92/152 81/108/76 80/107/75
f 69/92/152 70/93/154 82/109/131 81/108/76
f 83/110/73 82/109/131 70/93/154 71/94/155
f 84/112/74 83/110/73 71/94/155 72/96/156
s 4
f 73/98/72 84/111/71 72/95/158 61/82/157
s off
f 62/83/163 63/84/164 86/114/165 85/113/166
f 63/84/167 75/100/168 87/115/169 86/114/170
f 75/100/171 74/99/172 88/116/173 87/115/174
f 74/99/175 62/83/176 85/113/177 88/116/178
