# This file uses centimeters as units for non-parametric coordinates.

mtllib door2.mtl
g default
v -5.119749 -0.008786 0.886921
v -5.019665 -0.008786 0.886921
v -5.119749 1.551827 0.886921
v -5.019665 1.551827 0.886921
v -5.119749 1.551827 -1.051684
v -5.019665 1.551827 -1.051684
v -5.119749 -0.008786 -1.051684
v -5.019665 -0.008786 -1.051684
v -5.119749 1.551827 -0.073689
v -5.119749 -0.008786 -0.073689
v -5.019665 -0.008786 -0.073689
v -5.019665 1.551827 -0.073689
v -5.119749 1.485891 0.886921
v -5.119749 1.485891 -0.073689
v -5.119749 1.485891 -1.051684
v -5.019665 1.485891 -1.051684
v -5.019665 1.485891 -0.073689
v -5.019665 1.485891 0.886921
v -5.119749 -0.008786 -0.981643
v -5.119749 1.485891 -0.981643
v -5.119749 1.551827 -0.981643
v -5.019665 1.551827 -0.981643
v -5.019665 1.485891 -0.981643
v -5.019665 -0.008786 -0.981643
v -5.119749 1.551827 0.821403
v -5.119749 1.485891 0.821403
v -5.119749 -0.008786 0.821403
v -5.019665 -0.008786 0.821403
v -5.019665 1.485891 0.821403
v -5.019665 1.551827 0.821403
v -5.119749 1.551827 -0.085441
v -5.119749 1.485891 -0.085441
v -5.119749 -0.008786 -0.085441
v -5.019665 -0.008786 -0.085441
v -5.019665 1.485891 -0.085441
v -5.019665 1.551827 -0.085441
v -5.061148 1.485891 -0.085441
v -5.061148 -0.008786 -0.085441
v -5.061148 -0.008786 -0.073689
v -5.061148 1.485891 -0.073689
v -5.168728 1.485891 0.886921
v -5.168728 1.485891 0.821403
v -5.168728 -0.008786 0.821403
v -5.168728 -0.008786 0.886921
v -5.168728 -0.008786 -1.051684
v -5.168728 -0.008786 -0.981643
v -5.168728 1.485891 -0.981643
v -5.168728 1.485891 -1.051684
v -5.168728 1.551827 0.821403
v -5.168728 1.551827 0.886921
v -5.168728 1.551827 -0.981643
v -5.168728 1.551827 -1.051684
v -5.168728 1.551827 -0.085441
v -5.168728 1.485891 -0.085441
v -5.168728 1.485891 -0.073689
v -5.168728 1.551827 -0.073689
v -5.119749 1.304913 0.886921
v -5.168728 1.304913 0.886921
v -5.168728 1.304913 0.821403
v -5.119749 1.304913 0.821403
v -5.119749 1.304913 -0.073689
v -5.061148 1.304913 -0.073689
v -5.061148 1.304913 -0.085441
v -5.119749 1.304913 -0.085441
v -5.119749 1.304913 -0.981643
v -5.168728 1.304913 -0.981643
v -5.168728 1.304913 -1.051684
v -5.119749 1.304913 -1.051684
v -5.019665 1.304913 -1.051684
v -5.019665 1.304913 -0.981643
v -5.019665 1.304913 -0.085441
v -5.019665 1.304913 -0.073689
v -5.019665 1.304913 0.821403
v -5.019665 1.304913 0.886921
v -5.119749 1.003155 0.886921
v -5.168728 1.003155 0.886921
v -5.168728 1.003155 0.821403
v -5.119749 1.003155 0.821403
v -5.119749 1.003155 -0.073689
v -5.061148 1.003155 -0.073689
v -5.061148 1.003155 -0.085441
v -5.119749 1.003155 -0.085441
v -5.119749 1.003155 -0.981643
v -5.168728 1.003155 -0.981643
v -5.168728 1.003155 -1.051684
v -5.119749 1.003155 -1.051684
v -5.019665 1.003155 -1.051684
v -5.019665 1.003155 -0.981643
v -5.019665 1.003155 -0.085441
v -5.019665 1.003155 -0.073689
v -5.019665 1.003155 0.821403
v -5.019665 1.003155 0.886921
v -5.119749 -0.008786 0.159658
v -5.119749 1.003155 0.159658
v -5.119749 1.304913 0.159658
v -5.119749 1.485891 0.159658
v -5.168728 1.485891 0.159658
v -5.168728 1.551827 0.159658
v -5.119749 1.551827 0.159658
v -5.019665 1.551827 0.159658
v -5.019665 1.485891 0.159658
v -5.019665 1.304913 0.159658
v -5.019665 1.003155 0.159658
v -5.019665 -0.008786 0.159658
v -5.119749 1.551827 0.662553
v -5.168728 1.551827 0.662553
v -5.168728 1.485891 0.662553
v -5.119749 1.485891 0.662553
v -5.119749 1.304913 0.662553
v -5.119749 1.003155 0.662553
v -5.119749 -0.008786 0.662553
v -5.019665 -0.008786 0.662553
v -5.019665 1.003155 0.662553
v -5.019665 1.304913 0.662553
v -5.019665 1.485891 0.662553
v -5.019665 1.551827 0.662553
v -5.119749 -0.008786 -0.313037
v -5.119749 1.003155 -0.313037
v -5.119749 1.304913 -0.313037
v -5.119749 1.485891 -0.313037
v -5.168728 1.485891 -0.313037
v -5.168728 1.551827 -0.313037
v -5.119749 1.551827 -0.313037
v -5.019665 1.551827 -0.313037
v -5.019665 1.485891 -0.313037
v -5.019665 1.304913 -0.313037
v -5.019665 1.003155 -0.313037
v -5.019665 -0.008786 -0.313037
v -5.119749 -0.008786 -0.802780
v -5.119749 1.003155 -0.802780
v -5.119749 1.304913 -0.802780
v -5.119749 1.485891 -0.802780
v -5.168728 1.485891 -0.802780
v -5.168728 1.551827 -0.802780
v -5.119749 1.551827 -0.802780
v -5.019665 1.551827 -0.802780
v -5.019665 1.485891 -0.802780
v -5.019665 1.304913 -0.802780
v -5.019665 1.003155 -0.802780
v -5.019665 -0.008786 -0.802780
v -5.098283 1.003155 0.159658
v -5.098283 1.304913 0.159658
v -5.098283 1.003155 0.662553
v -5.098283 1.304913 0.662553
v -5.098283 1.003155 -0.313037
v -5.098283 1.304913 -0.313037
v -5.098283 1.304913 -0.802780
v -5.098283 1.003155 -0.802780
vt 0.375000 0.000000
vt 0.625000 0.000000
vt 0.375000 0.250000
vt 0.625000 0.250000
vt 0.375000 0.500000
vt 0.625000 0.500000
vt 0.375000 0.750000
vt 0.625000 0.750000
vt 0.375000 1.000000
vt 0.625000 1.000000
vt 0.875000 0.000000
vt 0.875000 0.250000
vt 0.125000 0.000000
vt 0.125000 0.250000
vt 0.256022 0.250000
vt 0.375000 0.368978
vt 0.256022 0.000000
vt 0.375000 0.881022
vt 0.625000 0.881022
vt 0.743978 0.000000
vt 0.625000 0.368978
vt 0.743978 0.250000
vt 0.375000 0.239438
vt 0.256022 0.239438
vt 0.125000 0.239438
vt 0.375000 0.510562
vt 0.625000 0.510562
vt 0.875000 0.239438
vt 0.743978 0.239438
vt 0.625000 0.239438
vt 0.134032 0.000000
vt 0.375000 0.759032
vt 0.134032 0.239438
vt 0.134032 0.250000
vt 0.375000 0.490968
vt 0.625000 0.490968
vt 0.865968 0.250000
vt 0.865968 0.239438
vt 0.625000 0.759032
vt 0.865968 0.000000
vt 0.366551 0.250000
vt 0.375000 0.258449
vt 0.366551 0.239438
vt 0.366551 0.000000
vt 0.375000 0.991551
vt 0.625000 0.991551
vt 0.633449 0.000000
vt 0.633449 0.239438
vt 0.625000 0.258449
vt 0.633449 0.250000
vt 0.254506 0.250000
vt 0.375000 0.370494
vt 0.254506 0.239438
vt 0.254506 0.000000
vt 0.375000 0.879506
vt 0.625000 0.879506
vt 0.745494 0.000000
vt 0.745494 0.239438
vt 0.625000 0.370494
vt 0.745494 0.250000
vt 0.254506 0.239438
vt 0.254506 0.000000
vt 0.256022 0.000000
vt 0.256022 0.239438
vt 0.366551 0.239438
vt 0.366551 0.000000
vt 0.375000 0.000000
vt 0.375000 0.239438
vt 0.125000 0.000000
vt 0.134032 0.000000
vt 0.134032 0.239438
vt 0.125000 0.239438
vt 0.375000 0.250000
vt 0.366551 0.250000
vt 0.134032 0.250000
vt 0.125000 0.250000
vt 0.254506 0.239438
vt 0.256022 0.239438
vt 0.256022 0.250000
vt 0.254506 0.250000
vt 0.375000 0.210446
vt 0.375000 0.210446
vt 0.366551 0.210446
vt 0.366551 0.210446
vt 0.256022 0.210446
vt 0.256022 0.210446
vt 0.254506 0.210446
vt 0.254506 0.210446
vt 0.134032 0.210446
vt 0.134032 0.210446
vt 0.125000 0.210446
vt 0.125000 0.210446
vt 0.375000 0.539554
vt 0.625000 0.539554
vt 0.875000 0.210446
vt 0.865968 0.210446
vt 0.745494 0.210446
vt 0.743978 0.210446
vt 0.633449 0.210446
vt 0.625000 0.210446
vt 0.375000 0.162106
vt 0.375000 0.162106
vt 0.366551 0.162106
vt 0.366551 0.162106
vt 0.256022 0.162106
vt 0.256022 0.162106
vt 0.254506 0.162106
vt 0.254506 0.162106
vt 0.134032 0.162106
vt 0.134032 0.162106
vt 0.125000 0.162106
vt 0.125000 0.162106
vt 0.375000 0.587894
vt 0.625000 0.587894
vt 0.875000 0.162106
vt 0.865968 0.162106
vt 0.745494 0.162106
vt 0.743978 0.162106
vt 0.633449 0.162106
vt 0.625000 0.162106
vt 0.281671 0.000000
vt 0.375000 0.906671
vt 0.281671 0.162106
vt 0.281671 0.210446
vt 0.281671 0.239438
vt 0.281671 0.239438
vt 0.281671 0.250000
vt 0.281671 0.250000
vt 0.375000 0.343329
vt 0.625000 0.343329
vt 0.718329 0.250000
vt 0.718329 0.239438
vt 0.718329 0.210446
vt 0.718329 0.162106
vt 0.625000 0.906671
vt 0.718329 0.000000
vt 0.346066 0.250000
vt 0.375000 0.278934
vt 0.346066 0.250000
vt 0.346066 0.239438
vt 0.346066 0.239438
vt 0.346066 0.210446
vt 0.346066 0.162106
vt 0.346066 0.000000
vt 0.375000 0.971066
vt 0.625000 0.971066
vt 0.653934 0.000000
vt 0.653934 0.162106
vt 0.653934 0.210446
vt 0.653934 0.239438
vt 0.625000 0.278934
vt 0.653934 0.250000
vt 0.231773 0.000000
vt 0.375000 0.856773
vt 0.231773 0.162106
vt 0.231773 0.210446
vt 0.231773 0.239438
vt 0.231773 0.239438
vt 0.231773 0.250000
vt 0.231773 0.250000
vt 0.375000 0.393227
vt 0.625000 0.393227
vt 0.768227 0.250000
vt 0.768227 0.239438
vt 0.768227 0.210446
vt 0.768227 0.162106
vt 0.625000 0.856773
vt 0.768227 0.000000
vt 0.157098 0.000000
vt 0.375000 0.782098
vt 0.157098 0.162106
vt 0.157098 0.210446
vt 0.157098 0.239438
vt 0.157098 0.239438
vt 0.157098 0.250000
vt 0.157098 0.250000
vt 0.375000 0.467902
vt 0.625000 0.467902
vt 0.842902 0.250000
vt 0.842902 0.239438
vt 0.842902 0.210446
vt 0.842902 0.162106
vt 0.625000 0.782098
vt 0.842902 0.000000
vt 0.281671 0.210446
vt 0.281671 0.162106
vt 0.346066 0.162106
vt 0.346066 0.210446
vt 0.231773 0.162106
vt 0.231773 0.210446
vt 0.157098 0.210446
vt 0.157098 0.162106
vn 0.000000 0.000000 1.000000
vn 0.000000 0.000000 1.000000
vn 0.000000 0.000000 1.000000
vn 0.000000 0.000000 1.000000
vn 0.000000 1.000000 0.000000
vn 0.000000 1.000000 0.000000
vn 0.000000 1.000000 0.000000
vn 0.000000 1.000000 0.000000
vn 0.000000 0.000000 -1.000000
vn 0.000000 0.000000 -1.000000
vn 0.000000 0.000000 -1.000000
vn 0.000000 0.000000 -1.000000
vn 0.000000 -1.000000 0.000000
vn 0.000000 -1.000000 0.000000
vn 0.000000 -1.000000 0.000000
vn 0.000000 -1.000000 0.000000
vn 1.000000 0.000000 0.000000
vn 1.000000 0.000000 0.000000
vn 1.000000 0.000000 0.000000
vn 1.000000 0.000000 0.000000
vn -1.000000 0.000000 0.000000
vn -1.000000 0.000000 0.000000
vn -1.000000 0.000000 0.000000
vn -1.000000 0.000000 0.000000
vn -1.000000 0.000000 0.000000
vn -1.000000 0.000000 0.000000
vn -1.000000 0.000000 0.000000
vn -1.000000 0.000000 0.000000
vn 0.000000 -1.000000 0.000000
vn 0.000000 -1.000000 0.000000
vn 0.000000 -1.000000 0.000000
vn 0.000000 -1.000000 0.000000
vn 1.000000 0.000000 0.000000
vn 1.000000 0.000000 0.000000
vn 1.000000 0.000000 0.000000
vn 1.000000 0.000000 0.000000
vn 0.000000 1.000000 0.000000
vn 0.000000 1.000000 0.000000
vn 0.000000 1.000000 0.000000
vn 0.000000 1.000000 0.000000
vn -1.000000 0.000000 0.000000
vn -1.000000 0.000000 0.000000
vn -1.000000 0.000000 0.000000
vn -1.000000 0.000000 0.000000
vn -1.000000 0.000000 0.000000
vn -1.000000 0.000000 0.000000
vn -1.000000 0.000000 0.000000
vn -1.000000 0.000000 0.000000
vn 0.000000 0.000000 -1.000000
vn 0.000000 0.000000 -1.000000
vn 0.000000 0.000000 -1.000000
vn 0.000000 0.000000 -1.000000
vn 1.000000 0.000000 0.000000
vn 1.000000 0.000000 0.000000
vn 1.000000 0.000000 0.000000
vn 1.000000 0.000000 0.000000
vn 1.000000 0.000000 0.000000
vn 1.000000 0.000000 0.000000
vn 1.000000 0.000000 0.000000
vn 1.000000 0.000000 0.000000
vn 0.000000 0.000000 1.000000
vn 0.000000 0.000000 1.000000
vn 0.000000 0.000000 1.000000
vn 0.000000 0.000000 1.000000
vn -1.000000 -0.000000 0.000000
vn -1.000000 -0.000000 0.000000
vn -1.000000 -0.000000 0.000000
vn -1.000000 -0.000000 0.000000
vn -1.000000 0.000000 0.000000
vn -1.000000 0.000000 0.000000
vn -1.000000 0.000000 0.000000
vn -1.000000 0.000000 0.000000
vn 0.000000 1.000000 0.000000
vn 0.000000 1.000000 0.000000
vn 0.000000 1.000000 0.000000
vn 0.000000 1.000000 0.000000
vn 1.000000 0.000000 0.000000
vn 1.000000 0.000000 0.000000
vn 1.000000 0.000000 0.000000
vn 1.000000 0.000000 0.000000
vn 1.000000 0.000000 0.000000
vn 1.000000 0.000000 0.000000
vn 1.000000 0.000000 0.000000
vn 1.000000 0.000000 0.000000
vn 0.000000 -1.000000 0.000000
vn 0.000000 -1.000000 0.000000
vn 0.000000 -1.000000 0.000000
vn 0.000000 -1.000000 0.000000
vn -1.000000 0.000000 0.000000
vn -1.000000 0.000000 0.000000
vn -1.000000 0.000000 0.000000
vn -1.000000 0.000000 0.000000
vn -1.000000 0.000000 0.000000
vn -1.000000 0.000000 0.000000
vn 0.000000 -1.000000 0.000000
vn 0.000000 -1.000000 0.000000
vn 1.000000 0.000000 0.000000
vn 1.000000 0.000000 0.000000
vn 1.000000 0.000000 0.000000
vn 1.000000 0.000000 0.000000
vn 0.000000 1.000000 0.000000
vn 0.000000 1.000000 0.000000
vn -1.000000 0.000000 0.000000
vn -1.000000 0.000000 0.000000
vn -1.000000 0.000000 0.000000
vn -1.000000 0.000000 0.000000
vn -1.000000 0.000000 0.000000
vn -1.000000 0.000000 0.000000
vn 0.000000 -1.000000 0.000000
vn 0.000000 -1.000000 0.000000
vn 1.000000 0.000000 0.000000
vn 1.000000 0.000000 0.000000
vn 1.000000 0.000000 0.000000
vn 1.000000 0.000000 0.000000
vn 0.000000 1.000000 0.000000
vn 0.000000 1.000000 0.000000
vn 0.000000 -0.000000 1.000000
vn 0.000000 -0.000000 1.000000
vn 0.000000 -0.000000 1.000000
vn 0.000000 -0.000000 1.000000
vn 0.000000 1.000000 0.000000
vn 0.000000 1.000000 0.000000
vn 0.000000 1.000000 0.000000
vn 0.000000 1.000000 0.000000
vn 0.000000 0.000000 -1.000000
vn 0.000000 0.000000 -1.000000
vn 0.000000 0.000000 -1.000000
vn 0.000000 0.000000 -1.000000
vn 0.000000 -1.000000 0.000000
vn 0.000000 -1.000000 0.000000
vn 0.000000 -1.000000 0.000000
vn 0.000000 -1.000000 0.000000
vn 0.000000 -0.000000 -1.000000
vn 0.000000 -0.000000 -1.000000
vn 0.000000 -0.000000 -1.000000
vn 0.000000 -0.000000 -1.000000
vn 0.000000 -1.000000 0.000000
vn 0.000000 -1.000000 0.000000
vn 0.000000 0.000000 1.000000
vn 0.000000 0.000000 1.000000
vn 0.000000 -1.000000 0.000000
vn 0.000000 -1.000000 0.000000
vn 0.000000 0.000000 1.000000
vn 0.000000 0.000000 1.000000
vn 0.000000 0.000000 1.000000
vn 0.000000 0.000000 1.000000
vn 0.000000 0.000000 -1.000000
vn 0.000000 0.000000 -1.000000
vn 0.000000 0.000000 1.000000
vn 0.000000 0.000000 1.000000
vn 0.000000 1.000000 0.000000
vn 0.000000 1.000000 0.000000
vn 0.000000 1.000000 0.000000
vn 0.000000 1.000000 0.000000
vn 0.000000 0.000000 -1.000000
vn 0.000000 0.000000 -1.000000
vn 0.000000 -1.000000 0.000000
vn 0.000000 -1.000000 0.000000
vn 0.000000 1.000000 0.000000
vn 0.000000 1.000000 0.000000
vn 0.000000 -1.000000 0.000000
vn 0.000000 -1.000000 0.000000
vn 0.000000 1.000000 0.000000
vn 0.000000 -1.000000 0.000000
vn 0.000000 -1.000000 0.000000
vn 0.000000 -1.000000 0.000000
vn 0.000000 -1.000000 0.000000
vn 0.000000 1.000000 0.000000
vn 0.000000 0.000000 1.000000
vn 0.000000 0.000000 1.000000
vn -1.000000 0.000000 0.000000
vn -1.000000 0.000000 0.000000
vn 0.000000 0.000000 -1.000000
vn 0.000000 0.000000 -1.000000
vn 0.000000 0.000000 -1.000000
vn 0.000000 0.000000 -1.000000
vn -1.000000 0.000000 0.000000
vn -1.000000 0.000000 0.000000
vn -1.000000 0.000000 0.000000
vn -1.000000 0.000000 0.000000
vn 0.000000 0.000000 -1.000000
vn 0.000000 0.000000 -1.000000
vn 0.000000 0.000000 -1.000000
vn 0.000000 0.000000 -1.000000
vn -1.000000 0.000000 0.000000
vn -1.000000 0.000000 0.000000
vn -1.000000 0.000000 0.000000
vn -1.000000 0.000000 0.000000
vn 0.000000 -0.000000 1.000000
vn 0.000000 -0.000000 1.000000
vn 0.000000 -0.000000 1.000000
vn 0.000000 -0.000000 1.000000
vn -1.000000 0.000000 0.000000
vn -1.000000 0.000000 0.000000
vn -1.000000 0.000000 0.000000
vn -1.000000 0.000000 0.000000
vn 0.000000 0.000000 1.000000
vn 0.000000 0.000000 1.000000
vn 0.000000 0.000000 1.000000
vn 0.000000 0.000000 1.000000
vn -1.000000 0.000000 0.000000
vn -1.000000 0.000000 0.000000
vn 0.000000 0.000000 -1.000000
vn 0.000000 0.000000 -1.000000
vn 0.000000 0.000000 -1.000000
vn 1.000000 0.000000 0.000000
vn 1.000000 0.000000 0.000000
vn 1.000000 0.000000 0.000000
vn 1.000000 0.000000 0.000000
vn 1.000000 0.000000 0.000000
vn 1.000000 0.000000 0.000000
vn 1.000000 0.000000 0.000000
vn 1.000000 0.000000 0.000000
vn 0.000000 0.000000 1.000000
vn -1.000000 0.000000 0.000000
vn -1.000000 0.000000 0.000000
vn -1.000000 0.000000 0.000000
vn -1.000000 0.000000 0.000000
vn -1.000000 0.000000 0.000000
vn -1.000000 0.000000 0.000000
vn -1.000000 0.000000 0.000000
vn -1.000000 0.000000 0.000000
vn 0.000000 -1.000000 -0.000000
vn 0.000000 -1.000000 -0.000000
vn 0.000000 -1.000000 -0.000001
vn 0.000000 -1.000000 -0.000001
vn -1.000000 0.000000 0.000000
vn -1.000000 0.000000 0.000000
vn 0.000000 1.000000 0.000000
vn 0.000000 1.000000 0.000000
vn 0.000000 1.000000 0.000000
vn 1.000000 0.000000 0.000000
vn 1.000000 0.000000 0.000000
vn 1.000000 0.000000 0.000000
vn 1.000000 0.000000 0.000000
vn 1.000000 0.000000 0.000000
vn 0.000000 -1.000000 0.000000
vn 0.000000 -1.000000 0.000000
vn -1.000000 0.000000 0.000000
vn -1.000000 0.000000 0.000000
vn -1.000000 0.000000 0.000000
vn -1.000000 0.000000 0.000000
vn -1.000000 0.000000 0.000000
vn -1.000000 0.000000 0.000000
vn -1.000000 0.000000 0.000000
vn -1.000000 0.000000 0.000000
vn -1.000000 0.000000 0.000000
vn -1.000000 0.000000 0.000000
vn -1.000000 0.000000 0.000000
vn -1.000000 0.000000 0.000000
vn 0.000000 -1.000000 0.000000
vn 0.000000 -1.000000 0.000000
vn -1.000000 0.000000 0.000000
vn -1.000000 0.000000 0.000000
vn 0.000000 1.000000 0.000000
vn 0.000000 1.000000 0.000000
vn 0.000000 1.000000 0.000000
vn 1.000000 0.000000 0.000000
vn 1.000000 0.000000 0.000000
vn 1.000000 0.000000 0.000000
vn 1.000000 0.000000 0.000000
vn 1.000000 0.000000 0.000000
vn 0.000000 -1.000000 0.000000
vn 0.000000 -1.000000 0.000000
vn -1.000000 0.000000 0.000000
vn -1.000000 0.000000 0.000000
vn -1.000000 0.000000 0.000000
vn -1.000000 0.000000 0.000000
vn 0.000000 0.000000 1.000000
vn 0.000000 0.000000 1.000000
vn 0.000000 0.000000 1.000000
vn 0.000000 0.000000 1.000000
vn 0.000000 1.000000 0.000000
vn 0.000000 1.000000 0.000000
vn 0.000000 1.000000 0.000000
vn 0.000000 1.000000 0.000000
vn 0.000000 -0.000000 -1.000000
vn 0.000000 -0.000000 -1.000000
vn 0.000000 -0.000000 -1.000000
vn 0.000000 -0.000000 -1.000000
vn 0.000000 -1.000000 0.000000
vn 0.000000 -1.000000 0.000000
vn 0.000000 -1.000000 0.000000
vn 0.000000 -1.000000 0.000000
vn 0.000000 0.000000 -1.000000
vn 0.000000 0.000000 -1.000000
vn 0.000000 0.000000 -1.000000
vn 0.000000 0.000000 -1.000000
vn 0.000000 -1.000000 0.000000
vn 0.000000 -1.000000 0.000000
vn 0.000000 -1.000000 0.000000
vn 0.000000 -1.000000 0.000000
vn 0.000000 0.000000 1.000000
vn 0.000000 0.000000 1.000000
vn 0.000000 0.000000 1.000000
vn 0.000000 0.000000 1.000000
vn 0.000000 1.000000 0.000000
vn 0.000000 1.000000 0.000000
vn 0.000000 1.000000 0.000000
vn 0.000000 1.000000 0.000000
s 1
g door2
usemtl initialShadingGroup
f 1/1/1 2/2/2 92/120/3 75/101/4
s 2
f 3/3/5 4/4/6 30/49/7 25/42/8
s 3
f 86/113/9 87/114/10 8/8/11 7/7/12
s 4
f 27/45/13 28/46/14 2/10/15 1/9/16
s 5
f 2/2/17 28/47/18 91/119/19 92/120/20
s 6
f 76/102/21 77/103/22 43/66/23 44/67/24
f 45/69/25 46/70/26 84/110/27 85/111/28
s 4
f 7/7/29 8/8/30 24/39/31 19/32/32
s 5
f 87/115/33 88/116/34 24/40/35 8/11/36
s 2
f 21/35/37 22/36/38 6/6/39 5/5/40
s 6
f 49/74/41 42/65/42 41/68/43 50/73/44
f 48/72/45 47/71/46 51/75/47 52/76/48
s 3
f 5/5/49 6/6/50 16/27/51 15/26/52
s 5
f 22/37/53 23/38/54 16/28/55 6/12/56
f 18/30/57 29/48/58 30/50/59 4/4/60
s 1
f 13/23/61 18/30/62 4/4/63 3/3/64
s 17
f 80/106/65 81/107/66 38/62/67 39/63/68
s 6
f 53/80/69 54/77/70 55/78/71 56/79/72
s 2
f 9/16/73 12/21/74 36/59/75 31/52/76
s 5
f 12/22/77 17/29/78 35/58/79 36/60/80
f 34/57/81 89/117/82 90/118/83 11/20/84
s 4
f 33/55/85 34/56/86 11/19/87 10/18/88
s 6
f 56/79/72 55/78/71 97/126/89 98/127/90
s 23
f 93/121/91 94/123/92 79/105/93 10/17/94
s 4
f 10/18/88 11/19/87 104/135/95 93/122/96
s 5
f 90/118/83 103/134/97 104/136/98 11/20/84
f 100/131/99 101/132/100 17/29/78 12/22/77
s 2
f 99/129/101 100/130/102 12/21/74 9/16/73
s 6
f 51/75/47 47/71/46 133/174/103 134/175/104
s 24
f 129/169/105 130/171/106 83/109/107 19/31/108
s 4
f 19/32/32 24/39/31 140/183/109 129/170/110
s 5
f 24/40/35 88/116/34 139/182/111 140/184/112
f 136/179/113 137/180/114 23/38/54 22/37/53
s 2
f 135/177/115 136/178/116 22/36/38 21/35/37
s 25
f 81/107/117 82/108/118 33/54/119 38/62/120
s off
f 33/54/121 10/17/122 39/63/123 38/62/124
s 26
f 10/17/125 79/105/126 80/106/127 39/63/128
s 27
f 14/24/129 32/53/130 37/61/131 40/64/132
s 28
f 77/103/133 78/104/134 27/44/135 43/66/136
s 4
f 27/44/13 1/1/16 44/67/137 43/66/138
s 1
f 1/1/1 75/101/4 76/102/139 44/67/140
s 4
f 7/13/29 19/31/32 46/70/141 45/69/142
s 29
f 19/31/143 83/109/144 84/110/145 46/70/146
s 3
f 85/111/147 86/112/9 7/13/12 45/69/148
s 1
f 13/23/61 3/3/64 50/73/149 41/68/150
s 2
f 3/3/5 25/41/8 49/74/151 50/73/152
f 21/34/37 5/14/40 52/76/153 51/75/154
s 3
f 5/14/49 15/25/52 48/72/155 52/76/156
s 27
f 32/53/130 14/24/129 55/78/157 54/77/158
s 2
f 9/15/73 31/51/76 53/80/159 56/79/160
s 27
f 14/24/129 96/125/161 97/126/162 55/78/157
s 2
f 98/127/163 99/128/101 9/15/73 56/79/160
s 27
f 20/33/164 132/173/165 133/174/166 47/71/167
s 2
f 134/175/168 135/176/115 21/34/37 51/75/154
s 1
f 58/82/169 57/81/170 13/23/61 41/68/150
s 6
f 41/68/43 42/65/42 59/83/171 58/82/172
s 28
f 26/43/173 60/84/174 59/83/175 42/65/176
s 23
f 61/85/177 95/124/178 96/125/179 14/24/180
s 26
f 62/86/181 61/85/182 14/24/183 40/64/184
s 17
f 37/61/185 63/87/186 62/86/187 40/64/188
s 25
f 32/53/189 64/88/190 63/87/191 37/61/192
s 24
f 20/33/193 65/89/194 131/172/195 132/173/196
s 29
f 66/90/197 65/89/198 20/33/199 47/71/200
s 6
f 67/91/201 66/90/202 47/71/46 48/72/45
s 3
f 15/25/52 68/92/203 67/91/204 48/72/155
f 15/26/52 16/27/51 69/94/205 68/93/203
s 5
f 16/28/55 23/38/54 70/96/206 69/95/207
f 137/180/114 138/181/208 70/96/206 23/38/54
f 72/98/209 71/97/210 35/58/79 17/29/78
f 101/132/100 102/133/211 72/98/209 17/29/78
f 74/100/212 73/99/213 29/48/58 18/30/57
s 1
f 57/81/170 74/100/214 18/30/62 13/23/61
f 76/102/139 75/101/4 57/81/170 58/82/169
s 6
f 58/82/172 59/83/171 77/103/22 76/102/21
s 28
f 59/83/175 60/84/174 78/104/134 77/103/133
s 23
f 79/105/93 94/123/92 95/124/178 61/85/177
s 26
f 80/106/127 79/105/126 61/85/182 62/86/181
s 17
f 62/86/187 63/87/186 81/107/66 80/106/65
s 25
f 63/87/191 64/88/190 82/108/118 81/107/117
s 24
f 130/171/106 131/172/195 65/89/194 83/109/107
s 29
f 84/110/145 83/109/144 65/89/198 66/90/197
s 6
f 85/111/28 84/110/27 66/90/202 67/91/201
s 3
f 67/91/204 68/92/203 86/112/9 85/111/147
f 68/93/203 69/94/205 87/114/10 86/113/9
s 5
f 69/95/207 70/96/206 88/116/34 87/115/33
f 138/181/208 139/182/111 88/116/34 70/96/206
f 90/118/83 89/117/82 71/97/210 72/98/209
f 72/98/209 102/133/211 103/134/97 90/118/83
f 92/120/20 91/119/19 73/99/213 74/100/212
s 1
f 75/101/4 92/120/3 74/100/214 57/81/170
s 23
f 27/44/215 78/104/216 110/143/217 111/144/218
f 109/142/219 110/143/217 78/104/216 60/84/220
f 108/141/221 109/142/219 60/84/220 26/43/222
s 27
f 107/140/223 108/141/224 26/43/225 42/65/226
s 6
f 106/139/227 107/140/228 42/65/42 49/74/41
s 2
f 25/41/8 105/137/229 106/139/230 49/74/151
f 25/42/8 30/49/7 116/151/231 105/138/229
s 5
f 30/50/59 29/48/58 115/150/232 116/152/233
f 29/48/58 73/99/213 114/149/234 115/150/232
f 113/148/235 114/149/234 73/99/213 91/119/19
f 112/147/236 113/148/235 91/119/19 28/47/18
s 4
f 111/145/237 112/146/238 28/46/14 27/45/13
s 2
f 106/139/230 105/137/229 99/128/101 98/127/163
s 6
f 98/127/90 97/126/89 107/140/228 106/139/227
s 27
f 97/126/162 96/125/161 108/141/224 107/140/223
s 23
f 96/125/179 95/124/178 109/142/219 108/141/221
s off
f 142/185/239 141/186/240 143/187/241 144/188/242
s 23
f 111/144/218 110/143/217 94/123/92 93/121/91
s 4
f 93/122/96 104/135/95 112/146/238 111/145/237
s 5
f 104/136/98 103/134/97 113/148/235 112/147/236
f 103/134/97 102/133/211 114/149/234 113/148/235
f 115/150/232 114/149/234 102/133/211 101/132/100
f 116/152/233 115/150/232 101/132/100 100/131/99
s 2
f 105/138/229 116/151/231 100/130/102 99/129/101
s 24
f 82/108/243 118/155/244 117/153/245 33/54/246
f 64/88/247 119/156/248 118/155/244 82/108/243
f 120/157/249 119/156/248 64/88/247 32/53/250
s 27
f 121/158/251 120/157/252 32/53/130 54/77/158
s 6
f 122/159/253 121/158/254 54/77/70 53/80/69
s 2
f 31/51/76 123/160/255 122/159/256 53/80/159
f 31/52/76 36/59/75 124/162/257 123/161/255
s 5
f 36/60/80 35/58/79 125/164/258 124/163/259
f 71/97/210 126/165/260 125/164/258 35/58/79
f 89/117/82 127/166/261 126/165/260 71/97/210
f 128/168/262 127/166/261 89/117/82 34/57/81
s 4
f 117/154/263 128/167/264 34/56/86 33/55/85
s 24
f 117/153/245 118/155/244 130/171/106 129/169/105
s off
f 145/189/265 146/190/266 147/191/267 148/192/268
s 24
f 132/173/196 131/172/195 119/156/248 120/157/249
s 27
f 133/174/166 132/173/165 120/157/252 121/158/251
s 6
f 134/175/104 133/174/103 121/158/254 122/159/253
s 2
f 122/159/256 123/160/255 135/176/115 134/175/168
f 123/161/255 124/162/257 136/178/116 135/177/115
s 5
f 124/163/259 125/164/258 137/180/114 136/179/113
f 125/164/258 126/165/260 138/181/208 137/180/114
f 126/165/260 127/166/261 139/182/111 138/181/208
f 140/184/112 139/182/111 127/166/261 128/168/262
s 4
f 129/170/110 140/183/109 128/167/264 117/154/263
s off
f 95/124/269 94/123/270 141/186/271 142/185/272
f 94/123/273 110/143/274 143/187/275 141/186/276
f 110/143/277 109/142/278 144/188/279 143/187/280
f 109/142/281 95/124/282 142/185/283 144/188/284
f 118/155/285 119/156/286 146/190/287 145/189/288
f 119/156/289 131/172/290 147/191/291 146/190/292
f 131/172/293 130/171/294 148/192/295 147/191/296
f 130/171/297 118/155/298 145/189/299 148/192/300
