# This file uses centimeters as units for non-parametric coordinates.

mtllib roof2.mtl
g default
v -2.173117 1.728181 -4.056851
v 1.590065 1.728181 -4.056851
v -2.173117 1.802456 -4.056851
v 1.590065 1.802456 -4.056851
v -2.173117 1.802456 -8.650871
v 1.590065 1.802456 -8.650871
v -2.173117 1.728181 -8.650871
v 1.590065 1.728181 -8.650871
v -2.173117 2.209498 -4.310286
v 1.590065 2.209498 -4.310286
v 1.590065 2.209498 -8.397436
v -2.173117 2.209498 -8.397436
v -2.167497 2.713372 -5.341599
v 1.584445 2.713372 -5.341599
v 1.584445 2.713372 -6.016790
v -2.167497 2.713372 -6.016790
vt 0.375000 0.000000
vt 0.625000 0.000000
vt 0.375000 0.250000
vt 0.625000 0.250000
vt 0.375000 0.500000
vt 0.625000 0.500000
vt 0.375000 0.750000
vt 0.625000 0.750000
vt 0.375000 1.000000
vt 0.625000 1.000000
vt 0.875000 0.000000
vt 0.875000 0.250000
vt 0.125000 0.000000
vt 0.125000 0.250000
vt 0.375000 0.250000
vt 0.625000 0.250000
vt 0.625000 0.500000
vt 0.375000 0.500000
vt 0.375000 0.250000
vt 0.625000 0.250000
vt 0.625000 0.500000
vt 0.375000 0.500000
vn 0.000000 0.000000 1.000000
vn 0.000000 0.000000 1.000000
vn 0.000000 0.465906 0.884834
vn 0.000000 0.465906 0.884834
vn 0.000000 1.000000 0.000000
vn 0.000000 1.000000 0.000000
vn 0.000000 1.000000 0.000000
vn 0.000000 1.000000 0.000000
vn 0.000000 0.465905 -0.884835
vn 0.000000 0.465905 -0.884835
vn 0.000000 0.000000 -1.000000
vn 0.000000 0.000000 -1.000000
vn 0.000000 -1.000000 0.000000
vn 0.000000 -1.000000 0.000000
vn 0.000000 -1.000000 0.000000
vn 0.000000 -1.000000 0.000000
vn 1.000000 0.000000 0.000000
vn 1.000000 0.000000 0.000000
vn 1.000000 0.000000 0.000000
vn 1.000000 0.000000 0.000000
vn -1.000000 0.000000 0.000000
vn -1.000000 0.000000 0.000000
vn -1.000000 0.000000 0.000000
vn -1.000000 0.000000 0.000000
vn 0.000000 0.528550 0.848902
vn 0.000000 0.528550 0.848902
vn 0.999991 0.004173 0.000000
vn 0.999991 0.004345 0.000000
vn 0.000000 0.528549 -0.848903
vn 0.000000 0.528549 -0.848903
vn -0.999991 0.004345 0.000000
vn -0.999991 0.004173 0.000000
vn 0.000000 0.898495 0.438983
vn 0.000000 0.898495 0.438983
vn 0.000000 0.898495 0.438983
vn 0.000000 0.898495 0.438983
vn 0.999938 0.011154 0.000000
vn 0.999938 0.011154 0.000000
vn 0.000000 0.978327 -0.207067
vn 0.000000 0.978327 -0.207067
vn 0.000000 0.978327 -0.207067
vn 0.000000 0.978327 -0.207067
vn -0.999938 0.011154 0.000000
vn -0.999938 0.011154 0.000000
s 1
g roof2
usemtl initialShadingGroup
f 1/1/1 2/2/2 4/4/3 3/3/4
s off
f 13/19/5 14/20/6 15/21/7 16/22/8
s 2
f 5/5/9 6/6/10 8/8/11 7/7/12
s off
f 7/7/13 8/8/14 2/10/15 1/9/16
s 3
f 2/2/17 8/11/18 6/12/19 4/4/20
s 4
f 7/13/21 1/1/22 3/3/23 5/14/24
s 1
f 3/3/4 4/4/3 10/16/25 9/15/26
s 3
f 4/4/20 6/6/19 11/17/27 10/16/28
s 2
f 6/6/10 5/5/9 12/18/29 11/17/30
s 4
f 5/5/24 3/3/23 9/15/31 12/18/32
s off
f 9/15/33 10/16/34 14/20/35 13/19/36
s 3
f 10/16/28 11/17/27 15/21/37 14/20/38
s off
f 11/17/39 12/18/40 16/22/41 15/21/42
s 4
f 12/18/32 9/15/31 13/19/43 16/22/44
