# This file uses centimeters as units for non-parametric coordinates.

mtllib stairs1.mtl
g default
v -9.542533 0.030718 0.678170
v -8.711243 0.030718 0.678170
v -9.542533 0.141462 0.678170
v -8.711243 0.141462 0.678170
v -9.542533 0.252205 0.678170
v -8.711243 0.252205 0.678170
v -9.542533 0.362949 0.678170
v -8.711243 0.362949 0.678170
v -9.542533 0.362949 -0.678170
v -8.711243 0.362949 -0.678170
v -9.542533 0.252205 -0.678170
v -8.711243 0.252205 -0.678170
v -9.542533 0.141462 -0.678170
v -8.711243 0.141462 -0.678170
v -9.542533 0.030718 -0.678170
v -8.711243 0.030718 -0.678170
v -9.658637 0.030718 0.678170
v -9.658637 0.030718 -0.678170
v -9.658637 0.141462 0.678170
v -9.658637 0.141462 -0.678170
v -9.658637 0.252205 0.678170
v -9.658637 0.252205 -0.678170
v -9.781315 0.030718 0.678170
v -9.781315 0.030718 -0.678170
v -9.781315 0.141462 0.678170
v -9.781315 0.141462 -0.678170
vt 0.375000 0.125000
vt 0.625000 0.125000
vt 0.375000 0.166667
vt 0.625000 0.166667
vt 0.375000 0.208333
vt 0.625000 0.208333
vt 0.375000 0.250000
vt 0.625000 0.250000
vt 0.375000 0.500000
vt 0.625000 0.500000
vt 0.375000 0.541667
vt 0.625000 0.541667
vt 0.375000 0.583333
vt 0.625000 0.583333
vt 0.375000 0.625000
vt 0.625000 0.625000
vt 0.875000 0.125000
vt 0.875000 0.166667
vt 0.875000 0.208333
vt 0.875000 0.250000
vt 0.125000 0.125000
vt 0.125000 0.166667
vt 0.125000 0.208333
vt 0.125000 0.250000
vt 0.375000 0.125000
vt 0.125000 0.125000
vt 0.375000 0.166667
vt 0.125000 0.166667
vt 0.375000 0.208333
vt 0.125000 0.208333
vt 0.375000 0.125000
vt 0.125000 0.125000
vt 0.375000 0.166667
vt 0.125000 0.166667
vn 0.000000 0.000000 1.000000
vn 0.000000 0.000000 1.000000
vn 0.000000 0.000000 1.000000
vn 0.000000 0.000000 1.000000
vn 0.000000 0.000000 1.000000
vn 0.000000 0.000000 1.000000
vn 0.000000 0.000000 1.000000
vn 0.000000 0.000000 1.000000
vn 0.000000 1.000000 0.000000
vn 0.000000 1.000000 0.000000
vn 0.000000 1.000000 0.000000
vn 0.000000 1.000000 0.000000
vn 0.000000 0.000000 -1.000000
vn 0.000000 0.000000 -1.000000
vn 0.000000 0.000000 -1.000000
vn 0.000000 0.000000 -1.000000
vn 0.000000 0.000000 -1.000000
vn 0.000000 0.000000 -1.000000
vn 0.000000 0.000000 -1.000000
vn 0.000000 0.000000 -1.000000
vn 1.000000 0.000000 0.000000
vn 1.000000 0.000000 0.000000
vn 1.000000 0.000000 0.000000
vn 1.000000 0.000000 0.000000
vn 1.000000 0.000000 0.000000
vn 1.000000 0.000000 0.000000
vn 1.000000 0.000000 0.000000
vn 1.000000 0.000000 0.000000
vn -1.000000 0.000000 0.000000
vn -1.000000 0.000000 0.000000
vn -1.000000 0.000000 0.000000
vn -1.000000 0.000000 0.000000
vn -1.000000 0.000000 0.000000
vn -1.000000 0.000000 0.000000
vn -1.000000 0.000000 0.000000
vn -1.000000 0.000000 0.000000
vn -1.000000 0.000000 0.000000
vn -1.000000 0.000000 0.000000
vn -1.000000 0.000000 0.000000
vn -1.000000 0.000000 0.000000
vn 0.000000 0.000000 1.000000
vn 0.000000 0.000000 1.000000
vn 0.000000 0.000000 -1.000000
vn 0.000000 0.000000 -1.000000
vn 0.000000 0.000000 1.000000
vn 0.000000 1.000000 0.000000
vn 0.000000 1.000000 0.000000
vn 0.000000 1.000000 0.000000
vn 0.000000 1.000000 0.000000
vn 0.000000 0.000000 -1.000000
vn 0.000000 0.000000 1.000000
vn 0.000000 0.000000 1.000000
vn 0.000000 1.000000 -0.000000
vn 0.000000 1.000000 -0.000000
vn 0.000000 1.000000 -0.000000
vn 0.000000 1.000000 -0.000000
vn 0.000000 0.000000 -1.000000
vn 0.000000 0.000000 -1.000000
vn 0.000000 -1.000000 0.000000
vn 0.000000 -1.000000 0.000000
vn 0.000000 -1.000000 0.000000
vn 0.000000 -1.000000 0.000000
s 1
g stairs1
usemtl initialShadingGroup
f 1/1/1 2/2/2 4/4/3 3/3/4
f 3/3/4 4/4/3 6/6/5 5/5/6
f 5/5/6 6/6/5 8/8/7 7/7/8
s off
f 7/7/9 8/8/10 10/10/11 9/9/12
s 2
f 9/9/13 10/10/14 12/12/15 11/11/16
f 11/11/16 12/12/15 14/14/17 13/13/18
f 13/13/18 14/14/17 16/16/19 15/15/20
s 3
f 2/2/21 16/17/22 14/18/23 4/4/24
f 4/4/24 14/18/23 12/19/25 6/6/26
f 6/6/26 12/19/25 10/20/27 8/8/28
s off
f 24/32/29 23/31/30 25/33/31 26/34/32
f 20/28/33 19/27/34 21/29/35 22/30/36
f 11/23/37 5/5/38 7/7/39 9/24/40
s 1
f 1/1/1 3/3/4 19/27/41 17/25/42
s 2
f 13/22/18 15/21/20 18/26/43 20/28/44
s 1
f 3/3/4 5/5/6 21/29/45 19/27/41
s off
f 5/5/46 11/23/47 22/30/48 21/29/49
s 2
f 11/23/16 13/22/18 20/28/44 22/30/50
s 1
f 17/25/42 19/27/41 25/33/51 23/31/52
s off
f 19/27/53 20/28/54 26/34/55 25/33/56
s 2
f 20/28/44 18/26/43 24/32/57 26/34/58
s off
f 16/17/59 2/2/60 23/31/61 24/32/62
