# This file uses centimeters as units for non-parametric coordinates.

mtllib stairs2.mtl
g default
v -7.698527 0.023232 0.678170
v -6.867238 0.023232 0.678170
v -7.698527 0.133975 0.678170
v -6.867238 0.133975 0.678170
v -7.698527 0.244719 0.678170
v -6.867238 0.244719 0.678170
v -7.698527 0.355462 0.678170
v -6.867238 0.355462 0.678170
v -7.698527 0.466206 0.678170
v -6.867238 0.466206 0.678170
v -7.698527 0.576949 0.678170
v -6.867238 0.576949 0.678170
v -7.698527 0.687693 0.678170
v -6.867238 0.687693 0.678170
v -7.698527 0.687693 -0.678170
v -6.867238 0.687693 -0.678170
v -7.698527 0.576949 -0.678170
v -6.867238 0.576949 -0.678170
v -7.698527 0.466206 -0.678170
v -6.867238 0.466206 -0.678170
v -7.698527 0.355462 -0.678170
v -6.867238 0.355462 -0.678170
v -7.698527 0.244719 -0.678170
v -6.867238 0.244719 -0.678170
v -7.698527 0.133975 -0.678170
v -6.867238 0.133975 -0.678170
v -7.698527 0.023232 -0.678170
v -6.867238 0.023232 -0.678170
v -7.814631 0.023232 -0.678170
v -7.814631 0.023232 0.678170
v -7.814631 0.133975 0.678170
v -7.814631 0.133975 -0.678170
v -7.814631 0.244719 0.678170
v -7.814631 0.244719 -0.678170
v -7.814631 0.355462 0.678170
v -7.814631 0.355462 -0.678170
v -7.814631 0.466206 0.678170
v -7.814631 0.466206 -0.678170
v -7.814631 0.576949 0.678170
v -7.814631 0.576949 -0.678170
v -7.937308 0.023232 -0.678170
v -7.937308 0.023232 0.678170
v -7.937308 0.133975 0.678170
v -7.937308 0.133975 -0.678170
v -7.937308 0.244719 0.678170
v -7.937308 0.244719 -0.678170
v -7.937308 0.355462 0.678170
v -7.937308 0.355462 -0.678170
v -7.937308 0.466206 0.678170
v -7.937308 0.466206 -0.678170
v -8.043505 0.023232 -0.678170
v -8.043505 0.023232 0.678170
v -8.043505 0.133975 0.678170
v -8.043505 0.133975 -0.678170
v -8.043505 0.244719 0.678170
v -8.043505 0.244719 -0.678170
v -8.043505 0.355462 0.678170
v -8.043505 0.355462 -0.678170
v -8.144690 0.023232 -0.678170
v -8.144690 0.023232 0.678170
v -8.144690 0.133975 0.678170
v -8.144690 0.133975 -0.678170
v -8.144690 0.244719 0.678170
v -8.144690 0.244719 -0.678170
v -8.249217 0.023232 -0.678170
v -8.249217 0.023232 0.678170
v -8.249217 0.133975 0.678170
v -8.249217 0.133975 -0.678170
vt 0.375000 0.000000
vt 0.625000 0.000000
vt 0.375000 0.041667
vt 0.625000 0.041667
vt 0.375000 0.083333
vt 0.625000 0.083333
vt 0.375000 0.125000
vt 0.625000 0.125000
vt 0.375000 0.166667
vt 0.625000 0.166667
vt 0.375000 0.208333
vt 0.625000 0.208333
vt 0.375000 0.250000
vt 0.625000 0.250000
vt 0.375000 0.500000
vt 0.625000 0.500000
vt 0.375000 0.541667
vt 0.625000 0.541667
vt 0.375000 0.583333
vt 0.625000 0.583333
vt 0.375000 0.625000
vt 0.625000 0.625000
vt 0.375000 0.666667
vt 0.625000 0.666667
vt 0.375000 0.708333
vt 0.625000 0.708333
vt 0.375000 0.750000
vt 0.625000 0.750000
vt 0.375000 1.000000
vt 0.625000 1.000000
vt 0.875000 0.000000
vt 0.875000 0.041667
vt 0.875000 0.083333
vt 0.875000 0.125000
vt 0.875000 0.166667
vt 0.875000 0.208333
vt 0.875000 0.250000
vt 0.125000 0.000000
vt 0.125000 0.041667
vt 0.125000 0.083333
vt 0.125000 0.125000
vt 0.125000 0.166667
vt 0.125000 0.208333
vt 0.125000 0.250000
vt 0.125000 0.000000
vt 0.375000 0.000000
vt 0.375000 0.041667
vt 0.125000 0.041667
vt 0.375000 0.083333
vt 0.125000 0.083333
vt 0.375000 0.125000
vt 0.125000 0.125000
vt 0.375000 0.166667
vt 0.125000 0.166667
vt 0.375000 0.208333
vt 0.125000 0.208333
vt 0.125000 0.000000
vt 0.375000 0.000000
vt 0.375000 0.041667
vt 0.125000 0.041667
vt 0.375000 0.083333
vt 0.125000 0.083333
vt 0.375000 0.125000
vt 0.125000 0.125000
vt 0.375000 0.166667
vt 0.125000 0.166667
vt 0.125000 0.000000
vt 0.375000 0.000000
vt 0.375000 0.041667
vt 0.125000 0.041667
vt 0.375000 0.083333
vt 0.125000 0.083333
vt 0.375000 0.125000
vt 0.125000 0.125000
vt 0.125000 0.000000
vt 0.375000 0.000000
vt 0.375000 0.041667
vt 0.125000 0.041667
vt 0.375000 0.083333
vt 0.125000 0.083333
vt 0.125000 0.000000
vt 0.375000 0.000000
vt 0.375000 0.041667
vt 0.125000 0.041667
vn 0.000000 0.000000 1.000000
vn 0.000000 0.000000 1.000000
vn 0.000000 0.000000 1.000000
vn 0.000000 0.000000 1.000000
vn 0.000000 0.000000 1.000000
vn 0.000000 0.000000 1.000000
vn 0.000000 0.000000 1.000000
vn 0.000000 0.000000 1.000000
vn 0.000000 0.000000 1.000000
vn 0.000000 0.000000 1.000000
vn 0.000000 0.000000 1.000000
vn 0.000000 0.000000 1.000000
vn 0.000000 0.000000 1.000000
vn 0.000000 0.000000 1.000000
vn 0.000000 1.000000 0.000000
vn 0.000000 1.000000 0.000000
vn 0.000000 1.000000 0.000000
vn 0.000000 1.000000 0.000000
vn 0.000000 0.000000 -1.000000
vn 0.000000 0.000000 -1.000000
vn 0.000000 0.000000 -1.000000
vn 0.000000 0.000000 -1.000000
vn 0.000000 0.000000 -1.000000
vn 0.000000 0.000000 -1.000000
vn 0.000000 0.000000 -1.000000
vn 0.000000 0.000000 -1.000000
vn 0.000000 0.000000 -1.000000
vn 0.000000 0.000000 -1.000000
vn 0.000000 0.000000 -1.000000
vn 0.000000 0.000000 -1.000000
vn 0.000000 0.000000 -1.000000
vn 0.000000 0.000000 -1.000000
vn 0.000000 -1.000000 0.000000
vn 0.000000 -1.000000 0.000000
vn 0.000000 -1.000000 0.000000
vn 0.000000 -1.000000 0.000000
vn 1.000000 0.000000 0.000000
vn 1.000000 0.000000 0.000000
vn 1.000000 0.000000 0.000000
vn 1.000000 0.000000 0.000000
vn 1.000000 0.000000 0.000000
vn 1.000000 0.000000 0.000000
vn 1.000000 0.000000 0.000000
vn 1.000000 0.000000 0.000000
vn 1.000000 0.000000 0.000000
vn 1.000000 0.000000 0.000000
vn 1.000000 0.000000 0.000000
vn 1.000000 0.000000 0.000000
vn 1.000000 0.000000 0.000000
vn 1.000000 0.000000 0.000000
vn -1.000000 0.000000 0.000000
vn -1.000000 0.000000 0.000000
vn -1.000000 0.000000 0.000000
vn -1.000000 0.000000 0.000000
vn -1.000000 0.000000 0.000000
vn -1.000000 0.000000 0.000000
vn -1.000000 0.000000 0.000000
vn -1.000000 0.000000 0.000000
vn -1.000000 0.000000 0.000000
vn -1.000000 0.000000 0.000000
vn -1.000000 0.000000 0.000000
vn -1.000000 0.000000 0.000000
vn -1.000000 0.000000 0.000000
vn -1.000000 0.000000 0.000000
vn -1.000000 0.000000 0.000000
vn -1.000000 0.000000 0.000000
vn -1.000000 0.000000 0.000000
vn -1.000000 0.000000 0.000000
vn -1.000000 0.000000 0.000000
vn -1.000000 0.000000 0.000000
vn -1.000000 0.000000 0.000000
vn -1.000000 0.000000 0.000000
vn -1.000000 0.000000 0.000000
vn -1.000000 0.000000 0.000000
vn 0.000000 -1.000000 0.000000
vn 0.000000 -1.000000 0.000000
vn 0.000000 0.000000 1.000000
vn 0.000000 0.000000 1.000000
vn 0.000000 0.000000 -1.000000
vn 0.000000 0.000000 -1.000000
vn 0.000000 0.000000 1.000000
vn 0.000000 0.000000 -1.000000
vn 0.000000 0.000000 1.000000
vn 0.000000 0.000000 -1.000000
vn 0.000000 0.000000 1.000000
vn 0.000000 0.000000 -1.000000
vn 0.000000 0.000000 1.000000
vn 0.000000 1.000000 0.000000
vn 0.000000 1.000000 0.000000
vn 0.000000 1.000000 0.000000
vn 0.000000 1.000000 0.000000
vn 0.000000 0.000000 -1.000000
vn 0.000000 -1.000000 0.000000
vn 0.000000 -1.000000 0.000000
vn 0.000000 0.000000 1.000000
vn 0.000000 0.000000 1.000000
vn 0.000000 0.000000 -1.000000
vn 0.000000 0.000000 -1.000000
vn 0.000000 0.000000 1.000000
vn 0.000000 0.000000 -1.000000
vn 0.000000 0.000000 1.000000
vn 0.000000 0.000000 -1.000000
vn 0.000000 0.000000 1.000000
vn 0.000000 1.000000 -0.000000
vn 0.000000 1.000000 -0.000000
vn 0.000000 1.000000 -0.000000
vn 0.000000 1.000000 -0.000000
vn 0.000000 0.000000 -1.000000
vn 0.000000 -1.000000 0.000000
vn 0.000000 -1.000000 0.000000
vn 0.000000 0.000000 1.000000
vn 0.000000 0.000000 1.000000
vn 0.000000 0.000000 -1.000000
vn 0.000000 0.000000 -1.000000
vn 0.000000 0.000000 1.000000
vn 0.000000 0.000000 -1.000000
vn 0.000000 0.000000 1.000000
vn 0.000000 1.000000 -0.000000
vn 0.000000 1.000000 -0.000000
vn 0.000000 1.000000 -0.000000
vn 0.000000 1.000000 -0.000000
vn 0.000000 0.000000 -1.000000
vn 0.000000 -1.000000 0.000000
vn 0.000000 -1.000000 0.000000
vn 0.000000 0.000000 1.000000
vn 0.000000 0.000000 1.000000
vn 0.000000 0.000000 -1.000000
vn 0.000000 0.000000 -1.000000
vn 0.000000 0.000000 1.000000
vn 0.000000 1.000000 -0.000000
vn 0.000000 1.000000 -0.000000
vn 0.000000 1.000000 -0.000000
vn 0.000000 1.000000 -0.000000
vn 0.000000 0.000000 -1.000000
vn 0.000000 -1.000000 0.000000
vn 0.000000 -1.000000 0.000000
vn 0.000000 0.000000 1.000000
vn 0.000000 0.000000 1.000000
vn 0.000000 1.000000 -0.000000
vn 0.000000 1.000000 -0.000000
vn 0.000000 1.000000 -0.000000
vn 0.000000 1.000000 -0.000000
vn 0.000000 0.000000 -1.000000
vn 0.000000 0.000000 -1.000000
s 1
g stairs2
usemtl initialShadingGroup
f 1/1/1 2/2/2 4/4/3 3/3/4
f 3/3/4 4/4/3 6/6/5 5/5/6
f 5/5/6 6/6/5 8/8/7 7/7/8
f 7/7/8 8/8/7 10/10/9 9/9/10
f 9/9/10 10/10/9 12/12/11 11/11/12
f 11/11/12 12/12/11 14/14/13 13/13/14
s off
f 13/13/15 14/14/16 16/16/17 15/15/18
s 2
f 15/15/19 16/16/20 18/18/21 17/17/22
f 17/17/22 18/18/21 20/20/23 19/19/24
f 19/19/24 20/20/23 22/22/25 21/21/26
f 21/21/26 22/22/25 24/24/27 23/23/28
f 23/23/28 24/24/27 26/26/29 25/25/30
f 25/25/30 26/26/29 28/28/31 27/27/32
s 3
f 27/27/33 28/28/34 2/30/35 1/29/36
s 4
f 2/2/37 28/31/38 26/32/39 4/4/40
f 4/4/40 26/32/39 24/33/41 6/6/42
f 6/6/42 24/33/41 22/34/43 8/8/44
f 8/8/44 22/34/43 20/35/45 10/10/46
f 10/10/46 20/35/45 18/36/47 12/12/48
f 12/12/48 18/36/47 16/37/49 14/14/50
s off
f 65/81/51 66/82/52 67/83/53 68/84/54
f 62/78/55 61/77/56 63/79/57 64/80/58
f 56/72/59 55/71/60 57/73/61 58/74/62
f 48/64/63 47/63/64 49/65/65 50/66/66
f 38/54/67 37/53/68 39/55/69 40/56/70
f 17/43/71 11/11/72 13/13/73 15/44/74
s 3
f 27/38/33 1/1/36 30/46/75 29/45/76
s 1
f 1/1/1 3/3/4 31/47/77 30/46/78
s 2
f 25/39/30 27/38/32 29/45/79 32/48/80
s 1
f 3/3/4 5/5/6 33/49/81 31/47/77
s 2
f 23/40/28 25/39/30 32/48/80 34/50/82
s 1
f 5/5/6 7/7/8 35/51/83 33/49/81
s 2
f 21/41/26 23/40/28 34/50/82 36/52/84
s 1
f 7/7/8 9/9/10 37/53/85 35/51/83
s 2
f 19/42/24 21/41/26 36/52/84 38/54/86
s 1
f 9/9/10 11/11/12 39/55/87 37/53/85
s off
f 11/11/88 17/43/89 40/56/90 39/55/91
s 2
f 17/43/22 19/42/24 38/54/86 40/56/92
s 3
f 29/45/76 30/46/75 42/58/93 41/57/94
s 1
f 30/46/78 31/47/77 43/59/95 42/58/96
s 2
f 32/48/80 29/45/79 41/57/97 44/60/98
s 1
f 31/47/77 33/49/81 45/61/99 43/59/95
s 2
f 34/50/82 32/48/80 44/60/98 46/62/100
s 1
f 33/49/81 35/51/83 47/63/101 45/61/99
s 2
f 36/52/84 34/50/82 46/62/100 48/64/102
s 1
f 35/51/83 37/53/85 49/65/103 47/63/101
s off
f 37/53/104 38/54/105 50/66/106 49/65/107
s 2
f 38/54/86 36/52/84 48/64/102 50/66/108
s 3
f 41/57/94 42/58/93 52/68/109 51/67/110
s 1
f 42/58/96 43/59/95 53/69/111 52/68/112
s 2
f 44/60/98 41/57/97 51/67/113 54/70/114
s 1
f 43/59/95 45/61/99 55/71/115 53/69/111
s 2
f 46/62/100 44/60/98 54/70/114 56/72/116
s 1
f 45/61/99 47/63/101 57/73/117 55/71/115
s off
f 47/63/118 48/64/119 58/74/120 57/73/121
s 2
f 48/64/102 46/62/100 56/72/116 58/74/122
s 3
f 51/67/110 52/68/109 60/76/123 59/75/124
s 1
f 52/68/112 53/69/111 61/77/125 60/76/126
s 2
f 54/70/114 51/67/113 59/75/127 62/78/128
s 1
f 53/69/111 55/71/115 63/79/129 61/77/125
s off
f 55/71/130 56/72/131 64/80/132 63/79/133
s 2
f 56/72/116 54/70/114 62/78/128 64/80/134
s 3
f 59/75/124 60/76/123 66/82/135 65/81/136
s 1
f 60/76/126 61/77/125 67/83/137 66/82/138
s off
f 61/77/139 62/78/140 68/84/141 67/83/142
s 2
f 62/78/128 59/75/127 65/81/143 68/84/144
