# This file uses centimeters as units for non-parametric coordinates.

mtllib Diner_Counter.mtl
g default
v -6.991246 -0.028065 1.980670
v 6.991246 -0.028065 1.980670
v -6.991246 3.733194 1.980670
v 6.991246 3.733194 1.980670
v -6.991246 3.733194 -1.980670
v 6.991246 3.733194 -1.980670
v -6.991246 -0.028065 -1.980670
v 6.991246 -0.028065 -1.980670
v -7.025740 0.316141 2.015165
v -6.922256 0.316141 1.980670
v -6.991246 0.316141 1.911681
v -7.025740 3.246895 2.015165
v -6.991246 3.246895 1.911681
v -6.922256 3.246895 1.980670
v 7.025740 0.316141 2.015165
v 6.991246 0.316141 1.911681
v 6.922256 0.316141 1.980670
v 7.025740 3.246895 2.015165
v 6.922256 3.246895 1.980670
v 6.991246 3.246895 1.911681
v -7.064420 3.246895 -1.980670
v -6.991246 3.320069 -1.980670
v -6.922256 3.246895 -1.980670
v -6.991246 3.246895 -1.911681
v -7.064420 0.316140 -1.980670
v -6.991246 0.316140 -1.911681
v -6.922256 0.316140 -1.980670
v -6.991246 0.242965 -1.980670
v 7.064420 3.246895 -1.980670
v 6.991246 3.246895 -1.911681
v 6.922256 3.246895 -1.980670
v 6.991246 3.320069 -1.980670
v 7.064420 0.316140 -1.980670
v 6.991246 0.242965 -1.980670
v 6.922256 0.316140 -1.980670
v 6.991246 0.316140 -1.911681
v 7.859418 3.246895 2.775038
v 7.784631 3.246895 2.837698
v 7.813778 3.246895 2.803203
v 7.813778 3.733194 2.803203
v -7.859418 3.246895 2.775038
v -7.813778 3.246895 2.803203
v -7.784631 3.246895 2.837698
v -7.813778 3.733194 2.803203
v 8.692000 3.246895 -1.905883
v 8.629342 3.246895 -1.980670
v 8.629342 3.733194 -1.980670
v -8.629342 3.246895 -1.980670
v -8.692000 3.246895 -1.905883
v -8.629342 3.733194 -1.980670
v 7.140024 -0.028065 2.059284
v 7.069816 -0.028065 2.127034
v 7.103114 -0.028065 2.092539
v 7.140024 0.316141 2.059284
v 7.103114 0.316141 2.092539
v 7.069816 0.316141 2.127034
v -7.140024 -0.028065 2.059284
v -7.103114 -0.028065 2.092539
v -7.069816 -0.028065 2.127034
v -7.140024 0.316141 2.059284
v -7.069816 0.316141 2.127034
v -7.103114 0.316141 2.092539
v 7.281472 -0.028065 -1.910463
v 7.213721 -0.028065 -1.980670
v 7.281472 0.316140 -1.910463
v 7.213721 0.316140 -1.980670
v -7.213721 -0.028065 -1.980670
v -7.281472 -0.028065 -1.910463
v -7.281472 0.316140 -1.910463
v -7.213721 0.316140 -1.980670
v 7.850070 3.733194 2.782871
v 7.859418 3.715948 2.775038
v 7.839741 3.733194 2.787181
v 8.692000 3.715948 -1.905883
v 8.677550 3.733194 -1.923129
v -7.850070 3.733194 2.782871
v -7.839741 3.733194 2.787181
v -7.859418 3.715948 2.775038
v -8.692000 3.715948 -1.905883
v -8.677550 3.733194 -1.923129
v 7.793977 3.733194 2.829866
v 7.799202 3.733194 2.820452
v 7.784631 3.715948 2.837698
v -7.793977 3.733194 2.829866
v -7.784631 3.715948 2.837698
v -7.799202 3.733194 2.820452
v -6.922256 0.316140 -1.178278
v -6.922256 3.246895 -1.178278
v 6.922256 3.246895 -1.178278
v 6.922256 0.316140 -1.178278
vt 0.375000 0.500000
vt 0.625000 0.750000
vt 0.375000 1.000000
vt 0.625000 1.000000
vt 0.625000 0.500000
vt 0.625000 0.570794
vt 0.375000 0.684382
vt 0.375000 0.750000
vt 0.375000 0.166667
vt 0.625000 0.166667
vt 0.625000 0.166667
vt 0.870646 0.166667
vt 0.125000 0.166667
vt 0.625000 0.000000
vt 0.625000 0.000000
vt 0.625000 0.083333
vt 0.375000 0.083333
vt 0.875000 0.083333
vt 0.125000 0.000000
vt 0.375000 0.000000
vt 0.375000 0.083333
vt 0.129354 0.083333
vt 0.129354 0.166667
vt 0.870646 0.083333
vt 0.875000 0.166667
vt 0.875000 0.179206
vt 0.875000 0.250000
vt 0.125000 0.179206
vt 0.125000 0.166667
vt 0.870727 -0.000000
vt 0.875000 0.000000
vt 0.875000 0.065618
vt 0.875000 0.083333
vt 0.125000 0.083333
vt 0.125000 0.065618
vt 0.125000 0.000000
vt 0.129273 0.083333
vt 0.370646 0.083333
vt 0.376234 0.166667
vt 0.623766 0.083333
vt 0.629354 0.166667
vt 0.375000 0.583333
vt 0.376234 0.666667
vt 0.623766 0.583333
vt 0.625000 0.666667
vt 0.623813 -0.000000
vt 0.629123 0.083333
vt 0.370877 0.000000
vt 0.376187 0.083333
vt 0.875000 0.000000
vt 0.870727 0.083333
vt 0.129273 -0.000000
vt 0.125000 0.083333
vt 0.376234 0.083333
vt 0.370646 0.166667
vt 0.629354 0.083333
vt 0.623766 0.166667
vt 0.375000 0.583333
vt 0.375000 0.570794
vt 0.376234 0.583333
vt 0.375000 0.666667
vt 0.375000 0.666667
vt 0.625000 0.583333
vt 0.625000 0.583333
vt 0.625000 0.666667
vt 0.625000 0.684382
vt 0.623766 0.666667
vt 0.375000 0.166667
vt 0.629123 -0.000000
vt 0.625000 0.083333
vt 0.623813 0.083333
vt 0.375000 0.000000
vt 0.376187 0.000000
vt 0.370877 0.083333
vt 0.875000 0.166667
vt 0.875000 0.250000
vt 0.128880 0.166667
vt 0.125000 0.250000
vt 0.623986 0.166667
vt 0.628251 0.166667
vt 0.627718 0.250000
vt 0.625000 0.250000
vt 0.371749 0.166667
vt 0.376014 0.166667
vt 0.372282 0.250000
vt 0.375481 0.250000
vt 0.375000 0.250000
vt 0.625000 0.250000
vt 0.871120 0.247045
vt 0.871120 0.166667
vt 0.125000 0.250000
vt 0.127986 0.250000
vt 0.375000 0.250000
vt 0.626849 0.250000
vt 0.872015 0.250000
vt 0.371749 0.247045
vt 0.128880 0.247045
vt 0.623986 0.247045
vt 0.375507 0.250000
vt 0.628251 0.247045
vt 0.373151 0.250000
vt 0.624519 0.250000
vt 0.624493 0.250000
vt 0.376014 0.247045
vt 0.376234 0.666667
vt 0.376234 0.583333
vt 0.623766 0.583333
vt 0.623766 0.666667
vn 0.000000 0.000000 1.000000
vn 0.000000 0.000000 1.000000
vn 0.000000 0.000000 1.000000
vn 0.000000 0.000000 1.000000
vn 0.000000 0.000000 1.000000
vn 0.000000 0.000000 1.000000
vn 0.000000 0.000000 1.000000
vn 0.000000 0.000000 1.000000
vn 0.000000 0.000000 1.000000
vn 0.000000 0.000000 1.000000
vn 0.000000 0.000000 1.000000
vn 0.000000 0.000000 1.000000
vn 0.000000 1.000000 0.000000
vn 0.000000 1.000000 0.000000
vn 0.000000 1.000000 0.000000
vn 0.000000 1.000000 0.000000
vn 0.000000 0.000000 -1.000000
vn 0.000000 0.000000 -1.000000
vn 0.000000 0.000000 -1.000000
vn 0.000000 0.000000 -1.000000
vn 0.000000 0.000000 -1.000000
vn 0.000000 0.000000 -1.000000
vn 0.000000 0.000000 -1.000000
vn 0.000000 0.000000 -1.000000
vn 0.000000 0.000000 -1.000000
vn 0.000000 0.000000 -1.000000
vn 0.000000 -1.000000 0.000000
vn 0.000000 -1.000000 0.000000
vn 0.000000 -1.000000 0.000000
vn 0.000000 -1.000000 0.000000
vn 0.999366 0.000000 0.035609
vn 0.999366 0.000000 0.035609
vn 0.999366 0.000000 0.035609
vn 0.999366 0.000000 0.035609
vn 1.000000 0.000000 0.000000
vn 1.000000 0.000000 0.000000
vn 1.000000 0.000000 0.000000
vn 1.000000 0.000000 0.000000
vn 0.984547 0.000000 0.175119
vn 0.984547 0.000000 0.175119
vn 0.984547 0.000000 0.175119
vn 0.984547 0.000000 0.175119
vn -0.999366 0.000000 0.035609
vn -0.999366 0.000000 0.035609
vn -0.999366 0.000000 0.035609
vn -0.999366 0.000000 0.035609
vn -1.000000 0.000000 0.000000
vn -1.000000 0.000000 0.000000
vn -1.000000 0.000000 0.000000
vn -1.000000 0.000000 0.000000
vn -0.984547 0.000000 0.175119
vn -0.984547 0.000000 0.175119
vn -0.984547 0.000000 0.175119
vn -0.984547 0.000000 0.175119
vn 0.000000 1.000000 0.000000
vn 0.000000 1.000000 0.000000
vn 0.000000 1.000000 0.000000
vn 0.000000 1.000000 0.000000
vn 0.000000 1.000000 0.000000
vn 0.000000 1.000000 0.000000
vn 0.000000 1.000000 0.000000
vn 0.000000 1.000000 0.000000
vn 0.000000 1.000000 0.000000
vn 0.000000 1.000000 0.000000
vn 0.000000 0.000000 -1.000000
vn 0.000000 0.000000 -1.000000
vn 0.000000 0.000000 -1.000000
vn 0.000000 -1.000000 0.000000
vn 0.000000 -1.000000 0.000000
vn 0.000000 -1.000000 0.000000
vn 0.000000 -1.000000 0.000000
vn 0.000000 -1.000000 0.000000
vn 0.000000 -1.000000 0.000000
vn 0.000000 -1.000000 0.000000
vn 0.000000 0.000000 -1.000000
vn 0.000000 0.000000 -1.000000
vn 0.000000 0.000000 -1.000000
vn 0.000000 0.000000 -1.000000
vn 0.000000 0.000000 -1.000000
vn 0.000000 -1.000000 0.000000
vn 0.000000 -1.000000 0.000000
vn 0.000000 -1.000000 0.000000
vn -0.000000 1.000000 -0.000000
vn -0.000000 1.000000 -0.000000
vn -0.000000 1.000000 -0.000000
vn -0.000000 1.000000 -0.000000
vn -0.000000 1.000000 -0.000000
vn -0.000000 1.000000 -0.000000
vn -0.000000 1.000000 -0.000000
vn -0.000000 1.000000 -0.000000
vn 0.000000 -1.000000 0.000000
vn 0.000000 -1.000000 0.000000
vn 0.000000 -1.000000 0.000000
vn 0.000000 -1.000000 0.000000
vn 0.000000 -1.000000 0.000000
vn 0.000000 -1.000000 0.000000
vn 0.000000 -1.000000 0.000000
vn 0.000000 -1.000000 0.000000
vn 0.000000 1.000000 -0.000000
vn 0.000000 1.000000 -0.000000
vn 0.000000 1.000000 -0.000000
vn 0.000000 1.000000 -0.000000
vn 0.000000 1.000000 -0.000000
vn 0.000000 1.000000 -0.000000
vn 0.000000 -1.000000 0.000000
vn 0.000000 -1.000000 0.000000
vn 0.000000 -1.000000 0.000000
vn 0.000000 -1.000000 0.000000
vn 0.000000 -1.000000 0.000000
vn 0.000000 -1.000000 -0.000000
vn 0.000000 -1.000000 0.000000
vn 0.000000 -1.000000 0.000000
vn 0.000000 -1.000000 0.000000
vn 0.000000 -1.000000 -0.000000
vn 0.000000 -1.000000 0.000000
vn 0.000000 -1.000000 0.000000
vn 0.000000 0.000000 -1.000000
vn 0.000000 0.000000 -1.000000
vn 0.000000 0.000000 -1.000000
vn 0.000000 0.000000 -1.000000
vn 0.000000 0.000000 -1.000000
vn 0.000000 0.000000 -1.000000
vn 0.000000 0.000000 -1.000000
vn 0.000000 0.000000 -1.000000
vn 0.000000 0.000000 -1.000000
vn 0.000000 0.000000 -1.000000
vn 0.000000 1.000000 -0.000000
vn 0.000000 1.000000 -0.000000
vn 0.000000 1.000000 -0.000000
vn 0.000000 1.000000 -0.000000
vn 0.000000 1.000000 -0.000000
vn 0.000000 1.000000 -0.000000
vn -0.707106 0.000000 0.707108
vn -0.707106 0.000000 0.707108
vn -0.707106 0.000000 0.707108
vn -0.707106 0.000000 0.707108
vn 0.707106 0.000000 0.707108
vn 0.707106 0.000000 0.707108
vn 0.707106 0.000000 0.707108
vn 0.707106 0.000000 0.707108
vn -0.707106 0.000000 -0.707108
vn -0.707106 0.000000 -0.707108
vn -0.707106 0.000000 -0.707108
vn -0.707106 0.000000 -0.707108
vn 0.707106 0.000000 -0.707108
vn 0.707106 0.000000 -0.707108
vn 0.707106 0.000000 -0.707108
vn 0.707106 0.000000 -0.707108
vn 0.642220 -0.000000 0.766520
vn 0.642220 -0.000000 0.766520
vn 0.642220 -0.000000 0.766521
vn 0.642220 -0.000000 0.766520
vn 0.642220 -0.000000 0.766521
vn 0.642220 -0.000000 0.766520
vn -0.642220 0.000000 0.766520
vn -0.642220 0.000000 0.766520
vn -0.642220 0.000000 0.766520
vn -0.642220 0.000000 0.766521
vn -0.642220 0.000000 0.766520
vn -0.642220 0.000000 0.766521
vn 0.766527 0.000001 -0.642212
vn 0.766527 0.000001 -0.642212
vn 0.766527 0.000001 -0.642212
vn 0.766527 0.000001 -0.642212
vn 0.766527 0.000001 -0.642212
vn -0.766527 0.000001 -0.642212
vn -0.766527 0.000001 -0.642212
vn -0.766527 0.000001 -0.642212
vn -0.766527 0.000001 -0.642212
vn -0.766527 0.000001 -0.642212
vn 0.694397 0.000000 0.719592
vn 0.694397 0.000000 0.719592
vn 0.694397 0.000000 0.719592
vn 0.694397 0.000000 0.719592
vn -0.694397 0.000000 0.719592
vn -0.694397 0.000000 0.719592
vn -0.694397 0.000000 0.719592
vn -0.694397 0.000000 0.719592
vn 0.719585 0.000000 -0.694405
vn 0.719585 0.000000 -0.694405
vn 0.719585 0.000000 -0.694405
vn 0.719585 0.000000 -0.694405
vn -0.719585 0.000000 -0.694405
vn -0.719585 0.000000 -0.694405
vn -0.719585 0.000000 -0.694405
vn -0.719585 0.000000 -0.694405
vn 0.000000 -0.685993 -0.727608
vn 0.000000 -0.685993 -0.727608
vn 0.000000 -0.685993 -0.727608
vn 0.000000 -0.685993 -0.727608
vn 0.000000 0.685990 -0.727611
vn 0.000000 0.685990 -0.727611
vn 0.000000 0.685990 -0.727611
vn 0.000000 0.685990 -0.727611
vn 0.000000 -0.685994 -0.727607
vn 0.000000 -0.685994 -0.727607
vn 0.000000 -0.685994 -0.727607
vn 0.000000 -0.685994 -0.727607
vn 0.000000 0.685990 -0.727611
vn 0.000000 0.685990 -0.727611
vn 0.000000 0.685990 -0.727611
vn 0.000000 0.685990 -0.727611
vn 0.000000 1.000000 0.000000
vn 0.000000 1.000000 0.000000
vn 0.000000 1.000000 0.000018
vn 0.000000 1.000000 0.000018
vn 0.696183 0.707104 0.123828
vn 0.696183 0.707104 0.123828
vn 0.696183 0.707104 0.123828
vn 0.696183 0.707104 0.123828
vn -0.696183 0.707104 0.123828
vn -0.696183 0.707104 0.123828
vn -0.696183 0.707104 0.123828
vn -0.696183 0.707104 0.123828
vn 0.000000 0.707112 0.707102
vn 0.000000 0.707112 0.707102
vn 0.000000 0.707112 0.707102
vn 0.000000 0.707112 0.707102
vn -0.376833 0.205809 -0.903128
vn -0.376833 0.205809 -0.903128
vn -0.376833 0.205809 -0.903128
vn 0.376830 0.205841 -0.903122
vn 0.376830 0.205841 -0.903122
vn 0.376830 0.205841 -0.903122
vn -0.847563 0.245737 -0.470373
vn -0.847563 0.245737 -0.470374
vn -0.847563 0.245737 -0.470373
vn 0.847566 0.245738 -0.470367
vn 0.847566 0.245738 -0.470367
vn 0.847566 0.245738 -0.470367
vn 1.000000 0.000000 0.000000
vn 1.000000 0.000000 0.000000
vn 1.000000 0.000000 0.000000
vn 1.000000 0.000000 0.000000
vn 0.000000 -1.000000 0.000000
vn 0.000000 -1.000000 0.000000
vn 0.000000 -1.000000 0.000000
vn 0.000000 -1.000000 0.000000
vn -1.000000 0.000000 0.000000
vn -1.000000 0.000000 0.000000
vn -1.000000 0.000000 0.000000
vn -1.000000 0.000000 0.000000
vn 0.000000 1.000000 0.000000
vn 0.000000 1.000000 0.000000
vn 0.000000 1.000000 0.000000
vn 0.000000 1.000000 0.000000
s off
g pCube1
usemtl initialShadingGroup
f 61/49/1 59/73/2 52/46/3 56/71/4
f 14/39/5 10/54/6 17/40/7 19/57/8
f 83/98/9 85/104/10 43/84/11 38/79/12
s 1
f 3/93/13 4/88/14 6/5/15 5/1/16
s 2
f 5/1/17 6/5/18 32/6/19 31/44/20 23/60/21 22/59/22
s off
f 87/105/23 88/106/24 89/107/25 90/108/26
s 3
f 7/8/27 8/2/28 2/4/29 1/3/30
s off
f 54/47/31 51/69/32 63/30/33 65/51/34
f 20/41/35 16/56/36 36/24/37 30/12/38
f 74/89/39 72/100/40 37/80/41 45/90/42
f 69/37/43 68/52/44 57/48/45 60/74/46
f 24/23/47 26/22/48 11/38/49 13/55/50
f 78/96/51 79/97/52 49/77/53 41/83/54
s 1
f 4/88/14 3/93/13 44/87/55 86/99/56 82/103/57 40/82/58
f 6/27/15 4/88/14 40/82/58 73/94/59 75/95/60 47/76/61
f 3/93/13 5/91/16 50/78/62 80/92/63 77/101/64 44/87/55
s 2
f 5/91/17 22/28/22 21/13/65 48/29/66 50/78/67
s 3
f 1/20/30 2/14/29 53/15/68 52/46/69 59/73/70 58/72/71
f 2/14/29 8/31/28 64/50/72 63/30/73 51/69/74 53/15/68
s 4
f 8/31/75 34/32/76 33/18/77 66/33/78 64/50/79
s 3
f 7/19/27 1/20/30 58/72/71 57/48/80 68/52/81 67/36/82
s 5
f 9/21/83 11/38/84 26/22/85 25/34/86 70/53/87 69/37/88 60/74/89 62/17/90
s 6
f 12/9/91 14/39/92 19/57/93 18/11/94 39/10/95 38/79/96 43/84/97 42/68/98
s 5
f 15/16/99 17/40/100 10/54/101 9/21/83 62/17/90 61/49/102 56/71/103 55/70/104
s 6
f 18/11/94 20/41/105 30/12/106 29/25/107 46/75/108 45/90/109 37/80/110 39/10/95
f 21/13/111 24/23/112 13/55/113 12/9/91 42/68/98 41/83/114 49/77/115 48/29/116
s 4
f 25/34/117 28/35/118 7/19/119 67/36/120 70/53/121
f 28/7/118 27/43/122 35/67/123 34/66/76 8/2/75 7/8/119
s 2
f 29/25/124 32/26/19 6/27/18 47/76/125 46/75/126
s 5
f 33/18/127 36/24/128 16/56/129 15/16/99 55/70/104 54/47/130 65/51/131 66/33/132
s off
f 11/38/133 10/54/134 14/39/135 13/55/136
f 17/40/137 16/56/138 20/41/139 19/57/140
f 24/42/141 23/60/142 27/43/143 26/62/144
f 31/44/145 30/64/146 36/45/147 35/67/148
f 38/79/149 37/80/150 72/100/151 71/81/152 81/102/153 83/98/154
f 41/83/155 43/84/156 85/104/157 84/86/158 76/85/159 78/96/160
f 45/90/161 46/75/162 47/76/163 75/95/164 74/89/165
f 48/29/166 49/77/167 79/97/168 80/92/169 50/78/170
f 52/46/171 51/69/172 54/47/173 56/71/174
f 57/48/175 59/73/176 61/49/177 60/74/178
f 63/30/179 64/50/180 66/33/181 65/51/182
f 67/36/183 68/52/184 69/37/185 70/53/186
s 5
f 9/21/83 10/54/101 11/38/84
s 6
f 12/9/91 13/55/113 14/39/92
s 5
f 15/16/99 16/56/129 17/40/100
s 6
f 18/11/94 19/57/93 20/41/105
s off
f 21/58/187 22/59/188 23/60/189 24/42/190
f 25/61/191 26/62/192 27/43/193 28/7/194
f 29/63/195 30/64/196 31/44/197 32/6/198
f 33/65/199 34/66/200 35/67/201 36/45/202
s 6
f 37/80/110 38/79/96 39/10/95
f 41/83/114 42/68/98 43/84/97
s 3
f 51/69/74 52/46/69 53/15/68
s 5
f 54/47/130 55/70/104 56/71/103
s 3
f 57/48/80 58/72/71 59/73/70
s 5
f 60/74/89 61/49/102 62/17/90
s 1
f 71/81/203 73/94/59 40/82/58 82/103/57 81/102/204
f 77/101/64 76/85/205 84/86/206 86/99/56 44/87/55
s off
f 73/94/207 72/100/208 74/89/209 75/95/210
f 78/96/211 77/101/212 80/92/213 79/97/214
f 83/98/215 82/103/216 86/99/217 85/104/218
f 71/81/219 72/100/220 73/94/221
f 76/85/222 77/101/223 78/96/224
f 81/102/225 82/103/226 83/98/227
f 84/86/228 85/104/229 86/99/230
f 27/43/231 23/60/232 88/106/233 87/105/234
f 23/60/235 31/44/236 89/107/237 88/106/238
f 31/44/239 35/67/240 90/108/241 89/107/242
f 35/67/243 27/43/244 87/105/245 90/108/246
