# This file uses centimeters as units for non-parametric coordinates.

mtllib Diner_Light.mtl
g default
v 0.000000 1.576660 0.000000
v 0.000000 1.984846 0.000000
v 2.371059 0.184826 -0.770403
v 2.315936 0.118850 -0.752492
v 2.016940 0.184826 -1.465394
v 1.970050 0.118850 -1.431326
v 1.465394 0.184826 -2.016940
v 1.431327 0.118850 -1.970050
v 0.770403 0.184826 -2.371056
v 0.752493 0.118850 -2.315933
v 0.000000 0.184826 -2.493076
v 0.000000 0.118850 -2.435117
v -0.770402 0.184826 -2.371055
v -0.752492 0.118850 -2.315933
v -1.465393 0.184826 -2.016940
v -1.431326 0.118850 -1.970050
v -2.016940 0.184826 -1.465394
v -1.970049 0.118850 -1.431326
v -2.371055 0.184826 -0.770402
v -2.315933 0.118850 -0.752492
v -2.493076 0.184826 0.000000
v -2.435117 0.118850 0.000000
v -2.371055 0.184826 0.770403
v -2.315933 0.118850 0.752493
v -2.016940 0.184826 1.465394
v -1.970049 0.118850 1.431326
v -1.465393 0.184826 2.016940
v -1.431326 0.118850 1.970049
v -0.770402 0.184826 2.371055
v -0.752492 0.118850 2.315933
v 0.000000 0.184826 2.493076
v 0.000000 0.118850 2.435117
v 0.770402 0.184826 2.371055
v 0.752492 0.118850 2.315932
v 1.465393 0.184826 2.016940
v 1.431325 0.118850 1.970049
v 2.016939 0.184826 1.465394
v 1.970049 0.118850 1.431326
v 2.371055 0.184826 0.770402
v 2.315932 0.118850 0.752492
v 2.493076 0.184826 0.000000
v 2.435117 0.118850 0.000000
v 0.760865 1.984846 -0.247220
v 1.071589 1.832058 -0.348180
v 0.647231 1.984846 -0.470241
v 0.911548 1.832058 -0.662279
v 0.470241 1.984846 -0.647231
v 0.662279 1.832058 -0.911548
v 0.247220 1.984846 -0.760865
v 0.348180 1.832058 -1.071589
v 0.000000 1.984846 -0.800021
v 0.000000 1.832058 -1.126735
v -0.247220 1.984846 -0.760865
v -0.348180 1.832058 -1.071589
v -0.470240 1.984846 -0.647231
v -0.662278 1.832058 -0.911548
v -0.647230 1.984846 -0.470240
v -0.911548 1.832058 -0.662278
v -0.760865 1.984846 -0.247220
v -1.071589 1.832058 -0.348180
v -0.800021 1.984846 0.000000
v -1.126735 1.832058 0.000000
v -0.760865 1.984846 0.247220
v -1.071589 1.832058 0.348180
v -0.647230 1.984846 0.470240
v -0.911548 1.832058 0.662278
v -0.470240 1.984846 0.647230
v -0.662278 1.832058 0.911548
v -0.247220 1.984846 0.760865
v -0.348180 1.832058 1.071589
v -0.000000 1.984846 0.800021
v -0.000000 1.832058 1.126735
v 0.247220 1.984846 0.760865
v 0.348180 1.832058 1.071589
v 0.470240 1.984846 0.647230
v 0.662278 1.832058 0.911548
v 0.647230 1.984846 0.470240
v 0.911548 1.832058 0.662278
v 0.760865 1.984846 0.247220
v 1.071589 1.832058 0.348180
v 0.800021 1.984846 -0.000000
v 1.126735 1.832058 0.000000
vt 0.375000 0.350090
vt 0.375158 0.347944
vt 0.387079 0.347945
vt 0.624578 0.347944
vt 0.612658 0.347945
vt 0.387659 0.347945
vt 0.399579 0.347944
vt 0.400158 0.347945
vt 0.412079 0.347944
vt 0.412658 0.347945
vt 0.424579 0.347944
vt 0.425158 0.347944
vt 0.437079 0.347944
vt 0.437658 0.347944
vt 0.449578 0.347944
vt 0.450158 0.347945
vt 0.462078 0.347944
vt 0.462658 0.347945
vt 0.474578 0.347944
vt 0.475158 0.347944
vt 0.487078 0.347945
vt 0.487658 0.347944
vt 0.499578 0.347944
vt 0.500158 0.347945
vt 0.512078 0.347944
vt 0.512658 0.347944
vt 0.524578 0.347944
vt 0.525158 0.347945
vt 0.537078 0.347945
vt 0.537658 0.347945
vt 0.549578 0.347944
vt 0.550158 0.347944
vt 0.562078 0.347944
vt 0.562658 0.347945
vt 0.574578 0.347945
vt 0.575158 0.347944
vt 0.587078 0.347944
vt 0.587658 0.347945
vt 0.599578 0.347944
vt 0.600158 0.347944
vt 0.612078 0.347944
vt 0.636093 0.111505
vt 0.615767 0.071614
vt 0.584110 0.039956
vt 0.544219 0.019631
vt 0.500000 0.012627
vt 0.455781 0.019631
vt 0.415890 0.039956
vt 0.384232 0.071614
vt 0.363907 0.111505
vt 0.356904 0.155724
vt 0.363907 0.199943
vt 0.384232 0.239834
vt 0.415890 0.271491
vt 0.455781 0.291817
vt 0.500000 0.298820
vt 0.544219 0.291817
vt 0.584110 0.271491
vt 0.615767 0.239834
vt 0.636093 0.199943
vt 0.500000 0.150000
vt 0.643096 0.155724
vt 0.648603 0.892034
vt 0.656250 0.843750
vt 0.626409 0.935592
vt 0.591841 0.970159
vt 0.548284 0.992353
vt 0.500000 1.000000
vt 0.451716 0.992353
vt 0.408159 0.970159
vt 0.373591 0.935591
vt 0.351397 0.892034
vt 0.343750 0.843750
vt 0.351397 0.795466
vt 0.373591 0.751908
vt 0.408159 0.717341
vt 0.451716 0.695147
vt 0.500000 0.687500
vt 0.548284 0.695147
vt 0.591842 0.717341
vt 0.626409 0.751908
vt 0.648603 0.795466
vt 0.601130 0.915975
vt 0.573475 0.943630
vt 0.538628 0.961385
vt 0.500000 0.967503
vt 0.461372 0.961385
vt 0.426525 0.943630
vt 0.398870 0.915975
vt 0.381115 0.881128
vt 0.374997 0.842500
vt 0.381115 0.803872
vt 0.398870 0.769025
vt 0.426525 0.741370
vt 0.461372 0.723615
vt 0.500000 0.717497
vt 0.538628 0.723615
vt 0.573475 0.741370
vt 0.601130 0.769025
vt 0.618885 0.803872
vt 0.625003 0.842500
vt 0.618885 0.881128
vt 0.500000 0.837500
vt 0.387500 0.350090
vt 0.375000 0.659720
vt 0.400000 0.350090
vt 0.387500 0.659720
vt 0.412500 0.350090
vt 0.400000 0.659720
vt 0.425000 0.350090
vt 0.412500 0.659720
vt 0.437500 0.350090
vt 0.425000 0.659720
vt 0.450000 0.350090
vt 0.437500 0.659720
vt 0.462500 0.350090
vt 0.450000 0.659720
vt 0.475000 0.350090
vt 0.462500 0.659720
vt 0.487500 0.350090
vt 0.475000 0.659720
vt 0.500000 0.350090
vt 0.487500 0.659720
vt 0.512500 0.350090
vt 0.500000 0.659720
vt 0.525000 0.350090
vt 0.512500 0.659720
vt 0.537500 0.350090
vt 0.525000 0.659720
vt 0.550000 0.350090
vt 0.537500 0.659720
vt 0.562500 0.350090
vt 0.550000 0.659720
vt 0.575000 0.350090
vt 0.562500 0.659720
vt 0.587500 0.350090
vt 0.575000 0.659720
vt 0.600000 0.350090
vt 0.587500 0.659720
vt 0.612500 0.350090
vt 0.600000 0.659720
vt 0.625000 0.350090
vt 0.625000 0.659720
vt 0.612500 0.659720
vn 0.714506 -0.659988 -0.232157
vn 0.714506 -0.659988 -0.232157
vn 0.607796 -0.659987 -0.441590
vn 0.607796 -0.659987 -0.441590
vn 0.751276 -0.659989 0.000002
vn 0.751276 -0.659989 0.000002
vn 0.441589 -0.659987 -0.607795
vn 0.441589 -0.659987 -0.607795
vn 0.232158 -0.659988 -0.714506
vn 0.232158 -0.659988 -0.714506
vn -0.000000 -0.659988 -0.751276
vn -0.000000 -0.659988 -0.751276
vn -0.232158 -0.659988 -0.714506
vn -0.232158 -0.659988 -0.714506
vn -0.441589 -0.659988 -0.607795
vn -0.441589 -0.659988 -0.607795
vn -0.607796 -0.659987 -0.441589
vn -0.607796 -0.659987 -0.441589
vn -0.714507 -0.659987 -0.232158
vn -0.714507 -0.659987 -0.232158
vn -0.751276 -0.659988 0.000000
vn -0.751276 -0.659988 -0.000000
vn -0.714506 -0.659987 0.232158
vn -0.714506 -0.659987 0.232158
vn -0.607796 -0.659986 0.441590
vn -0.607796 -0.659987 0.441590
vn -0.441589 -0.659987 0.607796
vn -0.441589 -0.659987 0.607796
vn -0.232158 -0.659987 0.714507
vn -0.232158 -0.659987 0.714507
vn 0.000000 -0.659988 0.751276
vn 0.000000 -0.659988 0.751276
vn 0.232158 -0.659987 0.714506
vn 0.232158 -0.659987 0.714506
vn 0.441589 -0.659988 0.607796
vn 0.441589 -0.659988 0.607796
vn 0.607795 -0.659988 0.441589
vn 0.607795 -0.659988 0.441589
vn 0.714505 -0.659989 0.232158
vn 0.714505 -0.659989 0.232158
vn -0.415552 -0.857999 0.301917
vn -0.488511 -0.858000 0.158727
vn 0.000000 -1.000000 0.000000
vn -0.301916 -0.857999 0.415552
vn -0.158727 -0.857999 0.488511
vn 0.000000 -0.857999 0.513651
vn 0.158727 -0.857999 0.488511
vn 0.301916 -0.857999 0.415553
vn 0.415553 -0.857999 0.301916
vn 0.488511 -0.857999 0.158727
vn 0.513651 -0.857999 0.000000
vn 0.488511 -0.857999 -0.158727
vn 0.415552 -0.857999 -0.301917
vn 0.301916 -0.857999 -0.415553
vn 0.158727 -0.857999 -0.488511
vn -0.000000 -0.857999 -0.513651
vn -0.158727 -0.857999 -0.488511
vn -0.301916 -0.857999 -0.415553
vn -0.415553 -0.857999 -0.301917
vn -0.488511 -0.857999 -0.158727
vn -0.513651 -0.857999 -0.000001
vn 0.234378 0.969158 -0.076154
vn 0.713089 0.661681 -0.231697
vn 0.606589 0.661680 -0.440714
vn 0.199374 0.969158 -0.144854
vn 0.246440 0.969158 0.000000
vn 0.749786 0.661680 0.000002
vn 0.440713 0.661680 -0.606590
vn 0.144854 0.969158 -0.199374
vn 0.231697 0.661680 -0.713089
vn 0.076154 0.969158 -0.234378
vn -0.000000 0.661680 -0.749786
vn 0.000000 0.969158 -0.246440
vn -0.231697 0.661680 -0.713089
vn -0.076154 0.969158 -0.234378
vn -0.440713 0.661680 -0.606590
vn -0.144854 0.969158 -0.199374
vn -0.606590 0.661680 -0.440713
vn -0.199374 0.969158 -0.144854
vn -0.713089 0.661680 -0.231697
vn -0.234378 0.969158 -0.076154
vn -0.749786 0.661680 -0.000000
vn -0.246440 0.969158 -0.000000
vn -0.713089 0.661680 0.231697
vn -0.234378 0.969158 0.076154
vn -0.606590 0.661680 0.440713
vn -0.199374 0.969158 0.144854
vn -0.440713 0.661680 0.606590
vn -0.144854 0.969158 0.199374
vn -0.231697 0.661680 0.713089
vn -0.076154 0.969158 0.234378
vn 0.000000 0.661680 0.749786
vn 0.000000 0.969158 0.246440
vn 0.231697 0.661680 0.713089
vn 0.076154 0.969158 0.234378
vn 0.440713 0.661680 0.606590
vn 0.144854 0.969158 0.199374
vn 0.606590 0.661680 0.440713
vn 0.199374 0.969158 0.144854
vn 0.713089 0.661680 0.231697
vn 0.234378 0.969158 0.076154
vn 0.000000 1.000000 0.000000
vn 0.732008 0.638432 -0.237844
vn 0.622683 0.638431 -0.452406
vn 0.452406 0.638431 -0.622683
vn 0.237844 0.638431 -0.732008
vn -0.000000 0.638431 -0.769679
vn -0.237844 0.638431 -0.732008
vn -0.452406 0.638431 -0.622684
vn -0.622684 0.638431 -0.452406
vn -0.732008 0.638431 -0.237844
vn -0.769679 0.638431 0.000000
vn -0.732008 0.638431 0.237844
vn -0.622683 0.638431 0.452406
vn -0.452406 0.638431 0.622684
vn -0.237844 0.638431 0.732008
vn 0.000000 0.638431 0.769679
vn 0.237844 0.638431 0.732008
vn 0.452406 0.638431 0.622684
vn 0.622684 0.638431 0.452406
vn 0.732008 0.638431 0.237844
vn 0.769679 0.638431 0.000002
s 1
g pCylinder1
usemtl initialShadingGroup
f 3/1/1 4/2/2 6/3/3 5/104/4
f 4/4/2 3/142/1 41/140/5 42/5/6
f 5/104/4 6/6/3 8/7/7 7/106/8
f 7/106/8 8/8/7 10/9/9 9/108/10
f 9/108/10 10/10/9 12/11/11 11/110/12
f 11/110/12 12/12/11 14/13/13 13/112/14
f 13/112/14 14/14/13 16/15/15 15/114/16
f 15/114/16 16/16/15 18/17/17 17/116/18
f 17/116/18 18/18/17 20/19/19 19/118/20
f 19/118/20 20/20/19 22/21/21 21/120/22
f 21/120/22 22/22/21 24/23/23 23/122/24
f 23/122/24 24/24/23 26/25/25 25/124/26
f 25/124/26 26/26/25 28/27/27 27/126/28
f 27/126/28 28/28/27 30/29/29 29/128/30
f 29/128/30 30/30/29 32/31/31 31/130/32
f 31/130/32 32/32/31 34/33/33 33/132/34
f 33/132/34 34/34/33 36/35/35 35/134/36
f 35/134/36 36/36/35 38/37/37 37/136/38
f 37/136/38 38/38/37 40/39/39 39/138/40
f 39/138/40 40/40/39 42/41/6 41/140/5
s 2
f 6/43/41 4/42/42 1/61/43
f 8/44/44 6/43/41 1/61/43
f 10/45/45 8/44/44 1/61/43
f 12/46/46 10/45/45 1/61/43
f 14/47/47 12/46/46 1/61/43
f 16/48/48 14/47/47 1/61/43
f 18/49/49 16/48/48 1/61/43
f 20/50/50 18/49/49 1/61/43
f 22/51/51 20/50/50 1/61/43
f 24/52/52 22/51/51 1/61/43
f 26/53/53 24/52/52 1/61/43
f 28/54/54 26/53/53 1/61/43
f 30/55/55 28/54/54 1/61/43
f 32/56/56 30/55/55 1/61/43
f 34/57/57 32/56/56 1/61/43
f 36/58/58 34/57/57 1/61/43
f 38/59/59 36/58/58 1/61/43
f 40/60/60 38/59/59 1/61/43
f 42/62/61 40/60/60 1/61/43
f 4/42/42 42/62/61 1/61/43
s 3
f 43/102/62 44/63/63 46/65/64 45/83/65
f 44/63/63 43/102/62 81/101/66 82/64/67
f 45/83/65 46/65/64 48/66/68 47/84/69
f 47/84/69 48/66/68 50/67/70 49/85/71
f 49/85/71 50/67/70 52/68/72 51/86/73
f 51/86/73 52/68/72 54/69/74 53/87/75
f 53/87/75 54/69/74 56/70/76 55/88/77
f 55/88/77 56/70/76 58/71/78 57/89/79
f 57/89/79 58/71/78 60/72/80 59/90/81
f 59/90/81 60/72/80 62/73/82 61/91/83
f 61/91/83 62/73/82 64/74/84 63/92/85
f 63/92/85 64/74/84 66/75/86 65/93/87
f 65/93/87 66/75/86 68/76/88 67/94/89
f 67/94/89 68/76/88 70/77/90 69/95/91
f 69/95/91 70/77/90 72/78/92 71/96/93
f 71/96/93 72/78/92 74/79/94 73/97/95
f 73/97/95 74/79/94 76/80/96 75/98/97
f 75/98/97 76/80/96 78/81/98 77/99/99
f 77/99/99 78/81/98 80/82/100 79/100/101
f 79/100/101 80/82/100 82/64/67 81/101/66
f 43/102/62 45/83/65 2/103/102
f 45/83/65 47/84/69 2/103/102
f 47/84/69 49/85/71 2/103/102
f 49/85/71 51/86/73 2/103/102
f 51/86/73 53/87/75 2/103/102
f 53/87/75 55/88/77 2/103/102
f 55/88/77 57/89/79 2/103/102
f 57/89/79 59/90/81 2/103/102
f 59/90/81 61/91/83 2/103/102
f 61/91/83 63/92/85 2/103/102
f 63/92/85 65/93/87 2/103/102
f 65/93/87 67/94/89 2/103/102
f 67/94/89 69/95/91 2/103/102
f 69/95/91 71/96/93 2/103/102
f 71/96/93 73/97/95 2/103/102
f 73/97/95 75/98/97 2/103/102
f 75/98/97 77/99/99 2/103/102
f 77/99/99 79/100/101 2/103/102
f 79/100/101 81/101/66 2/103/102
f 81/101/66 43/102/62 2/103/102
f 3/1/103 5/104/104 46/107/64 44/105/63
f 5/104/104 7/106/105 48/109/68 46/107/64
f 7/106/105 9/108/106 50/111/70 48/109/68
f 9/108/106 11/110/107 52/113/72 50/111/70
f 11/110/107 13/112/108 54/115/74 52/113/72
f 13/112/108 15/114/109 56/117/76 54/115/74
f 15/114/109 17/116/110 58/119/78 56/117/76
f 17/116/110 19/118/111 60/121/80 58/119/78
f 19/118/111 21/120/112 62/123/82 60/121/80
f 21/120/112 23/122/113 64/125/84 62/123/82
f 23/122/113 25/124/114 66/127/86 64/125/84
f 25/124/114 27/126/115 68/129/88 66/127/86
f 27/126/115 29/128/116 70/131/90 68/129/88
f 29/128/116 31/130/117 72/133/92 70/131/90
f 31/130/117 33/132/118 74/135/94 72/133/92
f 33/132/118 35/134/119 76/137/96 74/135/94
f 35/134/119 37/136/120 78/139/98 76/137/96
f 37/136/120 39/138/121 80/141/100 78/139/98
f 39/138/121 41/140/122 82/144/67 80/141/100
f 41/140/122 3/142/103 44/143/63 82/144/67
g default
v 0.270397 1.914449 -0.087857
v 0.230014 1.914449 -0.167115
v 0.167115 1.914449 -0.230014
v 0.087857 1.914449 -0.270397
v 0.000000 1.914449 -0.284312
v -0.087857 1.914449 -0.270397
v -0.167115 1.914449 -0.230013
v -0.230013 1.914449 -0.167115
v -0.270397 1.914449 -0.087857
v -0.284312 1.914449 0.000000
v -0.270397 1.914449 0.087857
v -0.230013 1.914449 0.167115
v -0.167115 1.914449 0.230013
v -0.087857 1.914449 0.270397
v -0.000000 1.914449 0.284312
v 0.087857 1.914449 0.270397
v 0.167115 1.914449 0.230013
v 0.230013 1.914449 0.167115
v 0.270397 1.914449 0.087857
v 0.284312 1.914449 0.000000
v 0.270397 7.227396 -0.087857
v 0.230014 7.227396 -0.167115
v 0.167115 7.227396 -0.230014
v 0.087857 7.227396 -0.270397
v 0.000000 7.227396 -0.284312
v -0.087857 7.227396 -0.270397
v -0.167115 7.227396 -0.230013
v -0.230013 7.227396 -0.167115
v -0.270397 7.227396 -0.087857
v -0.284312 7.227396 0.000000
v -0.270397 7.227396 0.087857
v -0.230013 7.227396 0.167115
v -0.167115 7.227396 0.230013
v -0.087857 7.227396 0.270397
v -0.000000 7.227396 0.284312
v 0.087857 7.227396 0.270397
v 0.167115 7.227396 0.230013
v 0.230013 7.227396 0.167115
v 0.270397 7.227396 0.087857
v 0.284312 7.227396 0.000000
v 0.000000 1.914449 0.000000
v 0.000000 7.227396 0.000000
vt 0.648603 0.107966
vt 0.626409 0.064408
vt 0.591842 0.029841
vt 0.548284 0.007647
vt 0.500000 -0.000000
vt 0.451716 0.007647
vt 0.408159 0.029841
vt 0.373591 0.064409
vt 0.351397 0.107966
vt 0.343750 0.156250
vt 0.351397 0.204534
vt 0.373591 0.248091
vt 0.408159 0.282659
vt 0.451716 0.304853
vt 0.500000 0.312500
vt 0.548284 0.304853
vt 0.591841 0.282659
vt 0.626409 0.248091
vt 0.648603 0.204534
vt 0.656250 0.156250
vt 0.375000 0.312500
vt 0.387500 0.312500
vt 0.400000 0.312500
vt 0.412500 0.312500
vt 0.425000 0.312500
vt 0.437500 0.312500
vt 0.450000 0.312500
vt 0.462500 0.312500
vt 0.475000 0.312500
vt 0.487500 0.312500
vt 0.500000 0.312500
vt 0.512500 0.312500
vt 0.525000 0.312500
vt 0.537500 0.312500
vt 0.550000 0.312500
vt 0.562500 0.312500
vt 0.575000 0.312500
vt 0.587500 0.312500
vt 0.600000 0.312500
vt 0.612500 0.312500
vt 0.625000 0.312500
vt 0.375000 0.688440
vt 0.387500 0.688440
vt 0.400000 0.688440
vt 0.412500 0.688440
vt 0.425000 0.688440
vt 0.437500 0.688440
vt 0.450000 0.688440
vt 0.462500 0.688440
vt 0.475000 0.688440
vt 0.487500 0.688440
vt 0.500000 0.688440
vt 0.512500 0.688440
vt 0.525000 0.688440
vt 0.537500 0.688440
vt 0.550000 0.688440
vt 0.562500 0.688440
vt 0.575000 0.688440
vt 0.587500 0.688440
vt 0.600000 0.688440
vt 0.612500 0.688440
vt 0.625000 0.688440
vt 0.648603 0.795466
vt 0.626409 0.751908
vt 0.591842 0.717341
vt 0.548284 0.695147
vt 0.500000 0.687500
vt 0.451716 0.695147
vt 0.408159 0.717341
vt 0.373591 0.751909
vt 0.351397 0.795466
vt 0.343750 0.843750
vt 0.351397 0.892034
vt 0.373591 0.935591
vt 0.408159 0.970159
vt 0.451716 0.992353
vt 0.500000 1.000000
vt 0.548284 0.992353
vt 0.591841 0.970159
vt 0.626409 0.935591
vt 0.648603 0.892034
vt 0.656250 0.843750
vt 0.500000 0.150000
vt 0.500000 0.837500
vn 0.951057 0.000000 -0.309016
vn 0.809017 0.000000 -0.587785
vn 0.809017 0.000000 -0.587785
vn 0.951057 0.000000 -0.309016
vn 0.587785 0.000000 -0.809017
vn 0.587785 0.000000 -0.809017
vn 0.309017 0.000000 -0.951057
vn 0.309017 0.000000 -0.951057
vn -0.000000 0.000000 -1.000000
vn -0.000000 0.000000 -1.000000
vn -0.309017 0.000000 -0.951057
vn -0.309017 0.000000 -0.951057
vn -0.587785 0.000000 -0.809017
vn -0.587785 0.000000 -0.809017
vn -0.809017 0.000000 -0.587785
vn -0.809017 0.000000 -0.587785
vn -0.951057 0.000000 -0.309017
vn -0.951057 0.000000 -0.309017
vn -1.000000 0.000000 0.000000
vn -1.000000 0.000000 0.000000
vn -0.951057 0.000000 0.309017
vn -0.951057 0.000000 0.309017
vn -0.809017 0.000000 0.587785
vn -0.809017 0.000000 0.587785
vn -0.587785 0.000000 0.809017
vn -0.587785 0.000000 0.809017
vn -0.309017 0.000000 0.951057
vn -0.309017 0.000000 0.951057
vn 0.000000 0.000000 1.000000
vn 0.000000 0.000000 1.000000
vn 0.309017 0.000000 0.951057
vn 0.309017 0.000000 0.951057
vn 0.587785 0.000000 0.809017
vn 0.587785 0.000000 0.809017
vn 0.809017 0.000000 0.587785
vn 0.809017 0.000000 0.587785
vn 0.951057 0.000000 0.309017
vn 0.951057 0.000000 0.309017
vn 1.000000 0.000000 0.000001
vn 1.000000 0.000000 0.000001
vn 0.000000 -1.000000 0.000000
vn 0.000000 -1.000000 0.000000
vn 0.000000 -1.000000 0.000000
vn 0.000000 -1.000000 0.000000
vn 0.000000 -1.000000 0.000000
vn 0.000000 -1.000000 0.000000
vn 0.000000 -1.000000 0.000000
vn 0.000000 -1.000000 0.000000
vn 0.000000 -1.000000 0.000000
vn 0.000000 -1.000000 0.000000
vn 0.000000 -1.000000 0.000000
vn 0.000000 -1.000000 0.000000
vn 0.000000 -1.000000 0.000000
vn 0.000000 -1.000000 0.000000
vn 0.000000 -1.000000 0.000000
vn 0.000000 -1.000000 0.000000
vn 0.000000 -1.000000 0.000000
vn 0.000000 -1.000000 0.000000
vn 0.000000 -1.000000 0.000000
vn 0.000000 -1.000000 0.000000
vn 0.000000 -1.000000 0.000000
vn 0.000000 1.000000 0.000000
vn 0.000000 1.000000 0.000000
vn 0.000000 1.000000 0.000000
vn 0.000000 1.000000 0.000000
vn 0.000000 1.000000 0.000000
vn 0.000000 1.000000 0.000000
vn 0.000000 1.000000 0.000000
vn 0.000000 1.000000 0.000000
vn 0.000000 1.000000 0.000000
vn 0.000000 1.000000 0.000000
vn 0.000000 1.000000 0.000000
vn 0.000000 1.000000 0.000000
vn 0.000000 1.000000 0.000000
vn 0.000000 1.000000 0.000000
vn 0.000000 1.000000 0.000000
vn 0.000000 1.000000 0.000000
vn 0.000000 1.000000 0.000000
vn 0.000000 1.000000 0.000000
vn 0.000000 1.000000 0.000000
vn 0.000000 1.000000 0.000000
vn 0.000000 1.000000 0.000000
s 1
g pCylinder2
usemtl initialShadingGroup
f 83/165/123 84/166/124 104/187/125 103/186/126
f 84/166/124 85/167/127 105/188/128 104/187/125
f 85/167/127 86/168/129 106/189/130 105/188/128
f 86/168/129 87/169/131 107/190/132 106/189/130
f 87/169/131 88/170/133 108/191/134 107/190/132
f 88/170/133 89/171/135 109/192/136 108/191/134
f 89/171/135 90/172/137 110/193/138 109/192/136
f 90/172/137 91/173/139 111/194/140 110/193/138
f 91/173/139 92/174/141 112/195/142 111/194/140
f 92/174/141 93/175/143 113/196/144 112/195/142
f 93/175/143 94/176/145 114/197/146 113/196/144
f 94/176/145 95/177/147 115/198/148 114/197/146
f 95/177/147 96/178/149 116/199/150 115/198/148
f 96/178/149 97/179/151 117/200/152 116/199/150
f 97/179/151 98/180/153 118/201/154 117/200/152
f 98/180/153 99/181/155 119/202/156 118/201/154
f 99/181/155 100/182/157 120/203/158 119/202/156
f 100/182/157 101/183/159 121/204/160 120/203/158
f 101/183/159 102/184/161 122/205/162 121/204/160
f 102/184/161 83/185/123 103/206/126 122/205/162
s 2
f 84/146/163 83/145/164 123/227/165
f 85/147/166 84/146/163 123/227/165
f 86/148/167 85/147/166 123/227/165
f 87/149/168 86/148/167 123/227/165
f 88/150/169 87/149/168 123/227/165
f 89/151/170 88/150/169 123/227/165
f 90/152/171 89/151/170 123/227/165
f 91/153/172 90/152/171 123/227/165
f 92/154/173 91/153/172 123/227/165
f 93/155/174 92/154/173 123/227/165
f 94/156/175 93/155/174 123/227/165
f 95/157/176 94/156/175 123/227/165
f 96/158/177 95/157/176 123/227/165
f 97/159/178 96/158/177 123/227/165
f 98/160/179 97/159/178 123/227/165
f 99/161/180 98/160/179 123/227/165
f 100/162/181 99/161/180 123/227/165
f 101/163/182 100/162/181 123/227/165
f 102/164/183 101/163/182 123/227/165
f 83/145/164 102/164/183 123/227/165
s 3
f 103/225/184 104/224/185 124/228/186
f 104/224/185 105/223/187 124/228/186
f 105/223/187 106/222/188 124/228/186
f 106/222/188 107/221/189 124/228/186
f 107/221/189 108/220/190 124/228/186
f 108/220/190 109/219/191 124/228/186
f 109/219/191 110/218/192 124/228/186
f 110/218/192 111/217/193 124/228/186
f 111/217/193 112/216/194 124/228/186
f 112/216/194 113/215/195 124/228/186
f 113/215/195 114/214/196 124/228/186
f 114/214/196 115/213/197 124/228/186
f 115/213/197 116/212/198 124/228/186
f 116/212/198 117/211/199 124/228/186
f 117/211/199 118/210/200 124/228/186
f 118/210/200 119/209/201 124/228/186
f 119/209/201 120/208/202 124/228/186
f 120/208/202 121/207/203 124/228/186
f 121/207/203 122/226/204 124/228/186
f 122/226/204 103/225/184 124/228/186
