# This file uses centimeters as units for non-parametric coordinates.

mtllib Diner_Booth.mtl
g default
v -2.979891 0.500775 2.042084
v 2.979891 0.500775 2.042084
v -3.564539 1.005796 2.647926
v 3.538137 1.005796 2.647926
v -3.564539 1.005796 -2.042084
v 3.538137 1.005796 -2.042084
v -2.979891 0.500775 -2.042084
v 2.979891 0.500775 -2.042084
v 3.538137 1.819115 -2.042084
v -3.564539 1.819115 -2.042084
v -3.564539 2.110254 -0.946496
v -3.303919 1.819115 -0.945980
v -3.403693 1.819115 -0.966055
v -3.488237 1.819115 -1.022836
v -3.544711 1.819115 -1.107700
v -3.564539 1.819115 -1.207759
v -3.564539 1.819115 -0.655357
v -3.403493 6.017010 -1.502278
v -3.488128 5.960455 -1.498646
v -3.544680 5.875822 -1.492982
v -3.564539 5.775998 -1.486150
v -3.544710 5.776154 -1.386010
v -3.488235 5.776379 -1.301080
v -3.403692 5.776640 -1.244259
v -3.303919 5.776897 -1.224175
v -3.303860 5.877726 -1.250774
v -3.303790 5.961802 -1.312506
v -3.303721 6.017431 -1.400784
v -3.303661 6.036876 -1.503328
v 3.538137 2.110254 -0.932417
v 3.538137 1.819115 -0.641278
v 3.538137 1.819115 -1.194197
v 3.518249 1.819115 -1.094097
v 3.461620 1.819115 -1.009274
v 3.376894 1.819115 -0.952673
v 3.277001 1.819115 -0.932935
v 3.518279 5.875828 -1.478977
v 3.461730 5.960460 -1.484863
v 3.377095 6.017012 -1.488833
v 3.277259 6.036876 -1.490282
v 3.279383 6.018076 -1.387779
v 3.281758 5.964257 -1.299592
v 3.284054 5.882914 -1.238048
v 3.285951 5.785311 -1.211704
v 3.382441 5.783249 -1.231361
v 3.464275 5.780755 -1.287764
v 3.518956 5.778208 -1.372303
v 3.538137 5.775998 -1.472071
v 3.277259 6.036876 -2.042084
v 3.377093 6.017018 -2.042084
v 3.461728 5.960467 -2.042084
v 3.518279 5.875832 -2.042084
v 3.538137 5.775998 -2.042084
v -3.544681 5.875832 -2.042084
v -3.488130 5.960467 -2.042084
v -3.403495 6.017018 -2.042084
v -3.303661 6.036876 -2.042084
v -3.564539 5.775998 -2.042084
v -3.564539 1.964684 -0.946496
v -3.564539 1.819115 -0.800926
v -3.564539 1.819115 -0.946496
v -3.393751 6.003924 -1.410109
v -3.479901 5.952454 -1.420862
v -3.531293 5.866326 -1.401856
v -3.479969 5.853356 -1.314505
v -3.393870 5.867591 -1.263762
v -3.380222 5.953374 -1.320482
v -3.454301 5.927399 -1.344806
v 3.538137 1.819115 -0.786848
v 3.538137 1.964684 -0.932417
v 3.538137 1.819115 -0.932417
v 3.505444 5.867645 -1.388106
v 3.454134 5.953091 -1.407225
v 3.368666 6.004476 -1.396776
v 3.356877 5.955528 -1.307300
v 3.371758 5.871934 -1.250703
v 3.455700 5.856444 -1.301089
v 3.429716 5.929235 -1.331363
v -3.545035 2.328659 2.628421
v -3.491747 2.381947 2.575133
v -3.418955 2.401451 2.502341
v 3.392553 2.401451 2.502341
v 3.465345 2.381947 2.575133
v 3.518632 2.328659 2.628421
v 3.392553 2.401451 -0.787121
v 3.465345 2.381947 -0.859769
v 3.518632 2.328659 -0.912951
v 3.538137 2.255867 -0.932417
v -3.418955 2.401451 -0.800623
v -3.491747 2.381947 -0.873560
v -3.545035 2.328659 -0.926953
v -3.564539 2.255867 -0.946496
v 3.483099 1.819115 2.647926
v 3.538137 1.780197 2.647926
v 3.538137 1.819115 2.592887
v 3.538137 2.255867 2.592887
v 3.528386 2.292259 2.638174
v 3.483099 2.255867 2.647926
v -3.564539 1.819115 2.592887
v -3.564539 1.780197 2.647926
v -3.509502 1.819115 2.647926
v -3.509502 2.255867 2.647926
v -3.554787 2.292259 2.638174
v -3.564539 2.255867 2.592887
vt 0.375000 0.000000
vt 0.625000 0.000000
vt 0.375000 0.500000
vt 0.375000 0.750000
vt 0.625000 0.750000
vt 0.375000 1.000000
vt 0.625000 1.000000
vt 0.875000 0.000000
vt 0.875000 0.250000
vt 0.125000 0.000000
vt 0.125000 0.250000
vt 0.384174 0.415971
vt 0.375000 0.500000
vt 0.384182 0.500000
vt 0.384173 0.415971
vt 0.616124 0.415274
vt 0.625000 0.435242
vt 0.615818 0.500000
vt 0.625000 0.440593
vt 0.625000 0.500000
vt 0.384182 0.443394
vt 0.615818 0.442491
vt 0.615809 0.415275
vt 0.375000 0.500000
vt 0.375000 0.436030
vt 0.375000 0.441561
vt 0.379937 0.415942
vt 0.375000 0.415998
vt 0.375002 0.426006
vt 0.382901 0.445553
vt 0.379131 0.442690
vt 0.378023 0.443313
vt 0.377676 0.434116
vt 0.380149 0.427218
vt 0.382289 0.421242
vt 0.384759 0.425300
vt 0.384546 0.432776
vt 0.384542 0.439839
vt 0.624981 0.425188
vt 0.625000 0.415248
vt 0.620064 0.415232
vt 0.622093 0.441839
vt 0.621246 0.440643
vt 0.617255 0.444165
vt 0.615570 0.438882
vt 0.615852 0.431312
vt 0.615601 0.424225
vt 0.617919 0.420410
vt 0.619978 0.426283
vt 0.622382 0.433136
vt 0.620184 0.499381
vt 0.625000 0.500000
vt 0.623944 0.497409
vt 0.375782 0.497405
vt 0.375000 0.500000
vt 0.380272 0.499586
vt 0.376703 0.414218
vt 0.375011 0.409864
vt 0.375017 0.416671
vt 0.383172 0.440157
vt 0.378538 0.433421
vt 0.378518 0.434722
vt 0.380721 0.429939
vt 0.382373 0.425399
vt 0.381158 0.428121
vt 0.375000 0.415998
vt 0.624765 0.408945
vt 0.622930 0.413543
vt 0.623320 0.412799
vt 0.621414 0.433777
vt 0.622416 0.429656
vt 0.616808 0.439762
vt 0.619213 0.426406
vt 0.617989 0.423830
vt 0.619392 0.428516
vt 0.625000 0.415248
vt 0.380124 0.256721
vt 0.619876 0.256719
vt 0.619876 0.408542
vt 0.375000 0.415998
vt 0.380124 0.409259
vt 0.377293 0.253042
vt 0.621318 0.254880
vt 0.621983 0.411257
vt 0.625021 0.415288
vt 0.378684 0.411116
vt 0.377059 0.413287
vt 0.625000 0.500000
vt 0.625000 0.500000
vt 0.625000 0.401810
vt 0.622939 0.252711
vt 0.375000 0.250000
vt 0.625000 0.250000
vt 0.376270 0.251665
vt 0.625000 0.415248
vt 0.625000 0.415248
vt 0.375000 0.402553
vt 0.375000 0.415998
vt 0.623063 0.250000
vt 0.625000 0.252540
vt 0.375000 0.252542
vt 0.376937 0.250000
vt 0.625000 0.250000
vt 0.625000 0.252540
vt 0.623970 0.251355
vt 0.623063 0.250000
vt 0.375000 0.250000
vt 0.376937 0.250000
vt 0.375635 0.250835
vt 0.375000 0.252542
vn 0.000000 -0.768126 0.640299
vn 0.000000 -0.768126 0.640299
vn 0.000000 -0.374326 0.927297
vn 0.000000 -0.373075 0.927801
vn 0.000000 0.000000 -1.000000
vn 0.000000 0.000000 -1.000000
vn 0.000000 0.000000 -1.000000
vn 0.000000 0.000000 -1.000000
vn 0.000000 -1.000000 0.000000
vn 0.000000 -1.000000 0.000000
vn 0.000000 -1.000000 0.000000
vn 0.000000 -1.000000 0.000000
vn 0.670870 -0.741575 0.000000
vn 0.670870 -0.741575 0.000000
vn 0.926477 -0.376351 0.000000
vn 0.941787 -0.336210 0.000000
vn -0.653692 -0.756761 0.000000
vn -0.653692 -0.756761 0.000000
vn -0.936649 -0.350268 0.000000
vn -0.920188 -0.391475 0.000000
vn 0.000000 0.000000 1.000000
vn 0.000000 0.000000 1.000000
vn 0.000000 0.000000 1.000000
vn 0.000000 0.000000 1.000000
vn 1.000000 -0.000000 0.000000
vn 0.999974 0.000505 0.007236
vn 1.000000 0.000000 0.000000
vn 1.000000 0.000000 0.000000
vn 1.000000 0.000000 0.000000
vn 0.000000 0.000000 -1.000000
vn 0.000000 0.000000 -1.000000
vn -1.000000 0.000000 0.000000
vn -1.000000 0.000000 0.000000
vn -1.000000 0.000000 0.000000
vn -0.999973 0.000519 0.007380
vn -1.000000 0.000000 0.000000
vn -0.923336 0.026939 0.383048
vn -0.924579 0.030466 0.379771
vn -0.999682 0.005596 0.024572
vn -0.706734 0.049622 0.705737
vn -0.708037 0.052940 0.704188
vn -0.383238 0.064772 0.921376
vn -0.383093 0.068448 0.921170
vn -0.004933 0.070117 0.997527
vn -0.004904 0.074827 0.997184
vn -0.922588 0.385075 0.023428
vn -0.924302 0.381662 0.000007
vn -0.999992 0.003911 0.000000
vn -0.702951 0.710897 0.022040
vn -0.707699 0.706514 0.000015
vn -0.373941 0.927155 0.023477
vn -0.383102 0.923706 0.000013
vn -0.002821 0.999567 0.029281
vn -0.002941 0.999996 0.000001
vn -0.002964 0.932910 0.360097
vn 0.001298 0.932487 0.361202
vn 0.002759 0.999558 0.029590
vn -0.003659 0.737356 0.675494
vn 0.000477 0.737289 0.675577
vn -0.004260 0.435834 0.900017
vn 0.000171 0.436567 0.899672
vn 0.000793 0.074911 0.997190
vn 0.000995 0.070112 0.997539
vn 0.385969 0.064213 0.920274
vn 0.373501 0.068281 0.925113
vn 0.711062 0.048828 0.701432
vn 0.703310 0.052792 0.708920
vn 0.925134 0.026388 0.378722
vn 0.922208 0.030604 0.385481
vn 0.999676 0.005567 0.024843
vn 0.374660 0.926910 0.021616
vn 0.383141 0.923690 0.000006
vn 0.003012 0.999996 0.000001
vn 0.703561 0.710356 0.019932
vn 0.707725 0.706488 0.000005
vn 0.923007 0.384183 0.021456
vn 0.924309 0.381644 0.000001
vn 0.999992 0.003931 0.000000
vn 0.000000 0.000000 -1.000000
vn 0.000000 0.000000 -1.000000
vn 0.000000 0.000000 -1.000000
vn 0.000000 0.000000 -1.000000
vn 0.000000 0.000000 -1.000000
vn 0.000000 0.000000 -1.000000
vn 0.000000 0.000000 -1.000000
vn 0.000000 0.000000 -1.000000
vn 0.000000 0.000000 -1.000000
vn 0.000000 0.000000 -1.000000
vn 0.002376 0.000706 -0.999997
vn 0.008151 0.193866 -0.980994
vn 0.051875 0.107859 -0.992812
vn 0.002006 0.000043 -0.999998
vn -1.000000 0.000001 0.000000
vn -1.000000 0.000000 0.000000
vn -1.000000 0.000000 0.000000
vn 0.000000 0.000000 0.000000
vn 0.000000 1.000000 0.000000
vn 0.000000 1.000000 0.000000
vn 0.000000 1.000000 0.000000
vn -0.109776 0.415888 -0.902766
vn -0.109776 0.415888 -0.902766
vn -1.000000 0.000000 0.000000
vn 0.000000 1.000000 0.000001
vn 0.000000 1.000000 0.000001
vn -0.323014 0.890436 0.320601
vn -0.644162 0.699761 0.308853
vn -0.871091 0.362331 0.331537
vn -0.674451 0.306753 0.671579
vn -0.331447 0.386102 0.860853
vn -0.312589 0.708742 0.632434
vn -0.589981 0.556483 0.585020
vn 0.000000 1.000000 0.000000
vn 0.000000 1.000000 0.000000
vn 0.000000 1.000000 0.000000
vn 0.000000 0.000000 0.000000
vn 1.000000 0.000000 0.000000
vn 1.000000 0.000000 0.000000
vn 1.000000 0.000001 0.000000
vn 0.001958 0.000043 -0.999998
vn -0.047990 0.108257 -0.992964
vn -0.004276 0.194445 -0.980904
vn 0.001587 0.000709 -0.999998
vn 0.000000 1.000000 0.000000
vn 0.000000 1.000000 0.000000
vn 1.000000 0.000000 0.000000
vn 0.113311 0.416659 -0.901973
vn 0.113311 0.416659 -0.901973
vn 0.874914 0.364900 0.318393
vn 0.647148 0.703442 0.293884
vn 0.324631 0.894507 0.307364
vn 0.318304 0.718873 0.617984
vn 0.339800 0.396279 0.852936
vn 0.684826 0.313425 0.657859
vn 0.597127 0.564938 0.569459
vn -0.003987 0.999965 0.007307
vn -0.074027 0.979303 0.188374
vn 0.073811 0.979279 0.188585
vn 0.003971 0.999965 0.007308
vn 0.000000 0.707108 0.707106
vn 0.000000 0.707108 0.707106
vn 0.000000 0.707108 0.707106
vn 0.000000 0.707108 0.707106
vn 0.000000 0.258819 0.965926
vn 0.000000 0.258819 0.965926
vn 0.000000 0.042773 0.999085
vn 0.000000 0.042773 0.999085
vn 0.000000 0.258819 0.965926
vn 0.000000 0.258819 0.965926
vn 0.003977 0.999965 -0.007289
vn -0.003981 0.999965 -0.007326
vn 0.998964 0.045517 0.000000
vn 0.999279 0.037978 0.000000
vn -0.998964 0.045510 0.000000
vn -0.999279 0.037967 0.000000
vn 0.001981 0.038021 -0.999275
vn 0.001981 0.038029 -0.999275
vn 0.965925 0.258822 0.000000
vn 0.965925 0.258822 0.000000
vn 0.965925 0.258822 0.000000
vn 0.074163 0.979250 -0.188598
vn 0.707109 0.707104 0.000000
vn 0.707109 0.707104 0.000000
vn 0.707109 0.707104 0.000000
vn 0.707109 0.707104 0.000000
vn 0.001736 0.482951 -0.875646
vn 0.001736 0.482813 -0.875722
vn -0.073675 0.979333 -0.188361
vn 0.001402 0.707107 -0.707105
vn 0.001402 0.707107 -0.707105
vn -0.707106 0.707107 0.000000
vn -0.707106 0.707107 0.000000
vn -0.707106 0.707107 0.000000
vn -0.707106 0.707107 0.000000
vn -0.965926 0.258818 0.000000
vn -0.965926 0.258818 0.000000
vn -0.965926 0.258818 0.000000
vn 0.707107 0.000000 0.707106
vn 0.707107 0.000000 0.707106
vn 0.707107 0.000000 0.707106
vn 0.707107 0.000000 0.707106
vn -0.707110 0.000000 0.707104
vn -0.707110 0.000000 0.707104
vn -0.707110 0.000000 0.707104
vn -0.707110 0.000000 0.707104
vn 0.500001 0.707108 0.499998
vn 0.500001 0.707108 0.499998
vn 0.500001 0.707108 0.499998
vn 0.581875 -0.568189 0.581879
vn 0.581875 -0.568189 0.581879
vn 0.581875 -0.568189 0.581879
vn -0.500006 0.707103 0.499999
vn -0.500006 0.707103 0.499999
vn -0.500006 0.707103 0.499999
vn -0.581888 -0.568162 0.581892
vn -0.581888 -0.568162 0.581892
vn -0.581888 -0.568162 0.581892
s 1
g pCube1
usemtl initialShadingGroup
f 1/1/1 2/2/2 4/93/3 3/92/4
s 2
f 5/3/5 6/88/6 8/5/7 7/4/8
s off
f 7/4/9 8/5/10 2/7/11 1/6/12
s 3
f 2/2/13 8/8/14 6/9/15 4/93/16
f 7/10/17 1/1/18 3/92/19 5/11/20
s 1
f 3/92/4 4/93/3 94/103/21 93/99/22 101/108/23 100/107/24
s 3
f 4/93/16 6/88/15 9/89/25 32/17/26 31/90/27 95/104/28 94/103/29
s 2
f 6/88/6 5/3/5 10/24/30 9/89/31
s 3
f 5/3/20 3/92/19 100/107/32 99/101/33 17/97/34 16/25/35 10/24/36
f 16/25/35 15/29/37 22/33/38 21/26/39
f 15/29/37 14/28/40 23/34/41 22/33/38
f 14/28/40 13/27/42 24/35/43 23/34/41
f 13/27/42 12/12/44 25/15/45 24/35/43
f 21/26/39 20/32/46 54/54/47 58/13/48
f 20/32/46 19/31/49 55/55/50 54/54/47
f 19/31/49 18/30/51 56/56/52 55/55/50
f 18/30/51 29/21/53 57/14/54 56/56/52
f 29/21/53 28/38/55 41/45/56 40/22/57
f 28/38/55 27/37/58 42/46/59 41/45/56
f 27/37/58 26/36/60 43/47/61 42/46/59
f 26/36/60 25/15/45 44/16/62 43/47/61
f 36/23/63 35/41/64 45/48/65 44/16/62
f 35/41/64 34/40/66 46/49/67 45/48/65
f 34/40/66 33/39/68 47/50/69 46/49/67
f 33/39/68 32/17/26 48/19/70 47/50/69
f 40/22/57 39/44/71 50/51/72 49/18/73
f 39/44/71 38/43/74 51/52/75 50/51/72
f 38/43/74 37/42/76 52/53/77 51/52/75
f 37/42/76 48/19/70 53/20/78 52/53/77
f 29/21/53 40/22/57 49/18/73 57/14/54
f 25/15/45 12/12/44 36/23/63 44/16/62
f 48/19/70 32/17/26 9/89/25 53/20/78
f 10/24/36 16/25/35 21/26/39 58/13/48
s 2
f 54/54/79 55/55/80 56/56/81 57/14/82 49/18/83 50/51/84 51/52/85 52/53/86 53/20/87 9/89/31 10/24/30 58/13/88
s 7
f 12/12/89 13/27/90 59/57/91 11/80/92
s 3
f 11/80/93 59/57/94 60/58/95 17/97/34
s 9
f 17/97/96 60/58/97 15/29/98 16/25/99
s 7
f 13/27/90 14/28/100 61/59/101 59/57/91
s 3
f 59/57/94 61/59/102 60/58/95
s 9
f 60/58/97 61/59/103 14/28/104 15/29/98
s 3
f 28/38/55 29/21/53 18/30/51 62/60/105
f 62/60/105 18/30/51 19/31/49 63/61/106
f 63/61/106 19/31/49 20/32/46 64/62/107
f 20/32/46 21/26/39 22/33/38 64/62/107
f 64/62/107 22/33/38 23/34/41 65/63/108
f 65/63/108 23/34/41 24/35/43 66/64/109
f 24/35/43 25/15/45 26/36/60 66/64/109
f 66/64/109 26/36/60 27/37/58 67/65/110
f 67/65/110 27/37/58 28/38/55 62/60/105
f 67/65/110 62/60/105 63/61/106 68/66/111
f 63/61/106 64/62/107 65/63/108 68/66/111
f 65/63/108 66/64/109 67/65/110 68/66/111
s 10
f 32/17/112 33/39/113 69/67/114 31/90/115
s 3
f 31/90/27 69/67/116 70/68/117 30/95/118
s 7
f 30/95/119 70/68/120 35/41/121 36/23/122
s 10
f 33/39/113 34/40/123 71/69/124 69/67/114
s 3
f 69/67/116 71/69/125 70/68/117
s 7
f 70/68/120 71/69/126 34/40/127 35/41/121
s 3
f 47/50/69 48/19/70 37/42/76 72/70/128
f 72/70/128 37/42/76 38/43/74 73/71/129
f 73/71/129 38/43/74 39/44/71 74/72/130
f 39/44/71 40/22/57 41/45/56 74/72/130
f 74/72/130 41/45/56 42/46/59 75/73/131
f 75/73/131 42/46/59 43/47/61 76/74/132
f 43/47/61 44/16/62 45/48/65 76/74/132
f 76/74/132 45/48/65 46/49/67 77/75/133
f 77/75/133 46/49/67 47/50/69 72/70/128
f 77/75/133 72/70/128 73/71/129 78/76/134
f 73/71/129 74/72/130 75/73/131 78/76/134
f 75/73/131 76/74/132 77/75/133 78/76/134
s 13
f 81/77/135 80/82/136 83/83/137 82/78/138
s off
f 80/82/139 79/94/140 84/91/141 83/83/142
s 1
f 79/94/143 103/109/144 102/102/145 98/106/146 97/105/147 84/91/148
s 13
f 81/77/135 82/78/138 85/79/149 89/81/150
s 1
f 102/102/145 101/108/23 93/99/22 98/106/146
s 3
f 96/100/151 95/104/28 31/90/27 30/95/118 88/96/152
f 11/80/93 17/97/34 99/101/33 104/110/153 92/98/154
s 7
f 30/95/119 36/23/122 12/12/89 11/80/92 92/98/155 88/96/156
s 3
f 84/91/157 97/105/158 96/100/151 88/96/152 87/85/159
s 13
f 82/78/138 83/83/137 86/84/160 85/79/149
s off
f 83/83/161 84/91/162 87/85/163 86/84/164
s 7
f 87/85/165 88/96/156 92/98/155 91/87/166
s 13
f 85/79/149 86/84/160 90/86/167 89/81/150
s 7
f 86/84/168 87/85/165 91/87/166 90/86/169
s off
f 79/94/170 80/82/171 90/86/172 91/87/173
s 13
f 80/82/136 81/77/135 89/81/150 90/86/167
s 3
f 104/110/153 103/109/174 79/94/175 91/87/176 92/98/154
s off
f 93/99/177 95/104/178 96/100/179 98/106/180
f 99/101/181 101/108/182 102/102/183 104/110/184
f 93/99/185 94/103/186 95/104/187
f 96/100/188 97/105/189 98/106/190
f 99/101/191 100/107/192 101/108/193
f 102/102/194 103/109/195 104/110/196
